<svg width="15" height="15" viewBox="0 0 15 15" fill="none" xmlns="http://www.w3.org/2000/svg">
<path fill-rule="evenodd" clip-rule="evenodd" d="M7.63476 1.00095C12.7098 0.998047 12.7214 0.998047 12.9678 1.05891C13.104 1.09079 13.304 1.16615 13.417 1.22412C13.5445 1.29078 13.6924 1.40382 13.817 1.52555C13.9619 1.67337 14.0402 1.78351 14.1242 1.96031C14.188 2.09363 14.2604 2.30521 14.2836 2.43274C14.3242 2.63273 14.33 2.96604 14.33 4.89056C14.33 7.01507 14.3271 7.11941 14.2749 7.22375C14.2459 7.28172 14.1967 7.35418 14.1677 7.38027C14.1358 7.40635 14.0605 7.44983 13.9967 7.47591C13.9155 7.51069 13.846 7.51649 13.7648 7.502C13.6924 7.48751 13.6083 7.44113 13.5387 7.37737C13.4779 7.3194 13.417 7.22665 13.3996 7.17158C13.3851 7.11651 13.3735 6.6093 13.3735 5.02679H1.95394L1.95105 11.5626L2.0351 11.722C2.08437 11.8206 2.16553 11.9191 2.24668 11.9771C2.31624 12.0322 2.44087 12.093 2.51913 12.1162C2.63796 12.151 3.02344 12.1568 6.86669 12.1539L6.96523 12.2206C7.0203 12.2582 7.08986 12.3191 7.11885 12.3597C7.15073 12.4002 7.18261 12.4901 7.19131 12.5626C7.2029 12.6611 7.19131 12.722 7.14493 12.8176C7.11015 12.8901 7.04059 12.9654 6.86669 13.0698H4.67842C2.93649 13.0698 2.45826 13.0611 2.33073 13.0292C2.24378 13.0089 2.07278 12.9451 1.95394 12.8872C1.80033 12.8118 1.6786 12.722 1.53078 12.5771C1.40035 12.4466 1.29022 12.3017 1.22355 12.1713C1.16559 12.0582 1.09603 11.8843 1.07284 11.78C1.03516 11.6206 1.02646 10.9395 1.01197 7.15709C0.991684 3.09067 0.994583 2.70229 1.04096 2.46173C1.06994 2.29652 1.13081 2.11392 1.20327 1.96031C1.28732 1.78061 1.36557 1.67337 1.51919 1.51975C1.66121 1.37773 1.78584 1.28499 1.93366 1.21543C2.04669 1.15746 2.23509 1.0879 2.34522 1.05891C2.53652 1.00674 2.80607 1.00384 7.63476 1.00095ZM2.26987 2.09363C2.2148 2.13131 2.13654 2.20957 2.09596 2.26753C2.05539 2.3284 2.00611 2.42115 1.98583 2.47622C1.96554 2.54288 1.95394 2.83272 1.95394 3.33703V4.09931H13.3735C13.3735 2.83272 13.3619 2.53998 13.3388 2.46173C13.3156 2.38927 13.246 2.28782 13.1417 2.18638C13.0402 2.08204 12.9388 2.01248 12.8663 1.98929C12.7794 1.96321 11.5244 1.95451 7.64925 1.95741C3.8176 1.95741 2.52492 1.9661 2.45826 1.99219C2.40899 2.01248 2.32494 2.05885 2.26987 2.09363ZM10.7563 7.20347C10.8085 7.20057 10.9041 7.22665 10.9679 7.25853C11.0345 7.29042 11.1128 7.36288 11.1476 7.42374C11.2085 7.52229 11.2171 7.58315 11.2432 8.48165L11.4606 8.55121C11.5794 8.58889 11.7562 8.66425 12.0258 8.81206L12.3591 8.48744C12.5997 8.25557 12.7243 8.15413 12.8084 8.12515C12.9011 8.09616 12.9504 8.09616 13.0547 8.12805C13.1301 8.14834 13.2228 8.2034 13.2779 8.26137C13.3301 8.31644 13.3822 8.40339 13.3909 8.45266C13.3996 8.50484 13.3996 8.60048 13.388 8.66425C13.3706 8.76279 13.3156 8.83235 12.6924 9.4613L12.8142 9.70186C12.8808 9.83229 12.9591 10.0207 13.0402 10.3018H13.4953C13.8721 10.3018 13.9706 10.3105 14.0576 10.3511C14.1184 10.3801 14.188 10.4352 14.2141 10.4757C14.243 10.5163 14.2807 10.5946 14.301 10.6496C14.3213 10.7047 14.33 10.783 14.3213 10.8235C14.3126 10.8641 14.2749 10.9424 14.2373 10.9974C14.1996 11.0525 14.1126 11.1279 14.0402 11.1655C13.9213 11.2235 13.8692 11.2293 13.0257 11.2293L12.9794 11.3945C12.9562 11.4873 12.8808 11.6699 12.6924 12.0437L13.0315 12.3829C13.3156 12.6698 13.3706 12.7394 13.388 12.8379C13.3996 12.9017 13.3996 13.0002 13.388 13.0553C13.3764 13.1132 13.3214 13.2002 13.2605 13.2611C13.1996 13.3219 13.1127 13.377 13.0547 13.3886C12.9996 13.4002 12.9011 13.4002 12.8373 13.3886C12.7388 13.3712 12.6692 13.3161 12.0432 12.693L11.8026 12.8147C11.6693 12.8814 11.4867 12.9567 11.2287 13.0263V13.4553C11.2258 13.7538 11.2142 13.9161 11.1824 13.9973C11.1592 14.061 11.1186 14.1364 11.0896 14.1683C11.0635 14.1972 10.9911 14.2465 10.9302 14.2755C10.8722 14.3045 10.7969 14.3306 10.765 14.3306C10.7331 14.3306 10.6462 14.3016 10.5708 14.2668C10.4983 14.2291 10.4114 14.1596 10.3766 14.1132C10.3215 14.0349 10.3158 13.9799 10.2984 13.0408L10.1187 12.9886C10.0201 12.9596 9.83172 12.8814 9.46073 12.693L9.12162 13.0321C8.83178 13.3161 8.76222 13.3712 8.66368 13.3886C8.59992 13.4002 8.50427 13.4002 8.4521 13.3915C8.40283 13.3828 8.31587 13.3306 8.26081 13.2814C8.20284 13.2234 8.14777 13.1306 8.12748 13.0553C8.0956 12.9509 8.0956 12.9017 8.12458 12.8089C8.15357 12.7249 8.25501 12.6002 8.8115 12.0264L8.71585 11.8525C8.66368 11.7568 8.58832 11.58 8.48108 11.2438L8.00865 11.2293C7.58259 11.2177 7.52172 11.209 7.42318 11.1511C7.35941 11.1105 7.28985 11.0351 7.25507 10.9627C7.2087 10.867 7.1971 10.8061 7.2087 10.7076C7.21739 10.6351 7.24927 10.5453 7.28116 10.5047C7.31304 10.4641 7.3739 10.4062 7.41448 10.3743C7.48404 10.3221 7.5536 10.3134 8.48688 10.2873L8.52456 10.1279C8.54485 10.041 8.6202 9.85838 8.8115 9.47579L8.48688 9.14248C8.24921 8.89901 8.15357 8.77728 8.12748 8.69323C8.10139 8.60628 8.10139 8.54541 8.12458 8.45556C8.14197 8.386 8.19704 8.29036 8.24341 8.24398C8.28979 8.19761 8.38544 8.14254 8.4521 8.12515C8.54485 8.10196 8.60571 8.10196 8.69266 8.12805C8.77672 8.15413 8.89845 8.24978 9.47522 8.81206L9.72159 8.68743C9.85781 8.62077 10.0404 8.54541 10.2868 8.48744L10.3013 7.99762C10.31 7.70488 10.3302 7.48171 10.3505 7.44693C10.3679 7.41505 10.4143 7.35998 10.452 7.3252C10.4868 7.29042 10.5505 7.24984 10.5911 7.23245C10.6317 7.21796 10.707 7.20347 10.7563 7.20347ZM10.0694 9.54825C9.99693 9.58593 9.8665 9.68737 9.77665 9.77722C9.66362 9.89026 9.57667 10.012 9.50131 10.1714C9.40276 10.3772 9.39117 10.4352 9.37958 10.6786C9.36798 10.8815 9.37958 11.0003 9.41436 11.1279C9.44334 11.2235 9.49841 11.3597 9.54189 11.4322C9.58246 11.5047 9.67521 11.6264 9.74767 11.7017C9.82013 11.78 9.93896 11.8814 10.0114 11.9278C10.0839 11.9713 10.2201 12.038 10.3158 12.0698C10.4375 12.1133 10.5621 12.1336 10.736 12.1336C10.8722 12.1336 11.0403 12.1191 11.1128 12.0988C11.1853 12.0814 11.3186 12.0235 11.4142 11.9742C11.507 11.922 11.6548 11.809 11.7418 11.722C11.8345 11.6264 11.9417 11.4757 12.0055 11.3481C12.1127 11.1308 12.1127 11.1308 12.1127 10.754C12.1127 10.3801 12.1098 10.3714 12.0142 10.1714C11.9475 10.0352 11.8519 9.90475 11.7244 9.77722C11.6113 9.66708 11.4664 9.55694 11.3737 9.51057C11.2867 9.46999 11.1563 9.42362 11.0838 9.40623C11.0114 9.38884 10.8548 9.37725 10.736 9.37725C10.6085 9.37725 10.452 9.39753 10.3592 9.42942C10.2723 9.4584 10.1418 9.51057 10.0694 9.54825ZM3.68427 2.57186C4.07266 2.57766 4.13352 2.58346 4.20308 2.63563C4.24366 2.66751 4.30742 2.73127 4.3422 2.77475C4.38858 2.83851 4.40307 2.89938 4.40307 3.02691C4.40307 3.15444 4.38858 3.2153 4.3422 3.27907C4.30742 3.32254 4.24366 3.38631 4.20308 3.41819C4.13062 3.47036 4.07845 3.47616 3.64949 3.47616C3.21474 3.47616 3.16836 3.47036 3.09301 3.41529C3.04953 3.38341 2.98287 3.31095 2.94519 3.25588C2.90171 3.19212 2.88142 3.11386 2.88142 3.03271C2.88142 2.96604 2.89881 2.87619 2.922 2.82982C2.94519 2.78634 2.99446 2.72258 3.03214 2.6878C3.06692 2.65302 3.13068 2.61244 3.17126 2.59505C3.21184 2.57766 3.43211 2.56897 3.68427 2.57186ZM5.80009 2.56317C6.15659 2.56317 6.23194 2.57186 6.33049 2.62114C6.39715 2.65592 6.47251 2.72548 6.51019 2.78634C6.55076 2.8559 6.57395 2.94575 6.57395 3.02691C6.57395 3.10806 6.55076 3.19791 6.51019 3.26458C6.47251 3.32834 6.39715 3.3979 6.33049 3.43268C6.23194 3.48195 6.15659 3.49065 5.80878 3.49065C5.46098 3.49065 5.38562 3.48195 5.28707 3.43268C5.22041 3.3979 5.14505 3.32834 5.10737 3.26458C5.0668 3.19791 5.04361 3.10806 5.04361 3.02691C5.04361 2.93416 5.0639 2.8675 5.11317 2.79504C5.15375 2.73997 5.232 2.66461 5.28707 2.62983C5.37982 2.56897 5.4233 2.56317 5.80009 2.56317Z" fill="#A3A3A3" stroke="#A3A3A3" stroke-width="0.33"/>
</svg>
