<svg width="13" height="13" viewBox="0 0 13 13" fill="none" xmlns="http://www.w3.org/2000/svg">
<path d="M5.60837 0.0668225C5.54145 0.100234 5.45324 0.157944 5.41674 0.194393C5.37719 0.227804 5.31636 0.31285 5.27986 0.379673C5.24031 0.458645 5.21902 0.561916 5.21598 0.668224C5.21598 0.795794 5.23423 0.868692 5.29811 0.978037C5.35286 1.07827 5.42586 1.15117 5.5232 1.20584L5.66921 1.29089C10.9011 1.32126 10.965 1.32126 11.0989 1.38505C11.1749 1.41846 11.3027 1.50654 11.3818 1.58248C11.4639 1.65537 11.5673 1.79206 11.6099 1.88318L11.692 2.05023C11.692 10.9224 11.692 10.9498 11.6281 11.0864C11.5947 11.1624 11.5065 11.29 11.4304 11.3689C11.3574 11.4509 11.2205 11.5542 11.1293 11.5967L10.962 11.6787L5.66921 11.7091C5.44716 11.8336 5.36503 11.9157 5.30419 12.0098C5.23119 12.1313 5.21294 12.1921 5.21598 12.3287C5.21598 12.435 5.24031 12.5444 5.27986 12.6203C5.31636 12.6871 5.37719 12.7722 5.41674 12.8056C5.45324 12.8421 5.5445 12.8998 5.61446 12.9362C5.74526 13 5.76046 13 8.33689 13H10.9316C11.3818 12.8876 11.619 12.8026 11.7529 12.7327C11.8867 12.6629 12.0753 12.5414 12.1726 12.4624C12.2669 12.3804 12.4068 12.2407 12.4829 12.1495C12.5589 12.0584 12.6745 11.8792 12.7384 11.7547C12.8053 11.6301 12.8905 11.4175 12.93 11.2839L13 11.0409V1.95911C12.8905 1.58248 12.8053 1.36986 12.7384 1.24533C12.6745 1.12079 12.5589 0.941589 12.4829 0.850467C12.4068 0.759346 12.2669 0.619626 12.1726 0.537617C12.0753 0.458645 11.8867 0.33715 11.7529 0.26729C11.619 0.19743 11.3818 0.112383 11.2205 0.0728972L10.9316 0C5.76046 0.00303738 5.73005 0.00303741 5.60837 0.0668225ZM3.40305 2.70935C3.29963 2.76098 2.8829 3.18622 1.70876 4.43458C0.695831 5.50981 0.12701 6.13855 0.0844249 6.22664C0.0448812 6.30257 0.00837929 6.41799 0.00229565 6.48481C-0.00682982 6.56682 0.0114211 6.65187 0.0540066 6.74299C0.0965921 6.83715 0.607618 7.4021 1.69355 8.56542C2.81902 9.76519 3.30571 10.2664 3.39089 10.3058C3.45476 10.3362 3.57948 10.3636 3.66161 10.3636C3.76503 10.3666 3.86237 10.3423 3.96275 10.2937C4.04488 10.2542 4.14222 10.1783 4.17872 10.1297C4.21522 10.0811 4.26085 9.98995 4.28214 9.93224C4.30039 9.87453 4.3156 9.77126 4.3156 9.70444C4.3156 9.63762 4.28822 9.52827 4.2578 9.46145C4.22434 9.38855 3.79545 8.90561 3.19317 8.26776C2.63956 7.68154 2.18632 7.18645 2.18632 7.16822C2.18632 7.14696 3.27225 7.13785 5.38024 7.13785C8.20001 7.13785 8.58632 7.13178 8.68974 7.08925C8.75057 7.06495 8.83575 7.01332 8.87225 6.97687C8.91179 6.94042 8.97263 6.85537 9.00913 6.78855C9.04867 6.70958 9.06997 6.60631 9.06997 6.5C9.07301 6.3785 9.05172 6.2965 8.99696 6.19626C8.95742 6.12336 8.86312 6.02009 8.79316 5.96846L8.65932 5.87734C3.29659 5.85304 2.20457 5.83785 2.2137 5.81659C2.21674 5.79836 2.66389 5.31846 3.20229 4.74439C3.73765 4.17033 4.20914 3.64486 4.24868 3.575C4.29431 3.48995 4.3156 3.39883 4.3156 3.29556C4.3156 3.21051 4.28822 3.08902 4.26085 3.0222C4.23043 2.95537 4.15134 2.85514 4.08442 2.80047C4.02054 2.74579 3.91712 2.68808 3.85933 2.6729C3.80153 2.65467 3.70419 2.64252 3.6464 2.64252C3.5886 2.64252 3.4791 2.6729 3.40305 2.70935Z" fill="#666666"/>
</svg>
