<?xml version="1.0" encoding="utf-8"?>
<!-- Generator: Adobe Illustrator 25.4.1, SVG Export Plug-In . SVG Version: 6.00 Build 0)  -->
<svg version="1.1" id="Layer_1" xmlns="http://www.w3.org/2000/svg" xmlns:xlink="http://www.w3.org/1999/xlink" x="0px" y="0px"
	 viewBox="0 0 798.14 159.54" style="enable-background:new 0 0 798.14 159.54;" xml:space="preserve">
<style type="text/css">
	.st0{fill:url(#SVGID_1_);}
	.st1{fill:url(#SVGID_00000013883431260204780390000015693316663133414829_);}
	.st2{opacity:0.71;fill:url(#SVGID_00000059271221751066607600000006896610019610781865_);enable-background:new    ;}
	.st3{clip-path:url(#SVGID_00000129925278121424725560000004173247870410023090_);}
	.st4{filter:url(#Adobe_OpacityMaskFilter);}
	.st5{clip-path:url(#SVGID_00000114037051042808040270000010604703132696718781_);}
	.st6{clip-path:url(#SVGID_00000085218717226006803170000006647209434645722293_);}
	
		.st7{clip-path:url(#SVGID_00000087412600198617130090000013741587250748358538_);fill:url(#SVGID_00000168816126502525428630000000830143376480261565_);}
	
		.st8{clip-path:url(#SVGID_00000114037051042808040270000010604703132696718781_);mask:url(#SVGID_00000152241247766008652530000007145163559197081260_);fill:url(#SVGID_00000045579438259969741940000013355788498289261480_);}
	.st9{opacity:0.36;fill:url(#SVGID_00000150783362625820474170000003486710436565994914_);enable-background:new    ;}
	.st10{clip-path:url(#SVGID_00000065034610928235066930000002287585269578981005_);}
	.st11{filter:url(#Adobe_OpacityMaskFilter_00000096028794909112983600000001486350723291410108_);}
	.st12{clip-path:url(#SVGID_00000127765524856839258270000013941106985443630245_);}
	.st13{clip-path:url(#SVGID_00000183218906520661445070000000816174308277862820_);}
	
		.st14{clip-path:url(#SVGID_00000110454881403727885240000005092304808814146472_);fill:url(#SVGID_00000065771940891097865940000011064068968336165793_);}
	
		.st15{clip-path:url(#SVGID_00000127765524856839258270000013941106985443630245_);mask:url(#SVGID_00000175289225728760410720000012572743214997333434_);fill:url(#SVGID_00000139272323508556554890000000986779170821264057_);}
	.st16{opacity:0.7;fill:url(#SVGID_00000095335646857596769700000008191816952573667968_);enable-background:new    ;}
	.st17{opacity:0.9;fill-rule:evenodd;clip-rule:evenodd;fill:#F4F5F5;enable-background:new    ;}
	.st18{fill:url(#SVGID_00000165924792193295391050000001756379992064897716_);}
	.st19{clip-path:url(#SVGID_00000157301191197301956290000011151058530200833968_);}
	.st20{filter:url(#Adobe_OpacityMaskFilter_00000100372550801279419960000000064904684147466173_);}
	.st21{clip-path:url(#SVGID_00000098936587100661322860000006277615041704032682_);}
	.st22{clip-path:url(#SVGID_00000006695189215426119610000014723837742817906824_);}
	
		.st23{clip-path:url(#SVGID_00000139999912300552792630000014655828385718395290_);fill:url(#SVGID_00000044154054993079820650000007566040453807272850_);}
	
		.st24{clip-path:url(#SVGID_00000098936587100661322860000006277615041704032682_);mask:url(#SVGID_00000087404036531564224540000013748835669652389016_);fill:url(#SVGID_00000056421311176983398370000004851333263880226720_);}
	.st25{clip-path:url(#SVGID_00000035493184367320631570000012015253734488551614_);}
	.st26{filter:url(#Adobe_OpacityMaskFilter_00000010282715250249827470000003357880695926433954_);}
	.st27{clip-path:url(#SVGID_00000118399410167240363900000015491043821611138732_);}
	.st28{clip-path:url(#SVGID_00000061469199093137910750000015435544865454623653_);}
	
		.st29{clip-path:url(#SVGID_00000020375993470600932770000008614838546509699457_);fill:url(#SVGID_00000175316609204600224540000015925188903698899119_);}
	
		.st30{clip-path:url(#SVGID_00000118399410167240363900000015491043821611138732_);mask:url(#SVGID_00000162328900068498787950000018159545361254434476_);fill:url(#SVGID_00000082348410523974151270000006403819781567491473_);}
	.st31{clip-path:url(#SVGID_00000073699953216126193500000007536492374371499684_);}
	.st32{filter:url(#Adobe_OpacityMaskFilter_00000158715800937438611310000009983079024363213476_);}
	.st33{clip-path:url(#SVGID_00000000216752682746437450000015603026998089041039_);}
	.st34{clip-path:url(#SVGID_00000168076751475027296580000001515428312652074940_);}
	
		.st35{clip-path:url(#SVGID_00000157273992962947803220000010717327897461927332_);fill:url(#SVGID_00000063605793395245361410000003300959086792152464_);}
	
		.st36{clip-path:url(#SVGID_00000000216752682746437450000015603026998089041039_);mask:url(#SVGID_00000012454060351651530920000014860880264598140863_);fill:url(#SVGID_00000112623929703443096640000011194443773545296513_);}
	.st37{fill:url(#SVGID_00000072962023462803167240000013346684039502892439_);}
	.st38{opacity:0.1;fill:url(#SVGID_00000046314809475646260980000008766512246349801889_);enable-background:new    ;}
	.st39{opacity:0.15;fill:url(#SVGID_00000134212273329511612620000001875524863810176913_);enable-background:new    ;}
	.st40{fill:url(#SVGID_00000163777481169254871990000017000021698702256053_);}
	.st41{opacity:0.1;fill:url(#SVGID_00000116944695103057076150000009025417571792814991_);enable-background:new    ;}
	.st42{opacity:0.15;fill:url(#SVGID_00000074401510587043528460000006339836765520614560_);enable-background:new    ;}
	.st43{fill:#1C2F72;}
	.st44{fill:#808285;}
</style>
<g>
	
		<linearGradient id="SVGID_1_" gradientUnits="userSpaceOnUse" x1="45.6263" y1="23.8854" x2="46.8286" y2="130.8836" gradientTransform="matrix(1 0 0 -1 0 162)">
		<stop  offset="0" style="stop-color:#262262"/>
		<stop  offset="0.2303" style="stop-color:#196BAC"/>
		<stop  offset="0.2794" style="stop-color:#1D79B6"/>
		<stop  offset="0.3412" style="stop-color:#2088C0"/>
		<stop  offset="0.4039" style="stop-color:#2393C8"/>
		<stop  offset="0.4675" style="stop-color:#2599CC"/>
		<stop  offset="0.5333" style="stop-color:#269CCE"/>
		<stop  offset="0.5856" style="stop-color:#2798CA"/>
		<stop  offset="0.6491" style="stop-color:#298FBF"/>
		<stop  offset="0.7184" style="stop-color:#2B80B0"/>
		<stop  offset="0.7918" style="stop-color:#2C6C9C"/>
		<stop  offset="0.8685" style="stop-color:#2A5587"/>
		<stop  offset="0.9467" style="stop-color:#283970"/>
		<stop  offset="1" style="stop-color:#262262"/>
	</linearGradient>
	<path class="st0" d="M21.18,39.89c0,0-32.25,81.02-17.16,95.14c6.32,5.91,20.29,4.07,39.8,4.07h47.62c0,0-100.5-1.75-17.58-105
		C73.85,34.11,33.62,32.57,21.18,39.89z"/>
</g>
<g>
	
		<linearGradient id="SVGID_00000153700668213290025380000003132719407785849262_" gradientUnits="userSpaceOnUse" x1="-93.5475" y1="23.5468" x2="-92.3452" y2="130.5476" gradientTransform="matrix(-1 0 0 -1 71.1335 162)">
		<stop  offset="0" style="stop-color:#262262"/>
		<stop  offset="0.2303" style="stop-color:#196BAC"/>
		<stop  offset="0.2794" style="stop-color:#1D79B6"/>
		<stop  offset="0.3412" style="stop-color:#2088C0"/>
		<stop  offset="0.4039" style="stop-color:#2393C8"/>
		<stop  offset="0.4675" style="stop-color:#2599CC"/>
		<stop  offset="0.5333" style="stop-color:#269CCE"/>
		<stop  offset="0.5856" style="stop-color:#2798CA"/>
		<stop  offset="0.6491" style="stop-color:#298FBF"/>
		<stop  offset="0.7184" style="stop-color:#2B80B0"/>
		<stop  offset="0.7918" style="stop-color:#2C6C9C"/>
		<stop  offset="0.8685" style="stop-color:#2A5587"/>
		<stop  offset="0.9467" style="stop-color:#283970"/>
		<stop  offset="1" style="stop-color:#262262"/>
	</linearGradient>
	<path style="fill:url(#SVGID_00000153700668213290025380000003132719407785849262_);" d="M189.13,40.23
		c0,0,32.25,81.03,17.15,95.15c-6.32,5.91-20.29,4.06-39.79,4.06h-47.62c0,0,100.49-1.75,17.58-105
		C136.45,34.44,176.68,32.91,189.13,40.23z"/>
</g>
<g>
	<g>
		
			<radialGradient id="SVGID_00000022535603258269287250000018427653913007459727_" cx="122.1273" cy="115.5067" r="121.2181" gradientTransform="matrix(1 0 0 -1 0 162)" gradientUnits="userSpaceOnUse">
			<stop  offset="0.0545" style="stop-color:#6CB5E4"/>
			<stop  offset="0.1825" style="stop-color:#68B2E3"/>
			<stop  offset="0.317" style="stop-color:#5BA8DD"/>
			<stop  offset="0.4543" style="stop-color:#4599D4"/>
			<stop  offset="0.5929" style="stop-color:#1B86C8"/>
			<stop  offset="0.6606" style="stop-color:#007CC2"/>
			<stop  offset="1" style="stop-color:#0059A9"/>
		</radialGradient>
		<path style="opacity:0.71;fill:url(#SVGID_00000022535603258269287250000018427653913007459727_);enable-background:new    ;" d="
			M185.57,79.51c0,43.91-35.6,79.5-79.51,79.5s-79.51-35.59-79.51-79.5C26.55,35.6,62.15,0,106.07,0
			C149.97,0,185.57,35.6,185.57,79.51z"/>
		<g>
			<g>
				<defs>
					<polygon id="SVGID_00000137132722125623780520000014137515560802517950_" points="1,1 2,1 1,2 					"/>
				</defs>
				<defs>
					<polygon id="SVGID_00000044868221788828790440000000665897455993572745_" points="-1,-1 -2,-1 -1,-2 					"/>
				</defs>
				<clipPath id="SVGID_00000042696455851324890020000007413760755840695941_">
					<use xlink:href="#SVGID_00000137132722125623780520000014137515560802517950_"  style="overflow:visible;"/>
				</clipPath>
				
					<clipPath id="SVGID_00000112616863249399054680000014980157923294971045_" style="clip-path:url(#SVGID_00000042696455851324890020000007413760755840695941_);">
					<use xlink:href="#SVGID_00000044868221788828790440000000665897455993572745_"  style="overflow:visible;"/>
				</clipPath>
				<defs>
					<filter id="Adobe_OpacityMaskFilter" filterUnits="userSpaceOnUse" x="47.32" y="65.29" width="118.83" height="89.49">
						<feColorMatrix  type="matrix" values="1 0 0 0 0  0 1 0 0 0  0 0 1 0 0  0 0 0 1 0"/>
					</filter>
				</defs>
				
					<mask maskUnits="userSpaceOnUse" x="47.32" y="65.29" width="118.83" height="89.49" id="SVGID_00000080922327234543564410000006914984922675210928_">
					<g class="st4">
						<g>
							<defs>
								<polygon id="SVGID_00000147909568193372982940000016228656107716709787_" points="1,1 2,1 1,2 								"/>
							</defs>
							<defs>
								<polygon id="SVGID_00000083067354474557560220000017364402911260584623_" points="-1,-1 -2,-1 -1,-2 								"/>
							</defs>
							
								<clipPath id="SVGID_00000021090263605357563250000010763279857116710557_" style="clip-path:url(#SVGID_00000112616863249399054680000014980157923294971045_);">
								<use xlink:href="#SVGID_00000147909568193372982940000016228656107716709787_"  style="overflow:visible;"/>
							</clipPath>
							
								<clipPath id="SVGID_00000168808651710451912360000001492158389196552076_" style="clip-path:url(#SVGID_00000021090263605357563250000010763279857116710557_);">
								<use xlink:href="#SVGID_00000083067354474557560220000017364402911260584623_"  style="overflow:visible;"/>
							</clipPath>
							
								<linearGradient id="SVGID_00000002384621792388485860000002804106384624233861_" gradientUnits="userSpaceOnUse" x1="116.1707" y1="16.2236" x2="97.8161" y2="85.7376" gradientTransform="matrix(1 0 0 -1 0 162)">
								<stop  offset="0" style="stop-color:#FFFFFF"/>
								<stop  offset="1" style="stop-color:#000000"/>
							</linearGradient>
							
								<path style="clip-path:url(#SVGID_00000168808651710451912360000001492158389196552076_);fill:url(#SVGID_00000002384621792388485860000002804106384624233861_);" d="
								M166.15,110.04c0,24.71-26.6,44.74-59.42,44.74c-32.81,0-59.41-20.03-59.41-44.74s26.6-44.75,59.41-44.75
								C139.54,65.29,166.15,85.33,166.15,110.04z"/>
						</g>
					</g>
				</mask>
				
					<linearGradient id="SVGID_00000035514822926411645650000012248265115893223559_" gradientUnits="userSpaceOnUse" x1="116.1707" y1="16.2236" x2="97.8161" y2="85.7376" gradientTransform="matrix(1 0 0 -1 0 162)">
					<stop  offset="0" style="stop-color:#FFFFFF"/>
					<stop  offset="1" style="stop-color:#000000"/>
				</linearGradient>
				
					<path style="clip-path:url(#SVGID_00000112616863249399054680000014980157923294971045_);mask:url(#SVGID_00000080922327234543564410000006914984922675210928_);fill:url(#SVGID_00000035514822926411645650000012248265115893223559_);" d="
					M166.15,110.04c0,24.71-26.6,44.74-59.42,44.74c-32.81,0-59.41-20.03-59.41-44.74s26.6-44.75,59.41-44.75
					C139.54,65.29,166.15,85.33,166.15,110.04z"/>
			</g>
		</g>
		
			<linearGradient id="SVGID_00000080199258258171101510000017023965793323136924_" gradientUnits="userSpaceOnUse" x1="116.1707" y1="16.2236" x2="97.8161" y2="85.7376" gradientTransform="matrix(1 0 0 -1 0 162)">
			<stop  offset="0" style="stop-color:#FFFFFF"/>
			<stop  offset="1" style="stop-color:#FFFFFF"/>
		</linearGradient>
		<path style="opacity:0.36;fill:url(#SVGID_00000080199258258171101510000017023965793323136924_);enable-background:new    ;" d="
			M166.15,110.04c0,24.71-26.6,44.74-59.42,44.74c-32.81,0-59.41-20.03-59.41-44.74s26.6-44.75,59.41-44.75
			C139.54,65.29,166.15,85.33,166.15,110.04z"/>
		<g>
			<g>
				<defs>
					<polygon id="SVGID_00000119096890613377106030000013394588435654836401_" points="1,1 2,1 1,2 					"/>
				</defs>
				<defs>
					<polygon id="SVGID_00000098918037712558612010000002710438166652691079_" points="-1,-1 -2,-1 -1,-2 					"/>
				</defs>
				<clipPath id="SVGID_00000090999534095965558470000016280576785446311313_">
					<use xlink:href="#SVGID_00000119096890613377106030000013394588435654836401_"  style="overflow:visible;"/>
				</clipPath>
				
					<clipPath id="SVGID_00000048468427187084453620000007049531553505513864_" style="clip-path:url(#SVGID_00000090999534095965558470000016280576785446311313_);">
					<use xlink:href="#SVGID_00000098918037712558612010000002710438166652691079_"  style="overflow:visible;"/>
				</clipPath>
				<defs>
					
						<filter id="Adobe_OpacityMaskFilter_00000008134718891458400380000000079172057252908427_" filterUnits="userSpaceOnUse" x="64.68" y="3.95" width="116.04" height="93.99">
						<feColorMatrix  type="matrix" values="1 0 0 0 0  0 1 0 0 0  0 0 1 0 0  0 0 0 1 0"/>
					</filter>
				</defs>
				
					<mask maskUnits="userSpaceOnUse" x="64.68" y="3.95" width="116.04" height="93.99" id="SVGID_00000176019464786411089030000010440381052904735134_">
					<g style="filter:url(#Adobe_OpacityMaskFilter_00000008134718891458400380000000079172057252908427_);">
						<g>
							<defs>
								<polygon id="SVGID_00000009571516492028714220000000632554052108035979_" points="1,1 2,1 1,2 								"/>
							</defs>
							<defs>
								<polygon id="SVGID_00000032607991560420124340000011581468089401411731_" points="-1,-1 -2,-1 -1,-2 								"/>
							</defs>
							
								<clipPath id="SVGID_00000170249113558942779910000015676140704389769864_" style="clip-path:url(#SVGID_00000048468427187084453620000007049531553505513864_);">
								<use xlink:href="#SVGID_00000009571516492028714220000000632554052108035979_"  style="overflow:visible;"/>
							</clipPath>
							
								<clipPath id="SVGID_00000041989698085592494090000006817147152624033431_" style="clip-path:url(#SVGID_00000170249113558942779910000015676140704389769864_);">
								<use xlink:href="#SVGID_00000032607991560420124340000011581468089401411731_"  style="overflow:visible;"/>
							</clipPath>
							
								<linearGradient id="SVGID_00000058553682430936823440000017913376990345857727_" gradientUnits="userSpaceOnUse" x1="174.456" y1="145.5542" x2="71.9942" y2="77.2463" gradientTransform="matrix(1 0 0 -1 0 162)">
								<stop  offset="0" style="stop-color:#FFFFFF"/>
								<stop  offset="0.0115" style="stop-color:#F9F9F9"/>
								<stop  offset="0.1296" style="stop-color:#BFBFBF"/>
								<stop  offset="0.2509" style="stop-color:#8C8C8C"/>
								<stop  offset="0.3726" style="stop-color:#616161"/>
								<stop  offset="0.4949" style="stop-color:#3E3E3E"/>
								<stop  offset="0.6181" style="stop-color:#232323"/>
								<stop  offset="0.7425" style="stop-color:#0F0F0F"/>
								<stop  offset="0.8688" style="stop-color:#040404"/>
								<stop  offset="1" style="stop-color:#000000"/>
							</linearGradient>
							
								<path style="clip-path:url(#SVGID_00000041989698085592494090000006817147152624033431_);fill:url(#SVGID_00000058553682430936823440000017913376990345857727_);" d="
								M177.38,79.04c-10.69,20.81-43.83,25.09-74.03,9.58C73.15,73.1,57.33,43.66,68.02,22.86c10.69-20.81,43.84-25.1,74.03-9.58
								C172.25,28.79,188.07,58.23,177.38,79.04z"/>
						</g>
					</g>
				</mask>
				
					<linearGradient id="SVGID_00000005980054256624688130000003924961078150034091_" gradientUnits="userSpaceOnUse" x1="174.456" y1="145.5542" x2="71.9942" y2="77.2463" gradientTransform="matrix(1 0 0 -1 0 162)">
					<stop  offset="0" style="stop-color:#FFFFFF"/>
					<stop  offset="0.0115" style="stop-color:#F9F9F9"/>
					<stop  offset="0.1296" style="stop-color:#BFBFBF"/>
					<stop  offset="0.2509" style="stop-color:#8C8C8C"/>
					<stop  offset="0.3726" style="stop-color:#616161"/>
					<stop  offset="0.4949" style="stop-color:#3E3E3E"/>
					<stop  offset="0.6181" style="stop-color:#232323"/>
					<stop  offset="0.7425" style="stop-color:#0F0F0F"/>
					<stop  offset="0.8688" style="stop-color:#040404"/>
					<stop  offset="1" style="stop-color:#000000"/>
				</linearGradient>
				
					<path style="clip-path:url(#SVGID_00000048468427187084453620000007049531553505513864_);mask:url(#SVGID_00000176019464786411089030000010440381052904735134_);fill:url(#SVGID_00000005980054256624688130000003924961078150034091_);" d="
					M177.38,79.04c-10.69,20.81-43.83,25.09-74.03,9.58C73.15,73.1,57.33,43.66,68.02,22.86c10.69-20.81,43.84-25.1,74.03-9.58
					C172.25,28.79,188.07,58.23,177.38,79.04z"/>
			</g>
		</g>
		
			<linearGradient id="SVGID_00000025431335657017858880000009098683029170031540_" gradientUnits="userSpaceOnUse" x1="174.456" y1="145.5542" x2="71.9942" y2="77.2463" gradientTransform="matrix(1 0 0 -1 0 162)">
			<stop  offset="0" style="stop-color:#FFFFFF"/>
			<stop  offset="0.0215" style="stop-color:#FFFFFF"/>
			<stop  offset="1" style="stop-color:#FFFFFF"/>
		</linearGradient>
		<path style="opacity:0.7;fill:url(#SVGID_00000025431335657017858880000009098683029170031540_);enable-background:new    ;" d="
			M177.38,79.04c-10.69,20.81-43.83,25.09-74.03,9.58C73.15,73.1,57.33,43.66,68.02,22.86c10.69-20.81,43.84-25.1,74.03-9.58
			C172.25,28.79,188.07,58.23,177.38,79.04z"/>
	</g>
	<path class="st17" d="M142.64,8.36c0.18,0.07,0.33,0.17,0.5,0.24c0.09,0.28,0.2,0.59,0.28,0.83c0.23,0.64,0.59,0.23,0.91,0.07
		c0.07-0.03,0.13-0.1,0.13-0.17c14.3,7.96,26.16,20.28,33.35,35.75c-0.11,0.03-0.21,0.13-0.29,0.29c-0.24,0.5-1.09,2.03-1.09,2.03
		s0.77,1.18,1.44,1.53c0.67,0.37,1.21,0.99,2.23,1.86c0.06,0.08,0.13,0.17,0.2,0.22c0.19,0.5,0.36,1.01,0.54,1.53
		c0.01,0.38-0.04,0.72-0.02,1.04c0.03,0.85-0.59,1-1.04,1.27c-0.42,0.28-0.49,0.52-0.56,0.98c-0.08,0.5-0.42,2.76-0.64,2.45
		c-0.2-0.33-1.59-2.53-1.59-2.53s-0.89-1.16-1.83-1.6c-0.96-0.45-1.34-0.64-1.16,0.01c0.16,0.63-0.01,1.96,0.1,2.4
		c0.13,0.43-1.43-1.01-1.61-1.74c-0.19-0.69-0.69-1.87-0.93-3.01c-0.23-1.18-1.29,0.26-1.29,0.26s-0.34,2.81-0.66,2.89
		c-0.3,0.08-0.61-2.34-0.78-3.22c-0.16-0.86-0.74-1.57-0.98-1.8c-0.27-0.25-1.59-1.13-1.97-1.87c-0.4-0.74-0.67-0.35-0.92,0.17
		c-0.25,0.51-0.14,0.48-1.59,0.87c-1.45,0.37-1.11,1.41-1.66,2.29c-0.57,0.81-0.86,2.18-1.6,2.83c-0.73,0.66-0.98,1.18-0.86,1.68
		c0.12,0.51,0.91,2.05,0.92,2.82c0,0.77-0.29,1.51-0.53,2.34c-0.26,0.82-0.3,2.08-0.67,2.17c-0.37,0.12-0.76-0.9-0.92-1.53
		c-0.15-0.63-1.57-1.85-1.93-2.29c-0.39-0.45-1.88-2.42-1.88-2.42s-1.34-2.21-1.42-2.85c-0.13-0.64-0.58-2.43-0.58-2.43
		s-0.69,1.39-1.12,1.42c-0.44,0.07-1.07-0.63-1.26-1.56c-0.18-0.96-0.95-0.69-1.41-0.72c-0.45-0.04-1.32-1.18-1.64-1.1
		c-0.29,0.08-0.48,0.14-0.62,0.62c-0.12,0.5-1.4,0.75-1.7,0.82c-0.31,0.08-2.16,0.48-2.75,0.41c-0.59-0.09-1.53-1.21-1.88-1.26
		c-0.34-0.05-1.02,1.1-1.4,1.05c-0.4-0.04-1.31-0.58-2.22-0.8c-0.88-0.21-1.41-1.16-1.86-1.72c-0.48-0.56-1.24,0.72-0.92,1.38
		c0.29,0.69,1.87,1.28,1.99,1.77c0.14,0.49,0.43,0.59,1.26,1.05c0.81,0.46,0.37,0.97,0.84,0.99c0.45,0.03,0.87-0.85,1.38-1.35
		c0.51-0.52,0.33-1,0.63-1.07s0.48,0.86,0.98,0.79c0.51-0.06,2,0.48,2.44,0.98c0.45,0.47-0.06,1-0.16,1.57
		c-0.11,0.55-0.47,2.17-0.93,2.91c-0.44,0.74-0.91,1.68-1.75,2.14c-0.87,0.46-0.84,1.08-1.54,1.33c-0.69,0.25-2.4,1.92-2.64,2.2
		c-0.26,0.3-1.74,1.3-2.28,1.21c-0.54-0.08-1.11-1.47-1.56-2.5c-0.45-1-0.84-1.54-1.14-1.9c-0.29-0.39-1.67-1.25-1.97-1.4
		c-0.32-0.15-1.36-1.72-1.6-2.4c-0.26-0.72-0.84-0.25-1.18-1c-0.32-0.77-1.26-1.67-1.51-2.12c-0.21-0.38-0.95,0.13-1.46,0.44
		c0.15,0.18,0.34,0.38,0.49,0.56c0.67,0.83,1.42,2,2.17,2.87c0.74,0.88,0.73,3.03,1.39,3.54c0.64,0.52,2.05,0.77,2.58,1.53
		c0.52,0.79,1.48,1.45,1.74,1.46c0.27,0.03,1.71,1.38,1.9,1.81c0.17,0.41-0.02,1.44,0.97,1.26c1-0.2,1.69-0.96,1.96-1.19
		c0.25-0.23,2.35-1.92,2.75-1.58c0.43,0.37,0.19,2.41,0.25,2.93c0.08,0.5-1.04,3.4-0.95,4.07c0.12,0.67-0.62,2.06-1.24,2.38
		c-0.64,0.32-1.51,2.69-1.82,3.46c-0.31,0.77-0.73,2.4-1.06,2.65c-0.33,0.22-0.1,2.21,0.14,2.43c0.26,0.23,0.64,1.55,1.34,1.99
		c0.68,0.42,0.99,0.8,0.87,1.38c-0.1,0.56,0.55,1.62,0.66,2.58c0.14,0.96-0.65,2.15-0.84,2.49c-0.15,0.36-1.09,1.45-1.4,2.29
		c-0.3,0.83-0.56,1.59-0.34,1.91c0.22,0.33,1.17,2,1.22,2.46c0.05,0.44-1.5,1.05-1.9,1.48c-0.43,0.41,0.51,1.17,0.78,1.71
		c0.28,0.52-0.45,1.69-0.75,2.33c-0.28,0.61-0.99,2.62-1.61,3.46c-0.61,0.86-1.77,1.02-2.58,1.14c-0.81,0.14-1.91,1.19-2.13,1.61
		c-0.2,0.45-0.64,0.48-1.32,0.28c-0.71-0.2-0.91-0.68-1.18-1.45c-0.25-0.76-0.57-1.24-0.57-1.24s-0.49-1.14-1.19-1.58
		c-0.7-0.43-1.06-1.02-1.46-1.39c-0.42-0.33,0.12-1.79-0.13-2.56c-0.27-0.77-1.55-1.4-1.98-1.82c-0.43-0.43-1.39-1.64-1.76-2.07
		c-0.39-0.45-0.93-1.35-1.25-2.81c-0.31-1.45,0.08-2.44,0.46-3.01c0.38-0.54,0.06-1.01-0.6-1.77c-0.64-0.74-0.52-2.3-1.03-2.71
		c-0.5-0.39-1.77-3.04-2.56-3.3c-0.78-0.27-1.48-0.06-1.39-1.17c0.11-1.09-0.52-1.99-0.08-2.8c0.44-0.8,0.02-1.15-0.76-1.4
		c-0.77-0.27-0.58-0.53-0.99,0.11c-0.43,0.65-1.07,1.12-1.62,0.75c-0.56-0.41-0.64-1.22-1.58-1.6c-0.93-0.36-2.14,0.17-2.42,0.4
		c-0.25,0.21-0.55,1.59-1.36,1.98c-0.81,0.36-1.47,0.31-2.31,0.52c-0.86,0.22-1.57,0.49-1.55,1.02c0,0.51-0.09,0.87-0.78,0.5
		c-0.68-0.36-2.06-1.22-2.06-1.22s-1.52-1.71-2.07-2.49c-0.51-0.78-1.57-0.54-2.89-0.89c-1.32-0.32-0.84-1.22-1.14-1.92
		c-0.32-0.68-0.99-0.79-0.71-0.94c0.28-0.16,0.09-0.64,0.5-1.82c0.42-1.16-0.29-2.14-0.56-2.66c-0.27-0.54-1.11-1.26-0.73-2.34
		c0.35-1.09,0.16-3.41,0.49-4.11c0.34-0.69,1.63-1.62,2.18-2.16c0.59-0.54-0.08-1.34,0.01-2.53c0.07-1.14,0.48-1.79,0.67-1.84
		c0.19-0.05,0.67-0.96,1.26-1.63c0.46-0.5,1.84-0.42,2.03-0.62c0.21-0.19,1.08-0.8,1.56-1.23c0.47-0.41,2.05-1.6,2.29-1.68
		c0.23-0.05,3.27-0.76,3.65-1.08c0.37-0.33,1.93-1.06,2.83,0.39c0.89,1.45-0.31,1.09-0.72,1.49c-0.41,0.42,0.42,0.89,0.67,0.83
		c0.23-0.06,1.33,0.64,1.75,0.53c0.42-0.12,1.57,0.12,1.57,0.12s1.27,0.67,1.83,0.52c0.53-0.14,1.76,0.72,2.18-0.15
		c0.42-0.88,0.31-2.41,0.96-2.44c0.63-0.01,1.45,0.4,2.24,0.2c0.79-0.23,2.2-0.75,2.54-0.44c0.34,0.27-1.23,1.98-1.02,2.24
		c0.18,0.25,0.41,0.12,0.79-0.89c0.38-1.04,1.29-1.26,1.96-1.67c0.33-0.2,0.68,0.01,0.97,0.33c0.17-0.19,0.44-0.25,0.7-0.32
		c0.61-0.15,0.28-0.45,0.69-1.31c0.42-0.86,0.23-2.36,0.04-3.29c-0.17-0.94-0.54-0.39-0.99-0.12c-0.43,0.28-1.11,0.68-1.36,0.67
		c-0.27-0.01-1.33-0.12-1.45,0.14c-0.12,0.26-1.19,0.4-1.53,0.1c-0.35-0.28-1.67-0.42-1.85-0.67c-0.21-0.25-0.52-2-0.89-2.36
		c-0.36-0.38-0.77,0.25-0.99,0.63c-0.23,0.35-1.02,0.79-0.73,0.94c0.3,0.15,1.2,0.39,1.3,0.97c0.08,0.58-0.43,0.86-0.65,1.23
		c-0.25,0.36-1.05,1.78-1.32,1.47c-0.26-0.31-0.98-2.55-1.22-2.78c-0.27-0.24-0.98-0.82-1.34-1.42c-0.35-0.58-1.07-0.63-1.62-1.03
		c-0.55-0.38-1.98-0.85-2.59-1.3c-0.64-0.45-1.59-0.67-1.48,0.07c0.13,0.73,1.07,0.65,1.62,1.27c0.56,0.62,1.46,0.84,1.92,0.92
		c0.49,0.11,1.89,0.75,1.89,0.75s-0.44,0.33-0.87,0.38c-0.45,0.03,0.64,1.47,0.7,1.98c0.05,0.52-0.83,0.03-1.11-0.5
		c-0.27-0.54-0.79-1.11-1.09-1.25c-0.29-0.13-2.04-0.31-2.29-0.39c-0.28-0.07-1.54-0.58-1.81-1.2c-0.3-0.62-1.22-0.44-1.43-0.26
		c-0.21,0.23-0.91,1.24-1.34,1.35c-0.41,0.1-1.17-0.07-1.67-0.01c-0.5,0.05-0.31,1.07-0.33,1.67c-0.04,0.62-0.93,0.4-1.23,1.01
		c-0.3,0.6-0.9,1.29-0.59,1.69c0.29,0.37,0.59,0.3,0.15,0.8c-0.46,0.49-0.58,1.29-1.1,1.5c-0.54,0.23-1.19,0.7-1.55,0.56
		c-0.35-0.13-0.35,0.85-0.48,1.13c-0.14,0.27-0.65-0.53-1.05-0.81c-0.4-0.28-1.1,0.22-1.36,0.21c-0.26-0.03-0.67-0.59-1.04-0.81
		c-0.38-0.18-0.49-0.85-0.29-1.14c0.18-0.28,0.33-0.69-0.04-1.28c-0.34-0.6-0.82-2-0.31-2.44c0.53-0.44,2.05-0.55,2.8-0.74
		c0.72-0.18,2.04-0.2,2.14-0.7c0.12-0.73,0.05-1.48-0.16-2.11c-0.25-0.62-1.58-0.88-2.42-0.8c-0.81,0.05-0.81-0.42,0.01-0.69
		c0.84-0.3,0.69-0.64,1.37-0.98c0.69-0.33,1.36-0.74,1.88-0.94c0.52-0.23,0.37-0.78,0.27-1.2c-0.11-0.44,1.36-0.98,1.36-0.98
		s0.61-1.15,0.98-1.72c0.38-0.55,1.24-0.69,1.98-0.64c0.71,0.02-0.2-0.5-0.54-0.78c-0.34-0.29-0.37-1.13-0.28-1.61
		c0.06-0.47,1.11-0.96,1.44-0.91c0.33,0.07,0.19,0.79,0.4,1.35c0.22,0.55,0.79,0.78,0.79,0.78l0.48-0.21c0,0,0,0,0.79-0.19
		c0.77-0.2,0.82-0.2,1.37-0.57c0.55-0.38,1.07-0.21,1.27-0.43c0.22-0.2,0.87-0.38,1.88-0.25c1,0.12,0.25-0.77,0.28-1.37
		c0.04-0.62,0.14-1.71,0.77-1.8c0.62-0.09,1.22,0.2,1.61-0.27c0.39-0.48-1.13-0.63-1.19-0.84c-0.05-0.19,1.1-0.5,2.1-0.84
		c1.02-0.34,1.63-0.43,2.08-0.7c0.45-0.27-0.65-1.05-0.84-1c-0.17,0.04-1.36,0.5-1.98,0.58c-0.61,0.09-1.16,0.77-1.66,1.06
		c-0.51,0.27-0.89-0.69-1.31-1.04c-0.41-0.36-0.74-1.1-0.06-1.75c0.67-0.64,1.82-1.92,1.94-2.42c0.14-0.5-1.05-0.12-2.18,0.26
		c-1.13,0.35,0.29,0.37-0.47,1.95c-0.73,1.59-1.52,0.85-2.14,1.95c-0.63,1.08,0.01,0.98,0.88,1.06c0.84,0.09,0.4,1.11,0.27,1.38
		c-0.13,0.27-0.84,1.29-0.55,1.82c0.27,0.55-0.38,1.09-0.38,1.09s-2.09,1.15-2.48,1.34c-0.42,0.16-0.66-0.23-0.64-0.67
		c0.02-0.46-0.85-1.31-1.08-1.92c-0.24-0.63-0.89,0.53-0.84,0.97c0.06,0.44-1.08,0.82-1.83,0.71c-0.72-0.11-1.36-1.09-1.31-1.34
		c0.07-0.25-0.69-1.21-0.76-1.48c-0.09-0.28,0.81-2.74,1.86-3.32c1.08-0.57,2.26-1.65,2.87-2.56c0.6-0.92,0.75-1.88,0.92-2.16
		c0.19-0.27,3.74-3.74,5.19-4.42c1.44-0.68,5.22,0.17,5.8,0.19c0.58,0,0.93,0.13,2.43,0.37c1.46,0.2,2.56-0.73,3.44-0.81
		c0.9-0.09,1.56,0.71,2.19,0.86c0.61,0.14,0.13,0.5-1.08,1.35c-1.19,0.83-2.15,0.93-2.93,0.85c-0.81-0.1-1.22,0-0.58,0.29
		c0.66,0.29,0.54,0.55,0.76,1.18c0.23,0.63,0.94-0.17,1.08-0.35c0.13-0.21,0.07-0.48,0.87-0.17c0.8,0.33,0.95-0.01,1.25-0.16
		c0.29-0.16-0.18-0.89-0.06-1.23c0.1-0.33,0.83-0.52,0.98-0.7c0.15-0.19,0.5-0.5,0.84-0.67c0.35-0.17,0.46,0.54,0.88,0.68
		c0.44,0.11-0.06-0.97-0.25-1.24c-0.2-0.24-0.52-1.01-0.39-1.27c0.13-0.27,1.36-0.73,1.75-0.5c0.37,0.19-0.2,1.25,0.12,1.72
		c0.32,0.44,0.51-0.45,0.71-0.96c0.18-0.52,0.96-0.26,1.99-0.75c1.05-0.51,0.62-1.16,1.87-1.03c1.28,0.12,0.97,0.2,1.23-0.32
		c0.26-0.51,1.04-0.19,1.63-0.64c0.59-0.46,0.66-0.17,1.24-0.02c0.55,0.16,0.92-0.85,1.1-1.2c0.17-0.36,1.12-0.6,1.64-0.65
		c0.51-0.06,1.2,0.15,1.68,0.01c0.5-0.13,1.4,0.12,1.4,0.12s1.13,0.15,1.3-0.2c0.16-0.35-0.24-0.62-1.27-0.89
		c-1.03-0.26-0.89-1.21-0.37-1.42c0.53-0.21,0.38-0.55,0.71-0.94c0.37-0.41,0.63-1.62,1.17-1.53c0.53,0.09,1.07,0.41,1.78,0.61
		c0.69,0.2,0.27,0.83,0.25,1.22c-0.04,0.38,0.56,1.7,0.81,1.85c0.24,0.17,0.07,1.04-0.31,1.53c-0.39,0.49-0.84,1.45-0.63,1.54
		c0.21,0.09,1.47-1.07,1.47-1.07s0.58-1.52,0.9-1.98c0.33-0.47,0.76-0.59,0.99-0.2c0.24,0.41,0.95,0.39,1.46-0.07
		c0.54-0.45-0.12-0.48-0.34-1.12c-0.24-0.63-1.12-0.02-1.64,0.26c-0.5,0.3-0.75,1.04-0.92,1.09c-0.19,0.04-0.3-0.39-0.35-1.06
		c-0.05-0.67-0.5-0.94-0.6-1.28c-0.09-0.37,0.09-0.42,0.3-1.23L142.64,8.36L142.64,8.36z M177.51,46.74
		c-0.04,0.32-0.08,0.69-0.03,1.16c0.1,0.77,0.6,1.06,0.97,1.01C178.15,48.18,177.85,47.48,177.51,46.74L177.51,46.74z M182.49,61.96
		c-0.32-0.12-0.69-0.26-0.78-0.07c-0.16,0.36,0.37,1.66,1.09,2.7c0.09,0.14,0.19,0.25,0.31,0.35
		C182.92,63.95,182.72,62.95,182.49,61.96L182.49,61.96z M183.75,69.38c-0.72-0.17-1.34,0.39-1.73-0.09c-0.38-0.5-0.74-0.42-0.89,0
		c-0.29,0.77,0.42,1.11,0.64,1.22c0.22,0.08,0.92,0.06,1.52-0.15c0.18-0.08,0.39-0.19,0.56-0.3
		C183.83,69.83,183.8,69.61,183.75,69.38L183.75,69.38z M26.89,86.85c-1.22-11.88,0.29-23.55,4.07-34.37l0.26-0.01
		c1.08-0.06,1.56-0.31,2.07-0.6c0.5-0.28,1.2,0.3,1.33,0.78c0.12,0.5,0.51,0.47,0.62,1.14c0.12,0.66,0.52-0.76,0.52-0.76
		s0.59,1.01,0.37,1.21c-0.21,0.2,0.27,0.76,0.56,0.62c0.28-0.15,0.77,0.01,1.05-0.44c0.26-0.45-0.55-1.37-0.67-1.81
		c-0.11-0.44-0.52-0.55-0.82-0.94c-0.28-0.37,0.34-0.62,0.71-0.25c0.35,0.37,0.69-0.1,1.02-0.57c0.32-0.48,0.15-1.12,0.15-1.12
		s-1.01-0.96-1.64-1.09c-0.63-0.16-0.39-0.29,0.11-0.57c0.51-0.28-0.09-0.36-0.17-1.19c-0.07-0.8-0.2-1.3,0.09-1.38
		c0.31-0.1,1.32-0.59,2.26-0.74c0.93-0.18,1.56,0.49,2.18,0.41c0.62-0.09,1.62-0.19,1.9,0.1c0.27,0.3-0.92,0.86-0.35,1.33
		c0.57,0.46,0.97,0.12,1.47,0.21c0.48,0.1,0.93-0.15,1.24-1.15c0.33-1.02,0.55-1.14,0.76-1.05c0.22,0.1,1.79,1.36,2.17,1.64
		c0.4,0.29,0.96,1.24,1.11,1.59c0.16,0.35,1.26-0.21,1.5-0.28c0.25-0.06,1.35,0.5,1.58,0.89c0.24,0.39,0.52,0.48,1.37,0.5
		c0.83,0.01,0.26,0.98,0.2,1.46c-0.08,0.47-0.16,0.67-0.28,1.21c-0.1,0.58,0,0,0.37,0.13c0.35,0.15,0.56,0.41,1,0.14
		s0.73-0.18,1.01,0.2c0.29,0.36,0.63,0.66,0.91,0.97c0.29,0.31,0.24,0.93-0.08,0.65c-0.35-0.31-1.08,0.11-1.08,0.11
		s-0.25,0.52-0.43,0.34c-0.17-0.19-0.49-0.41-0.89-0.15c-0.37,0.26-0.83,0.21-1.29,0.42c-0.47,0.2-0.74-0.12-0.52-0.48
		c0.23-0.35,0.03-1.45,0.5-2.04c0.51-0.58,0.15-1.17-0.28-1.07c-0.41,0.1-0.43,0.8-0.63,1.01c-0.21,0.2-1.13,0.01-1.48,0.48
		c-0.33,0.46-0.95,0.92-0.48,0.95c0.45,0.03-0.42,0.86-0.78,0.95c-0.37,0.12-0.49-0.85-0.59-1.23c-0.1-0.35-0.43,0.36-0.43,0.36
		s-1.14-0.39-1.39,0.13s-1.6,0.67-1.92,1.22c-0.31,0.54-0.23,1.71-0.23,1.71s0.3-0.33,1-0.72c0.65-0.39,0.62-0.33,1.11-0.84
		c0.53-0.5,1.11-0.81,1.69-0.27c0.59,0.52,0.08,1.05,0.08,1.05s0.37,0.43,0.65,0.51c0.27,0.08,0.26-0.22,0.61-0.62
		c0.36-0.4,0.4,0.51,0.59,0.76c0.2,0.26,0.63,0.15,0.78-0.27c0.14-0.45,0.25-0.76,0.48-0.59c0.25,0.16,0.56,0.61,0.86,1.07
		c0.34,0.46-1.09,0.98-1.31,1.12c-0.24,0.13-1.31,0.73-1.46,0.85c-0.17,0.11-0.59,0.9-1.08,1.02c-0.5,0.13-0.67-0.74-0.85-1.2
		c-0.19-0.51-0.64,0.22-0.66,0.45c-0.01,0.24-0.56,0.31-0.98,0.49c-0.38,0.17-0.98,0.87-0.83,1.43c0.16,0.58,1.17,0.99,1.05,1.3
		c-0.11,0.32-1.53,0.58-1.99,0.54c-0.45-0.02-0.97,0.49-0.71,0.75c0.24,0.22,0.24,0.69-0.2,0.73c-0.43,0.04-0.37,0.57-0.1,0.86
		c0.28,0.3-0.27,1.22-0.53,0.98c-0.25-0.24-0.66-0.3-0.55,0.14c0.11,0.45,0.64,0.95,1.15,1.4c0.51,0.5-0.84,0.99-1.15,1.51
		c-0.3,0.53-0.87,2.25-1.4,2.69c-0.55,0.44-0.83,1.46-0.42,1.75c0.4,0.28,1.14,1.68,1.46,2.14c0.31,0.45,0.44,1.94-0.13,2.02
		c-0.57,0.06-0.49-0.87-1.08-0.95c-0.6-0.07-1.24-1.28-1.58-2.11c-0.35-0.82-0.34-0.29-0.62,0.09c-0.28,0.39-0.86-0.38-1.1-0.55
		c-0.25-0.17-0.98,0.7-1.72,0.82c-0.75,0.1-1.09,0.38-1.02,0.59c0.05,0.22,0.1,0.87-0.69,0.64c-0.78-0.25-0.89-0.22-1.55-0.04
		c-0.67,0.16-1.3,0.25-1.34,0.56c-0.05,0.32-0.54,1.12-0.93,1.37c-0.4,0.27-0.99,1.21-0.58,1.24c0.4,0.05,0.65,1.04,0.57,1.67
		c-0.11,0.65,0.21,1.64,0.6,2.59c0.38,0.99,1.29,1.44,2.12,1.9c0.84,0.47,1.13,0.61,1.65-0.13c0.5-0.74,0.84-0.45,1.05-0.42
		c0.2,0.02,0.58-0.52,0.23-1.13c-0.35-0.6-0.09-1.29,0.48-1.36c0.56-0.05,1.28-0.56,1.73-0.61c0.43-0.03,1.03,1.28,0.51,2.01
		c-0.51,0.76,0.08,1.51,0.12,2.18c0.06,0.68-0.46,0.96,0.21,0.79c0.66-0.19,0.52,0.01,0.97-0.03c0.42-0.03,0.73-0.66,1.14-0.82
		c0.4-0.19,1.79,0.66,1.76,1.27c-0.04,0.62,0.03,1.68,0.33,2.6c0.33,0.92,0.58,0.91,0.77,1.15c0.19,0.26,0.85,0.79,1.32,0.36
		c0.47-0.44,0.94-0.8,1.05-1.11c0.12-0.35,1.47,0.16,1.41,0.39c-0.07,0.24,0.54,0.33,0.84,0.01c0.31-0.32,0.4-0.71,0.62-1.36
		c0.22-0.69,0.68-1.34,0.97-1.5c0.28-0.16,0.78-1.19,1.3-1.19c0.52,0.02,0.05,0.91,0.1,1.38c0.06,0.42,0.44,1.63,0.71,1.65
		c0.25,0.01-0.11-0.89,0.02-1.62c0.14-0.71,0.66-1.25,0.96-1.32c0.29-0.08,0.94,1.36,1.25,0.84c0.3-0.57,1.19-0.72,1.46-0.32
		c0.31,0.38,0.53,0.54,0.53,0.54s0.23-0.35,0.13-0.72c-0.09-0.36,0.8-0.98,1.51-0.68c0.71,0.25,0.52,0.47,0.83,0.47
		c0.33,0,0.36-1.11,0.52-1.23c0.17-0.12,0.31,1.16,0.04,1.91c-0.25,0.76,0.49,0.32,0.49,0.32s0,0,0.23,0.19
		c0.24,0.16,0.73-0.43,1.09-0.05c0.36,0.36,0.82,0.4,1.39,1.09c0.56,0.68,0.81-0.1,1.49-0.43c0.68-0.36,2.01,0.43,2.97,1.17
		c0.95,0.73,1.03,1.49,1.51,1.37c0.49-0.12,0.8,0.62,0.88,0.92c0.07,0.27-0.83,1.21-1.41,1.52c-0.57,0.28-0.37,1,0.54,0.53
		c0.9-0.47,0.37-0.77,0.92-1.15c0.56-0.37,1.29-0.04,0.97,0.98c-0.33,0.99-1.39,1.36-0.38,1.24c0.99-0.1,0.36-0.26,0.7-1.24
		c0.34-0.99,0.34-0.69,0.69-0.81c0.37-0.1,1.21-0.07,1.59,0.14c0.38,0.2,1.28,0.44,1.85,0.68c0.57,0.23,1.15-0.09,1.47-0.33
		c0.31-0.25,1.51,0.07,2.01,0.54c0.52,0.49,1.44,0.31,1.93,0.43c0.47,0.09,1.36,0.78,1.61,1.49c0.24,0.69-0.1,2.38-0.05,2.75
		c0.04,0.39-0.6,1.91-1.29,3.01c-0.69,1.08,0.13,1.96,0.29,2.36c0.17,0.43-0.08,2.18,0.19,2.49c0.27,0.3,0.05,1.19-0.19,1.79
		c-0.23,0.6-0.22,1.58-0.36,2.08c-0.12,0.49-0.95,0.57-1.61,0.96c-0.66,0.4-0.99,0.72-0.99,0.72s-1.07,1.03-1.66,1.78
		c-0.58,0.78,0.65,1.51,0.5,2.39c-0.16,0.89-0.64,0.27-0.75,1.31c-0.12,1-0.42,0.92-0.66,1.2c-0.25,0.31-0.28,0.92-0.2,1.5
		c0.09,0.59-0.37,1.33-0.94,2.38c-0.56,1.08-1.08,1.04-1.99,0.99c-0.92-0.08-1.44-2.53-1.48-2.17c-0.01,0.42-0.12,1.75,0.07,1.94
		c0.17,0.19,1.23,0.79,1.58,0.93c0.36,0.13,0.39,0.51,0.25,0.93c-0.14,0.41-0.48,1.87-0.7,2.01c-0.22,0.14-2.02,0.91-2.44,0.8
		c-0.44-0.13-0.43,0.63-0.25,1.06c0.17,0.4,0.6,0.83-0.08,0.85c-0.71,0.04-1.77-0.25-1.66,0.13c0.09,0.36,0.49,1.09,0.86,1
		c0.35-0.11,0.65-0.49,0.6,0.07c-0.06,0.55-0.43,1.1-0.63,1.38c-0.18,0.27-0.31,1.06-0.77,1.74c-0.48,0.63-0.4,0.94-0.22,1.13
		c0.17,0.17,1.05-0.2,1.28-0.1c0.19,0.08,0.12,1.18-0.08,1.43c-0.17,0.29-0.96,1.55-1.31,1.96c-0.34,0.4-0.11,1.26,0.12,1.66
		c0.23,0.4,1.49,1.23,2.08,1.3c0.6,0.05,1.72-0.32,1.66-0.08c-0.05,0.25-1.33,0.81-1.49,0.93c-0.17,0.12-1.05,0.67-1.55,0.79
		c-0.48,0.12-1.53-0.21-1.72-0.16c-0.19,0.04,0.04-0.34,0.51-1.06c0.45-0.73-0.57-1.15-0.49-0.33c0.09,0.81-0.09,1.07-0.4,1.15
		c-0.31,0.08-0.8-0.31-1.03-0.47c-0.23-0.19-1.07-0.2-1.17-1.07c-0.12-0.89-0.59-0.69-1.03-0.97c-0.46-0.26,0.3-0.78,0.09-1.09
		c-0.2-0.33-0.68,0.03-0.88-0.45c-0.18-0.49,0.16-1.34,0.16-1.58c0.01-0.23-0.53-0.56-0.67-0.88c-0.16-0.37,0.05-0.78,0.31-1.48
		c0.29-0.69,0.4-1.47,0.35-1.68c-0.06-0.23-0.56-0.94-0.71-1.51c-0.16-0.57,0.11-0.85,0.01-1.67c-0.1-0.82-0.56-0.39-0.72-1.04
		c-0.17-0.65,0.49-0.58,0.2-1.2c-0.28-0.62,0.02-1.15,0.1-1.63c0.06-0.48,0.05-1.24,0.17-1.8c0.11-0.58-0.66-1.57-0.72-1.78
		c-0.06-0.23,0.64-0.73,0.17-1.06c-0.48-0.32,0.17-0.63,0.44-1.1c0.27-0.44-0.66-1.49-0.81-2.84c-0.16-1.34-0.54-3.6-0.6-3.82
		c-0.05-0.19-0.23-1.08-0.68-1.57c-0.46-0.5-0.93-0.83-1.41-0.92c-0.49-0.1-1.19-0.6-1.52-0.61c-0.33,0.02-2.32-0.11-2.56-1.1
		c-0.27-1.01-1.13-1.67-1.43-2.36c-0.32-0.67-1.64-2.02-1.88-2.71c-0.24-0.7-1.56-0.6-1.97-1.35c-0.38-0.71-0.05-1.33-0.08-1.87
		c0.01-0.54-0.5-1.62-0.66-1.97c-0.16-0.33,0.15-1.67,0.44-1.98c0.32-0.3,0.81-1.23,1.04-1.28c0.22-0.06-0.03-0.84,0-1.7
		c0.02-0.86-0.6-1.82-0.81-1.93c-0.22-0.09-0.64-0.97-1.03-1.18c-0.37-0.21-0.94,0.11-0.94,0.11s0.3,0.61-0.15,1.09
		c-0.47,0.5-0.69,0.11-0.93-0.06c-0.23-0.17-0.93-0.06-1.32-0.33c-0.4-0.29-1.02-0.68-1.42-0.78c-0.43-0.14-1.35-0.07-1.51-0.96
		c-0.17-0.86-0.8-1.27-1.08-1.35c-0.28-0.07-0.86-0.3-1.11-0.01c-0.25,0.3-0.95-0.21-1.36-0.02c-0.4,0.17-1.49-0.53-1.89-0.81
		c-0.39-0.27-0.77-0.72-1.31-0.58c-0.57,0.14-0.57,0.37-0.79,0.97c-0.23,0.6-1-0.13-1.23-0.29c-0.23-0.18-1.04,0.42-1.71,0.59
		c-0.66,0.16-1.33-1.11-1.42-1.4C28.83,86.74,27.66,86.84,26.89,86.85L26.89,86.85z M32.73,45.92c0.14-0.29,0.27-0.59,0.43-0.87
		C33.34,45.33,33.05,45.74,32.73,45.92L32.73,45.92z M36.04,42.41c0.59-0.08,1.02-0.2,1.02-0.2s0.3-0.62,0.37-1.08
		c0.06-0.49,0.44-0.27,0.72-0.18c0.29,0.07,1.24,0.06,0.46,0.57c-0.77,0.49-0.85,0.89-0.95,1.3c-0.08,0.41-0.08,0.63-0.92,0.63
		c-0.83-0.01-1.26,0.17-1.34,0.58c-0.09,0.39,0.33,1.51,0.6,1.3c0.27-0.21,0.57-0.31,0.88-0.55c0.33-0.24,1.86-0.33,2.2-0.49
		c0.35-0.17,1.16,0.46,1.31,0.27c0.14-0.19,0.61,0.15,1.05,0.34c0.42,0.2,0.07-0.7,0.88-0.31c0.82,0.4,0.46,0.49,0.82,0.4
		c0.37-0.1,1.17-0.24,1.17-0.24s-0.13-0.73,0.52-0.73c0.64-0.03,1.39,0.61,1.19,0.05c-0.21-0.53-0.2-1-0.8-1.3
		c-0.6-0.31-1.47-0.39-1.63-0.56c-0.19-0.19-0.38-0.44-0.24-0.62c0.14-0.2,1.06-0.21,1.63,0.02c0.58,0.24,1.09,0.47,1.39,0.1
		c0.3-0.38,0.68-0.64,0.79-0.88c0.13-0.27,0.39-1.03,0.39-1.03s-1.89,0.19-2.23-0.1c-0.33-0.29-1.31-0.59-1.56-0.52
		c-0.23,0.08-0.75,0.77-1.2,0.09c-0.43-0.66-0.66-1.51-0.91-1.51c-0.22-0.01-2.16,0.15-3.01,0.12
		C37.73,39.36,36.86,40.87,36.04,42.41L36.04,42.41z M41.17,32.95c0.43-0.15,0.85-0.38,1.03-0.4c0.31-0.02,2.14-0.19,2.68-0.03
		c0.56,0.15,1.79,0.04,2.28,0.58c0.49,0.53,1.09,2.67,1.33,2.86c0.24,0.2,0.62-0.98,0.71-1.25c0.08-0.27,0.88-0.32,1.23-0.06
		c0.34,0.27,1.14,0.91,1.2,1.25s0.07,0.9-0.2,0.78c-0.27-0.15-0.63,0-0.57-0.42c0.04-0.42-0.1-1.25-0.38-1.16
		c-0.31,0.08-0.56,0.14-0.56,0.14s-0.6-0.05-0.8,0.77c-0.19,0.81,0.29,1.44,0.56,1.37c0.26-0.07,0.84-0.22,0.91-0.03
		c0.04,0.18-0.42,0.91-0.31,1.24c0.14,0.33,0.9,1.34,1.12,1.54c0.19,0.21,1.04,0.25,1.28,0.23c0.24-0.01-0.5,0.23-0.23,0.51
		c0.28,0.3,0.79,1.02,1.23,1.11c0.45,0.08,1.82,0.65,2.07,0.99c0.25,0.35,0.96-0.55,1.14-0.65c0.16-0.08,0.4,0.96,0.93,0.86
		c0.52-0.07,0.68-0.28,1-0.82c0.34-0.54,0.08-1.08,0-1.51c-0.06-0.45-0.21-0.77,0.32-0.74c0.52,0.01,0.72-0.29,0.56-0.76
		c-0.17-0.47-0.72-0.94,0.03-1.29c0.73-0.33,0.97-1.07,1.45-1.2c0.48-0.12,1.86-0.23,1.96-0.52c0.08-0.27,0.35-1.84,0.73-2.01
		c0.41-0.14,1.52-0.19,2.43-0.63c0.91-0.45,1.75-1.43,2.1-1.48s1.16-0.25,0.82-0.45c-0.33-0.2-0.88-0.8-1.43-0.66
		c-0.55,0.16-1.02-1.29-0.87-1.32c0.15-0.04,1.63,0.17,1.72,0.65c0.1,0.5,0.51,1.05,1.19,0.68c0.69-0.4,0.39-1.08,0.2-1.26
		c-0.2-0.12-0.43-0.59-0.68-0.86c-0.23-0.32-0.85-1.26-0.11-1.55c0.76-0.3,2.51,0.41,2.27-0.33c-0.23-0.77-0.41-1.57-0.29-2.07
		c0.11-0.47,0.52-0.89,0.21-0.98c-0.28-0.06-0.53,0.34-0.98-0.29c-0.43-0.66-0.1-1.31,0.13-1.66c0.21-0.37,1.28-2.63,2.05-3.14
		c0.77-0.49,1.09-1.75,0.42-1.84c-0.64-0.09-1.94-0.21-2.51,0.76c-0.57,0.96-0.84,1.78-1.79,1.77c-0.93,0-1.4-1.23-2.07-1.75
		c-0.97-0.74-1.01-2.72-1.75-2.37c-0.74,0.34-0.74,0.34-0.74,0.34s-0.96,0.04-1.48,0.34c-0.7,0.38-1.02,1.01-1.49,1.01
		c-0.89,0-1.47,0.7-1.68,0.81c-1.68,0.94-3.29,0.67-3.58,0.7c-0.22,0.02,1.33-0.13,2.4-0.63c0.83-0.38,2.23-1.11,2.92-1.44
		c0.69-0.35,0.01-0.52-0.25-0.49c-0.93,0.11-2.39,0.04-3.51,0.22C51.24,21.14,45.74,26.7,41.17,32.95L41.17,32.95z M172.51,57.12
		c-0.46,0.19-0.19,1.28,0.16,1.55c0.33,0.3,0.77-0.05,1.42,1.17c0.63,1.21,1.58,2.33,1.94,2.77c0.38,0.44,1.59,0.89,2.05,1.15
		c0.45,0.27,0.86-0.38,0.51-0.74c-0.36-0.38-1.01-0.89-1.2-1.39c-0.19-0.48-0.7-1.17-1.4-1.9c-0.71-0.75-1.19-0.83-1.64-1.33
		C173.89,57.89,172.51,57.12,172.51,57.12L172.51,57.12z M171.16,61.51c-0.72,0.35,1.53,1.43,1.76,1.59
		c0.25,0.17,2.31,1.37,2.52,2.16c0.2,0.81,1.36,3.12,1.74,3.31c0.38,0.22,2.57,0.15,2.97,0.67c0.38,0.52,0.97,0.5,0.77-0.28
		c-0.22-0.8-0.35-1.74-0.16-2.27c0.21-0.5-0.09-1.09-0.56-0.91c-0.46,0.19-1.15-0.71-2.11-1.15c-0.94-0.43-1.66-0.69-2.63-1.44
		c-0.96-0.74-2.02-1.06-2.63-1.45C172.22,61.38,171.42,61.35,171.16,61.51L171.16,61.51z M129.51,13.8
		c0.25-0.52-0.25-1.16-0.56-1.16c-0.32,0.01-0.66-0.51,0-1.22c0.67-0.71,1.34-1.57,2.2-1.94c0.89-0.38,2.92-0.99,3.7-0.97
		c0.78,0.02,1.55-1.42,1.76-1.97c0.16-0.6-1.21-0.61-1.42,0.05c-0.22,0.65-2,0.98-2.39,0.93c-0.41-0.06-3.13,1.42-3.74,1.57
		c-0.61,0.17-0.61,1.09-1.35,1.74c-0.73,0.64-1.71,1.6-2.1,1.92c-0.36,0.33-0.55,1.29-0.16,1.33c0.4,0.06,1.21-0.08,1.98,0.18
		C128.21,14.52,129.2,14.45,129.51,13.8L129.51,13.8z M112.81,26.63c-0.03,0.73,1.7,0.84,1.88,0.27
		C114.87,26.31,112.85,25.55,112.81,26.63L112.81,26.63z M115.27,44.47c0.18,0.27,0.61-0.62,1.1-0.74c0.48-0.13,1.63-0.21,1.8-0.78
		c0.18-0.58,1.12-0.91,1.94-0.96c0.83-0.05,1.66,0.4,2.23,0.35c0.55-0.08,1.97-0.59,2.41-0.86s0.07-1.25-0.85-1.53
		c-0.92-0.3-1.78-0.9-2.58-1.01c-0.8-0.11-1.13-0.32-0.74-0.59c0.38-0.25,0.77-0.96,0.17-0.8c-0.6,0.15-1.09,0.52-1.06,0.88
		c0.04,0.38-0.22,0.9-0.42,1.11c-0.21,0.21-0.65,0.93-0.96,0.57c-0.28-0.41-1.28-1.51-1.61-1.52c-0.33,0.03-0.78,0.21-0.96,1.04
		c-0.18,0.79-0.42,1.63-0.7,2.02c-0.3,0.38-0.55,1.34-0.16,1.4C115.3,43.09,115.27,44.47,115.27,44.47L115.27,44.47z M127.82,35.86
		c-0.59,0.75-0.62,1.61-0.18,2.02c0.43,0.43,1.68,1.79,2.15,1.81c0.45,0.03,2.04-0.07,1.59,0.73c-0.44,0.8-0.49,1.06-1.06,1.11
		c-0.55,0.08,0.14,1.79,0.61,1.82c0.45,0.05,1.86,0.21,2.29,0.18c0.46-0.05,1.79-0.63,1.62-1.03c-0.18-0.41-0.87-2.08-1.44-2.35
		c-0.61-0.33,0.43-1.06,0.02-1.32c-0.39-0.27-0.76-0.03-1.12-0.39c-0.35-0.36-0.59-0.76-1.01-0.96c-0.44-0.19-0.6,0.45-0.75-0.35
		c-0.15-0.81,0.58-1.53,1.06-1.19c0.46,0.33,1.51-0.18,1.68-0.44c0.19-0.28-0.71-0.75-0.99-1.12c-0.3-0.38-1.6-0.42-1.74-0.24
		c-0.15,0.19-0.52,0.75-0.92,1.21C129.25,35.87,128.11,35.45,127.82,35.86L127.82,35.86z M86.71,36.26c-0.45,0.31-0.07,1,0.27,1.31
		c0.33,0.27,0.97,0.96,1.62,1.1c0.69,0.12,2.05,0.07,1.64,0.5c-0.42,0.38-1.45,2.17-1.45,2.64c-0.02,0.43,1.65-0.19,1.65-0.19
		s-0.24,0.59,0.11,0.66c0.34,0.08,0.36-0.62,0.83-0.73c0.48-0.14,1.54-0.04,2.03-0.15c0.47-0.13,1.06-1.12,0.87-1.6
		c-0.21-0.48-1.01-1.12-1.63-1.27c-0.6-0.14-1.57-1.29-2-1.47s1.03-1.58,0.46-1.96c-0.53-0.38-1.75,0.25-2.33,0
		c-0.57-0.23-0.89,0.31-1.09,0.84C87.52,36.41,87.02,36.02,86.71,36.26L86.71,36.26z M86.6,38.57c-0.52,0.26-0.4,0.95-0.76,1.04
		c-0.37,0.09-0.75,0.35-0.51,0.81c0.26,0.47,0.6,0.77,0.28,1.07c-0.31,0.32,0.35,1.06,0.85,1.01c0.49-0.05,0.94-0.62,1.29-0.94
		c0.38-0.33,0.87-0.91,0.7-1.57c-0.17-0.64-0.43-1.18-0.75-1.4C87.38,38.35,86.94,38.4,86.6,38.57L86.6,38.57z M104.83,49.25
		c-0.18,0.22,0.53,0.56,0.86,0.62c0.35,0.05,0.69,0.42,0.97,0.42c0.25,0.03,1-0.26,0.58-0.92c-0.42-0.64-0.96-0.51-1.15-0.46
		C105.91,48.96,105.07,48.96,104.83,49.25L104.83,49.25z M97.3,49.91c-0.07,0.31,0.59,0.23,0.62-0.1
		C97.96,49.51,97.52,49.02,97.3,49.91L97.3,49.91z M101.6,47.57c-0.58,0.14-0.56,1.31-0.12,1.55c0.47,0.27,0.8,0.11,0.98-0.49
		C102.63,48.06,101.91,47.5,101.6,47.57L101.6,47.57z M159.5,60.96c-0.33,0.31,0.17,3.85,0.96,3.95c0.8,0.09,0.66-2.46,0.32-2.76
		C160.44,61.85,159.96,60.54,159.5,60.96L159.5,60.96z M142.32,85.04c-0.82-0.05-0.6,1.18-1.01,2.09c-0.41,0.95-0.9,1.78-1.15,1.76
		c-0.26,0-1.45,0.91-0.75,1.89c0.7,0.95,0.95,2.04,0.63,2.66c-0.28,0.59,0.87,1.82,0.97,2.64c0.08,0.82,0.5,1.27,1.36,1.03
		c0.85-0.21,1.06-0.67,1.18-1.68c0.11-1.04-0.06-1.97,0.09-2.86c0.17-0.88,0.03-2.6,0.11-3.08c0.08-0.47,0.07-1.93-0.17-2.69
		C143.3,86.03,142.78,85.09,142.32,85.04L142.32,85.04z M128.55,77.34c-0.25-0.24-1.27,0.11-1.35,0.49
		c-0.1,0.44,0.16,2.12,0.73,2.12C128.54,79.95,129,77.84,128.55,77.34L128.55,77.34z M47.39,82.09c0,0,0.71-0.04,1.15-0.15
		c0.42-0.12,0.74,0.11,1.16,0.22c0.4,0.11,0.94-0.55,1.19-0.62s0.77,0.72,0.59-0.21c-0.19-0.96-1.09-1.19-1.62-1.2
		c-0.53-0.04-1.02,0.27-1.36,0.42C48.15,80.75,47.39,82.09,47.39,82.09L47.39,82.09z M52.82,80.34c-0.51,0.27-0.04,1.5,0.56,1.09
		C53.99,81.03,53.34,80.07,52.82,80.34L52.82,80.34z M45.06,83.21c-0.54,0.26-0.07,1.52,0.52,1.1
		C46.2,83.89,45.56,82.98,45.06,83.21L45.06,83.21z M43.21,77.38c-0.54,0.21-0.22,0.96,0.42,0.63
		C44.25,77.71,43.71,77.17,43.21,77.38L43.21,77.38z M39.31,80.52c0.12,0.71,0.67,0.35,1.4,0.17c0.73-0.19,1.97-0.65,2.31-0.37
		c0.33,0.31,1.56,0.59,1.93,0.79c0.37,0.2,1.37,0.03,1.35-0.28c0-0.28-0.93-0.89-1.34-0.71c-0.4,0.18-1.48-0.16-2.08-0.54
		c-0.62-0.35-1.52-0.12-1.89-0.03C40.63,79.66,39.31,80.52,39.31,80.52L39.31,80.52z M72.35,32.56c-0.08,0.36-0.39,0.46,0.1,1.05
		c0.5,0.59,0.84,0.9,1.11,0.78c0.27-0.12,1.22-0.42,1.44-0.06c0.24,0.35,0.64,0.61,1.25,0.18c0.62-0.42,1.16-0.71,1.24-1.05
		c0.08-0.31,1.18-0.64,1.18-0.64s0.67-1.04,0.26-1.3c-0.42-0.24-1.23-0.31-1.62-0.24c-0.37,0.04-0.64,0.52-1.44,0.73
		c-0.82,0.21-1.23,0.72-1.66,0.43C73.8,32.13,72.41,32.29,72.35,32.56L72.35,32.56z M33.4,46.53c-0.59,0.39,0.17,0.77,0.52,0.48
		C34.27,46.71,33.91,46.19,33.4,46.53L33.4,46.53z M33.38,64.97c0.62-0.08,0.35-1.09,0.22-1.37c-0.14-0.26-0.45-1.47-0.27-1.76
		c0.19-0.27,0.33-1,0.97-1.25c0.65-0.25,1.22,0.23,1.32,0.88c0.11,0.66,0.46,1.26,0.71,1.2c0.23-0.06,0.82-0.76,0.47-1.12
		c-0.36-0.37-0.31-1.91-0.17-1.41c0.13,0.51,0.71,0.74,0.99,0.58c0.28-0.16-0.65-1.26-1.09-1.23s-1.29,0.26-1.44,0.37
		c-0.17,0.12-1.31-0.05-1.78,0.15c-0.47,0.19-1.13,0.61-1.22,1.23c-0.1,0.66,0.42,1.66,0.47,2.1C32.62,63.8,32.82,65.04,33.38,64.97
		L33.38,64.97z M36.77,64.08c0.22,0.29,0.8-0.12,1.05-0.66c0.25-0.52,0.99-0.88,1.13-1.28c0.16-0.43,0.37-0.4,0.9-0.86
		c0.53-0.43,1-0.64,0.66-0.92c-0.34-0.3-1.51,0.39-1.73,0.3c-0.22-0.12-1.03,1.94-1.03,1.94s-0.97,0.78-0.98,1.02
		C36.78,63.84,36.48,63.69,36.77,64.08L36.77,64.08z M29.04,60.21c0.1,0.39,0.72,0.29,1.03-0.04c0.3-0.32,0.81-0.59,1.03-0.72
		c0.22-0.15,0.21,0.32,0.75,0.17s1.3-0.1,1.44-0.22c0.16-0.13,0.48-1.12,0.03-1.07c-0.43,0.03-1.21-0.28-1.71-0.62
		c-0.47-0.35-1.06,0.88-1.75,1.45C29.16,59.72,28.88,59.64,29.04,60.21z"/>
</g>
<radialGradient id="SVGID_00000178886343782098321780000001778795991021850035_" cx="106.26" cy="81.9" r="79.465" gradientTransform="matrix(1 0 0 -1 0 162)" gradientUnits="userSpaceOnUse">
	<stop  offset="0" style="stop-color:#414042"/>
	<stop  offset="0.0734" style="stop-color:#474749"/>
	<stop  offset="0.1931" style="stop-color:#56585B"/>
	<stop  offset="0.3444" style="stop-color:#676C72"/>
	<stop  offset="0.5212" style="stop-color:#76818B"/>
	<stop  offset="0.7172" style="stop-color:#7D92A4"/>
	<stop  offset="0.8" style="stop-color:#7C98AE"/>
	<stop  offset="0.9" style="stop-color:#A8BBCA"/>
	<stop  offset="0.9282" style="stop-color:#A6B9C9"/>
	<stop  offset="0.9383" style="stop-color:#A0B4C5"/>
	<stop  offset="0.9455" style="stop-color:#96ACBF"/>
	<stop  offset="0.9513" style="stop-color:#88A1B6"/>
	<stop  offset="0.9551" style="stop-color:#7C98AE"/>
	<stop  offset="1" style="stop-color:#A8BBCA"/>
</radialGradient>
<path style="fill:url(#SVGID_00000178886343782098321780000001778795991021850035_);" d="M185.72,80.09c0-0.65-0.01-1.29-0.02-1.94
	c-0.2-8.63-1.78-17.04-4.68-25.07c-0.02-0.02-0.02-0.05-0.03-0.07l0,0c-0.47-1.29-0.97-2.57-1.51-3.84
	c-4-9.46-9.73-17.96-17.03-25.26c-4.38-4.38-9.2-8.2-14.4-11.42c0,0,0,0-0.01,0l0,0c-3.45-2.14-7.07-4.01-10.84-5.61
	c-8.61-3.64-17.7-5.71-27.06-6.15V0.72l-0.26-0.01c-0.03,0-0.05,0-0.08,0c-0.75-0.03-1.5-0.05-2.26-0.07
	c-0.42-0.01-0.85-0.01-1.27-0.01c-0.01,0-0.01,0-0.01,0l0,0l0,0c-0.42,0-0.84,0-1.27,0.01c-0.75,0.02-1.5,0.04-2.26,0.07
	c-0.02,0-0.05-0.01-0.08,0l-0.27,0.01v0.01c-9.36,0.44-18.45,2.51-27.06,6.15c-9.46,4-17.96,9.73-25.25,17.03
	c-7.3,7.3-13.03,15.8-17.03,25.26c-0.53,1.26-1.03,2.53-1.49,3.81l0,0c0,0.01,0,0.01,0,0.02c-3.15,8.67-4.75,17.76-4.75,27.1
	c0,9.35,1.6,18.44,4.75,27.11l0,0c0,0,0,0,0,0.01c0.47,1.28,0.96,2.55,1.49,3.81c4,9.46,9.73,17.96,17.03,25.26
	c7.3,7.29,15.79,13.02,25.25,17.03c8.62,3.64,17.71,5.7,27.08,6.15c0.04,0,0.08,0.02,0.13,0.02v-0.01c1.23,0.06,2.48,0.09,3.72,0.09
	c1.25,0,2.49-0.04,3.73-0.09v0.01c0.04,0,0.09-0.01,0.12-0.02c9.37-0.45,18.46-2.51,27.08-6.15c3.77-1.6,7.38-3.47,10.84-5.61l0,0
	l0,0c5.2-3.21,10.03-7.03,14.41-11.42c7.3-7.29,13.03-15.79,17.03-25.26c0.53-1.25,1.03-2.51,1.49-3.78c0-0.01,0.01-0.01,0.01-0.02
	l0,0C184.12,98.54,185.72,89.44,185.72,80.09L185.72,80.09L185.72,80.09L185.72,80.09L185.72,80.09z M183.07,84.28
	c0,8.73-1.42,17.14-4.22,25.1c-2.08,1.6-5.68,3.09-10.49,4.41c2.19-7.49,3.31-15.55,3.31-23.96c0-0.43-0.01-0.85-0.01-1.28
	c5.23-1.41,9.08-2.97,11.42-4.62C183.07,84.05,183.07,84.16,183.07,84.28z M129.68,155.77c-0.24,0.07-0.48,0.14-0.72,0.21l0,0
	c-1.38,0.4-3.03,0.77-4.91,1.08c2.97-1.19,5.8-2.94,8.44-5.22c3.75-0.51,7.03-1.16,9.72-1.88c-3.91,2.48-8.1,4.43-12.54,5.79
	L129.68,155.77L129.68,155.77z M123.24,157.46c-0.21,0.05-0.43,0.09-0.64,0.14c0.07-0.03,0.15-0.05,0.23-0.08
	C122.96,157.5,123.1,157.48,123.24,157.46z M83.79,156.04L83.79,156.04c-0.32-0.09-0.63-0.18-0.94-0.27l0.01-0.01
	c-4.44-1.36-8.64-3.31-12.54-5.8c2.69,0.73,5.98,1.36,9.73,1.89c2.64,2.27,5.47,4.02,8.43,5.21
	C86.7,156.76,85.12,156.42,83.79,156.04z M89.7,157.51c0.08,0.03,0.16,0.05,0.24,0.08c-0.22-0.05-0.45-0.09-0.67-0.15
	C89.41,157.47,89.56,157.49,89.7,157.51z M27.08,80.09L27.08,80.09c0-8.81,1.5-17.38,4.38-25.46c0.24,1,1.03,1.97,2.34,2.92
	c-2.93,8.29-4.49,17.02-4.58,25.91C27.82,82.37,27.08,81.25,27.08,80.09L27.08,80.09L27.08,80.09z M62.86,14.92
	c0-0.5,0.27-0.99,0.8-1.48c0.39-0.24,0.78-0.48,1.17-0.71c4.65-2.75,9.58-4.95,14.71-6.58c-0.1,0.17-0.14,0.37-0.14,0.55
	c0,0.12,0.02,0.23,0.05,0.34c-5.82,2.03-11.37,4.73-16.58,8.06C62.87,15.03,62.86,14.98,62.86,14.92z M106.26,0.9L106.26,0.9
	c0.44,0,0.88,0.01,1.31,0.02c0.34,0.01,0.67,0.03,0.98,0.04c-0.76,0.27-1.53,0.78-2.29,1.52c-0.75-0.74-1.52-1.25-2.29-1.52
	c0.32-0.01,0.65-0.03,0.98-0.04C105.4,0.9,105.83,0.9,106.26,0.9z M148.87,13.44c0.52,0.49,0.8,0.99,0.8,1.48
	c0,0.05-0.01,0.11-0.01,0.17c-5.2-3.33-10.76-6.03-16.58-8.06c0.03-0.11,0.06-0.22,0.06-0.34c0-0.18-0.05-0.36-0.15-0.55
	c5.13,1.64,10.06,3.84,14.71,6.58C148.1,12.96,148.48,13.2,148.87,13.44z M171.4,89.83c0,8.44-1.13,16.53-3.34,24.04
	c-4.86,1.32-10.92,2.47-17.89,3.41c1.59-7.79,2.36-16.28,2.24-25.09c3.52-0.47,6.85-0.99,9.97-1.57c3.35-0.62,6.35-1.29,9.01-1.99
	C171.4,89.03,171.4,89.43,171.4,89.83z M41.14,88.63c2.66,0.7,5.67,1.37,9.01,1.99c3.12,0.58,6.46,1.1,9.97,1.57
	c-0.13,8.81,0.64,17.3,2.23,25.09c-6.96-0.94-13.03-2.09-17.88-3.41c-2.21-7.51-3.35-15.6-3.35-24.04
	C41.13,89.43,41.14,89.03,41.14,88.63z M96.67,2.18c2.2-0.05,4.41,0.02,6.64,0.24c-2.37-0.04-4.72,0.04-7.05,0.22
	C96.27,2.48,96.41,2.33,96.67,2.18z M98.66,1.54c1.74,0.04,3.5,0.25,5.27,0.64c0.1,0.03,0.2,0.05,0.31,0.08
	C101.91,2,99.6,1.87,97.31,1.9C97.68,1.77,98.13,1.65,98.66,1.54z M115.22,1.9c-2.29-0.03-4.6,0.09-6.93,0.35
	c0.11-0.03,0.2-0.05,0.31-0.08c1.77-0.39,3.53-0.6,5.27-0.64C114.41,1.65,114.86,1.77,115.22,1.9z M116.28,2.64
	c-2.33-0.18-4.69-0.26-7.06-0.22c2.23-0.22,4.45-0.29,6.65-0.24C116.13,2.33,116.27,2.48,116.28,2.64z M149.9,117.32
	c-8.1,1.08-17.4,1.87-27.41,2.29c0.57-7.75,0.84-16.22,0.78-25.01c10.4-0.42,20.18-1.22,28.89-2.37
	C152.27,101.04,151.5,109.53,149.9,117.32z M60.39,92.23c8.7,1.15,18.49,1.95,28.88,2.37c-0.06,8.79,0.21,17.26,0.78,25.01
	c-10.02-0.42-19.32-1.21-27.41-2.29C61.04,109.53,60.27,101.04,60.39,92.23z M106.27,67.72c-5.34,0-10.55-0.1-15.58-0.3
	c0.72-9.07,1.73-17.64,2.97-25.41c4.1,0.16,8.32,0.24,12.61,0.24c4.28,0,8.5-0.08,12.6-0.24c1.24,7.77,2.25,16.34,2.97,25.41
	C116.81,67.61,111.61,67.72,106.27,67.72z M121.86,67.68c0.32,4.03,0.57,8.16,0.76,12.37c0.22,4.85,0.35,9.64,0.38,14.29
	c-5.4,0.21-10.99,0.33-16.73,0.33s-11.34-0.12-16.74-0.33c0.04-4.66,0.16-9.44,0.38-14.29c0.19-4.21,0.45-8.34,0.76-12.37
	c5.08,0.2,10.29,0.3,15.6,0.3C111.57,67.98,116.79,67.88,121.86,67.68z M106.27,41.98c-4.31,0-8.51-0.08-12.57-0.24
	c1.12-6.97,2.42-13.29,3.85-18.77c2.81,0.1,5.72,0.16,8.72,0.16c2.99,0,5.9-0.05,8.71-0.16c1.43,5.47,2.74,11.8,3.85,18.77
	C114.77,41.9,110.57,41.98,106.27,41.98z M106.26,2.82c0.44,0.44,0.88,0.97,1.32,1.57c-0.43,0.01-0.87,0.01-1.32,0.01
	s-0.89,0-1.32-0.01C105.39,3.79,105.82,3.26,106.26,2.82z M104.66,4.38c-0.81-0.02-1.57-0.07-2.28-0.12
	c1.13-0.51,2.28-0.95,3.43-1.32C105.42,3.36,105.04,3.84,104.66,4.38z M106.73,2.94c1.15,0.37,2.3,0.81,3.43,1.32
	c-0.71,0.05-1.48,0.1-2.28,0.12C107.49,3.84,107.11,3.36,106.73,2.94z M107.85,3.04c1.5,0.27,3,0.6,4.47,0.99
	c-0.5,0.07-1.05,0.14-1.63,0.19C109.75,3.78,108.8,3.39,107.85,3.04z M101.85,4.21c-0.58-0.05-1.13-0.12-1.64-0.19
	c1.49-0.38,2.98-0.71,4.48-0.99C103.73,3.39,102.78,3.78,101.85,4.21z M101.37,4.43c-3.26,1.57-6.43,3.69-9.48,6.3
	c-2.28-0.27-4.33-0.61-6.06-0.98c4.39-2.38,8.98-4.26,13.72-5.54C100.12,4.29,100.73,4.36,101.37,4.43z M101.89,4.48
	c0.83,0.07,1.7,0.13,2.59,0.16c-1.18,1.72-2.34,3.99-3.47,6.79c-3.14-0.12-6.1-0.35-8.76-0.66C95.34,8.15,98.57,6.03,101.89,4.48z
	 M104.77,4.64c0.5,0.01,1,0.02,1.5,0.02s1-0.01,1.5-0.02c1.2,1.72,2.37,4,3.51,6.79c-1.63,0.06-3.3,0.09-5,0.09
	c-1.71,0-3.38-0.03-5-0.09C102.39,8.64,103.57,6.36,104.77,4.64z M108.06,4.63c0.89-0.03,1.76-0.08,2.59-0.16
	c3.32,1.55,6.55,3.67,9.64,6.28c-2.66,0.31-5.61,0.54-8.76,0.66C110.4,8.63,109.24,6.35,108.06,4.63z M111.16,4.43
	c0.64-0.07,1.26-0.14,1.82-0.23c4.74,1.29,9.33,3.16,13.72,5.54c-1.74,0.38-3.78,0.71-6.06,0.98C117.6,8.12,114.43,6,111.16,4.43z
	 M113.59,4.09c0.52-0.1,0.99-0.21,1.38-0.34c5.59,0.94,11.04,2.47,16.28,4.57c-0.98,0.48-2.38,0.92-4.11,1.32
	C122.77,7.25,118.23,5.39,113.59,4.09z M112.99,3.92c-1.34-0.36-2.69-0.68-4.05-0.94c1.82,0.16,3.62,0.38,5.41,0.67
	C113.95,3.75,113.5,3.84,112.99,3.92z M110.98,2.93c1.5,0.08,3,0.21,4.49,0.38c-0.15,0.06-0.32,0.12-0.52,0.19
	C113.63,3.26,112.31,3.08,110.98,2.93z M103.6,2.98c-1.36,0.27-2.71,0.58-4.06,0.94c-0.5-0.08-0.96-0.18-1.36-0.28
	C99.98,3.37,101.78,3.14,103.6,2.98z M97.58,3.49c-0.19-0.06-0.36-0.12-0.51-0.19c1.49-0.17,2.98-0.3,4.49-0.38
	C100.23,3.08,98.9,3.26,97.58,3.49z M98.95,4.09c-4.64,1.3-9.18,3.16-13.55,5.55c-1.74-0.41-3.13-0.85-4.12-1.33
	c5.24-2.09,10.69-3.62,16.27-4.56C97.96,3.88,98.43,3.99,98.95,4.09z M85.04,9.85c-4.77,2.65-9.35,5.92-13.63,9.78
	c-2.91-0.73-5.13-1.53-6.58-2.38c5.08-3.57,10.49-6.52,16.16-8.8C81.94,8.95,83.32,9.43,85.04,9.85z M85.45,9.94
	c1.74,0.41,3.82,0.75,6.15,1.03c-3.39,2.94-6.61,6.48-9.61,10.52c-2.3-0.29-4.47-0.62-6.48-0.99c-1.35-0.25-2.6-0.51-3.75-0.79
	C76.03,15.9,80.61,12.61,85.45,9.94z M91.95,11.02c2.69,0.32,5.71,0.54,8.95,0.66c-1.22,3.07-2.41,6.75-3.53,11.02
	c-5.39-0.21-10.5-0.6-15.08-1.17C85.3,17.49,88.54,13.95,91.95,11.02z M97.3,22.97c-0.09,0.34-0.18,0.68-0.26,1.02
	c-1.36,5.34-2.56,11.31-3.6,17.74C85.48,41.42,78.1,40.82,71.62,40c3.03-6.77,6.56-12.91,10.47-18.21
	C86.61,22.35,91.74,22.75,97.3,22.97z M106.27,22.87c-2.94,0-5.83-0.05-8.65-0.16c1.12-4.21,2.3-7.91,3.54-11.02
	c1.65,0.05,3.36,0.09,5.11,0.09s3.46-0.03,5.1-0.09c1.24,3.1,2.43,6.8,3.54,11.02C112.1,22.81,109.2,22.87,106.27,22.87z
	 M111.64,11.68c3.24-0.12,6.26-0.35,8.95-0.66c3.41,2.93,6.65,6.47,9.66,10.51c-4.58,0.57-9.68,0.96-15.07,1.17
	C114.05,18.44,112.86,14.75,111.64,11.68z M120.93,10.98c2.33-0.28,4.4-0.63,6.15-1.03c4.85,2.67,9.43,5.96,13.69,9.77
	c-1.15,0.28-2.39,0.54-3.74,0.79c-2,0.37-4.18,0.7-6.48,0.99C127.54,17.46,124.33,13.92,120.93,10.98z M127.5,9.85
	c1.72-0.42,3.1-0.89,4.06-1.4c5.67,2.29,11.08,5.24,16.16,8.8c-1.45,0.84-3.68,1.65-6.58,2.38C136.84,15.77,132.27,12.5,127.5,9.85z
	 M131.85,8.28c0.54-0.32,0.92-0.66,1.12-1c5.83,2.04,11.41,4.74,16.63,8.09c-0.19,0.58-0.74,1.17-1.64,1.74
	C142.9,13.54,137.5,10.58,131.85,8.28z M131.56,8.16c-5.17-2.08-10.55-3.62-16.06-4.58c0.17-0.07,0.33-0.14,0.46-0.22
	c5.76,0.68,11.37,1.97,16.77,3.83C132.52,7.52,132.13,7.84,131.56,8.16z M96.58,3.36c0.13,0.08,0.29,0.15,0.46,0.22
	c-5.51,0.96-10.9,2.5-16.06,4.58c-0.57-0.31-0.97-0.63-1.16-0.97C85.21,5.33,90.82,4.04,96.58,3.36z M80.68,8.28
	c-5.65,2.3-11.05,5.26-16.1,8.82c-0.9-0.57-1.45-1.15-1.64-1.74c5.21-3.34,10.79-6.05,16.63-8.09C79.77,7.62,80.15,7.96,80.68,8.28z
	 M64.34,17.26c-4.49,3.18-8.7,6.84-12.57,10.94c-1.65,1.75-3.21,3.57-4.69,5.42c-1.2-0.83-1.9-1.69-2.04-2.58
	c1.64-1.94,3.38-3.82,5.22-5.62c3.84-3.75,8.01-7.07,12.44-9.93C62.93,16.12,63.48,16.7,64.34,17.26z M51.96,28.39
	c3.89-4.12,8.12-7.79,12.62-10.97c1.47,0.89,3.7,1.71,6.56,2.44c-3.98,3.61-7.71,7.72-11.13,12.29c-1.25,1.67-2.44,3.37-3.57,5.12
	c-4.07-1.05-7.19-2.23-9.14-3.49C48.77,31.92,50.33,30.13,51.96,28.39z M71.5,19.95c2.87,0.7,6.34,1.32,10.3,1.81
	c-3.91,5.31-7.43,11.45-10.44,18.21c-5.63-0.72-10.58-1.61-14.61-2.63C60.99,30.81,65.96,24.94,71.5,19.95z M62.85,38.91
	c2.62,0.48,5.43,0.92,8.4,1.31c-3.38,7.65-6.12,16.08-8.04,24.98c-6.92-0.91-12.97-2.02-17.87-3.29c2.66-8.73,6.5-16.96,11.28-24.34
	C58.48,38.03,60.56,38.49,62.85,38.91z M71.51,40.25c6.62,0.85,14.03,1.44,21.88,1.75c-1.26,7.88-2.26,16.46-2.97,25.41
	c-9.85-0.39-18.98-1.14-26.96-2.17C65.38,56.33,68.12,47.89,71.51,40.25z M90.41,67.67c-0.31,4.06-0.57,8.19-0.76,12.37
	c-0.22,4.82-0.34,9.6-0.37,14.3c-10.57-0.42-20.36-1.25-28.89-2.37c0.02-0.59,0.03-1.19,0.04-1.79c0.25-8.45,1.29-16.76,2.98-24.69
	C71.55,66.54,80.71,67.28,90.41,67.67z M90.07,119.87c0.27,3.62,0.61,7.07,1.02,10.33c0.46,3.72,1.01,7.13,1.63,10.22
	c-8.29-0.35-16.01-1.03-22.72-1.95c-0.24-0.46-0.49-0.92-0.73-1.4c-2.86-5.68-5.06-12.28-6.56-19.47
	C70.93,118.69,80.23,119.47,90.07,119.87z M90.35,119.88c5.18,0.21,10.51,0.32,15.92,0.32c5.4,0,10.73-0.11,15.91-0.32
	c-0.59,7.75-1.48,14.72-2.64,20.55c-4.29,0.18-8.74,0.27-13.27,0.27c-4.54,0-8.98-0.09-13.28-0.27
	C91.83,134.6,90.95,127.63,90.35,119.88z M106.27,119.94c-5.46,0-10.8-0.12-15.94-0.33c-0.58-7.67-0.86-16.11-0.8-25
	c5.44,0.21,11.04,0.33,16.74,0.33c5.69,0,11.29-0.11,16.73-0.33c0.05,8.9-0.22,17.34-0.8,25
	C117.06,119.82,111.72,119.94,106.27,119.94z M123.26,94.34c-0.03-4.7-0.16-9.48-0.38-14.3c-0.2-4.18-0.44-8.31-0.76-12.37
	c9.7-0.38,18.85-1.13,27-2.18c1.69,7.94,2.74,16.25,2.98,24.69c0.02,0.6,0.03,1.2,0.04,1.79C143.62,93.09,133.83,93.91,123.26,94.34
	z M122.1,67.4c-0.7-8.96-1.7-17.53-2.96-25.41c7.85-0.31,15.26-0.9,21.89-1.75c3.39,7.64,6.13,16.08,8.04,24.98
	C141.09,66.26,131.95,67.01,122.1,67.4z M119.1,41.73c-1.03-6.44-2.23-12.4-3.59-17.74c-0.09-0.34-0.18-0.69-0.26-1.02
	c5.54-0.21,10.68-0.61,15.21-1.17c3.91,5.3,7.44,11.43,10.47,18.21C134.43,40.82,127.05,41.42,119.1,41.73z M130.74,21.76
	c3.95-0.5,7.42-1.11,10.29-1.82c5.54,4.99,10.52,10.86,14.76,17.39c-4.04,1.02-8.98,1.91-14.61,2.63
	C138.17,33.2,134.64,27.06,130.74,21.76z M152.52,32.15c-3.42-4.57-7.15-8.68-11.13-12.29c2.87-0.73,5.1-1.55,6.57-2.44
	c4.5,3.18,8.73,6.85,12.61,10.97c1.64,1.74,3.19,3.53,4.66,5.39c-1.94,1.27-5.07,2.44-9.14,3.49
	C154.96,35.52,153.77,33.81,152.52,32.15z M160.76,28.2c-3.87-4.1-8.09-7.76-12.57-10.94c0.85-0.56,1.42-1.14,1.63-1.75
	c4.43,2.86,8.59,6.17,12.44,9.92c1.84,1.8,3.58,3.68,5.22,5.62c-0.13,0.88-0.84,1.75-2.04,2.58
	C163.97,31.77,162.41,29.95,160.76,28.2z M111.24,2.68c1.65,0.02,3.3,0.09,4.93,0.21c-0.05,0.07-0.14,0.14-0.26,0.21
	C114.36,2.91,112.81,2.77,111.24,2.68z M108.54,1.93c-0.61,0.13-1.23,0.29-1.83,0.46c0.92-0.82,1.85-1.3,2.78-1.39
	c1.21,0.08,2.29,0.19,3.21,0.33C111.32,1.42,109.93,1.62,108.54,1.93z M99.84,1.33c0.92-0.14,2-0.26,3.2-0.33
	c0.94,0.1,1.86,0.58,2.79,1.39c-0.61-0.17-1.22-0.33-1.83-0.46C102.6,1.62,101.21,1.42,99.84,1.33z M101.29,2.68
	c-1.57,0.09-3.12,0.23-4.67,0.41c-0.11-0.07-0.2-0.13-0.26-0.21C98,2.76,99.65,2.7,101.29,2.68z M44.84,31.3
	c0.22,0.86,0.93,1.69,2.1,2.5c-5.67,7.17-10.06,15.11-13.06,23.52c-1.41-1.04-2.18-2.12-2.22-3.23
	C34.65,45.87,39.09,38.17,44.84,31.3z M47.16,33.95c1.93,1.26,5.02,2.45,9.15,3.53c-4.86,7.53-8.65,15.75-11.26,24.35
	c-4.94-1.3-8.69-2.77-10.95-4.35C37.08,49.07,41.48,41.12,47.16,33.95z M44.98,62.06c-2.55,8.49-3.95,17.34-4.09,26.25
	c-5.19-1.4-9.1-2.96-11.41-4.65c0.07-8.91,1.62-17.65,4.54-25.95C36.28,59.27,39.97,60.74,44.98,62.06z M45.26,62.13
	c2.42,0.63,5.13,1.23,8.12,1.78c3.05,0.57,6.32,1.08,9.77,1.53c-1.69,7.95-2.73,16.27-2.98,24.73c-0.02,0.59-0.03,1.17-0.04,1.76
	c-7.38-0.98-13.8-2.18-18.98-3.56C41.28,79.36,42.73,70.51,45.26,62.13z M55.12,116.45c2.32,0.4,4.76,0.77,7.3,1.12
	c1.51,7.25,3.72,13.9,6.61,19.62c0.2,0.42,0.42,0.83,0.64,1.24c-5.68-0.79-10.63-1.75-14.57-2.85c-0.77-1.05-1.52-2.14-2.24-3.26
	c-3.55-5.5-6.33-11.6-8.28-18.16C47.61,114.99,51.14,115.75,55.12,116.45z M69.85,138.76c2.8,5.18,6.11,9.47,9.79,12.73
	c-3.96-0.57-7.39-1.26-10.12-2.05c-5.31-3.51-10.07-8.04-14.14-13.46C59.33,137.05,64.23,137.99,69.85,138.76z M70.17,138.81
	c6.66,0.89,14.32,1.53,22.59,1.88c1.02,5.05,2.22,9.19,3.58,12.29c-5.92-0.26-11.45-0.76-16.24-1.42
	C76.37,148.32,73.01,144.03,70.17,138.81z M93.05,140.7c4.27,0.18,8.69,0.26,13.22,0.26s8.95-0.09,13.22-0.26
	c-1.01,5.02-2.21,9.18-3.59,12.29c-3.12,0.13-6.35,0.2-9.63,0.2c-3.29,0-6.51-0.07-9.63-0.2C95.26,149.89,94.06,145.72,93.05,140.7z
	 M119.77,140.69c8.27-0.35,15.93-0.99,22.59-1.88c-2.84,5.22-6.2,9.51-9.95,12.75c-4.78,0.66-10.31,1.15-16.23,1.42
	C117.54,149.88,118.75,145.74,119.77,140.69z M119.83,140.42c0.61-3.09,1.16-6.5,1.62-10.22c0.41-3.26,0.74-6.71,1.02-10.33
	c9.84-0.4,19.14-1.17,27.37-2.26c-1.51,7.19-3.71,13.79-6.56,19.47c-0.24,0.48-0.48,0.94-0.73,1.4
	C135.83,139.39,128.11,140.07,119.83,140.42z M143.51,137.19c2.88-5.73,5.1-12.38,6.61-19.62c2.54-0.35,4.97-0.72,7.29-1.12
	c3.99-0.7,7.52-1.46,10.57-2.28c-1.96,6.55-4.74,12.66-8.29,18.16c-0.72,1.12-1.47,2.21-2.25,3.26c-3.94,1.09-8.89,2.06-14.57,2.85
	C143.08,138.02,143.3,137.61,143.51,137.19z M152.41,91.93c-0.01-0.59-0.03-1.17-0.04-1.76c-0.25-8.46-1.28-16.78-2.99-24.73
	c3.46-0.45,6.72-0.96,9.77-1.53c3-0.55,5.71-1.15,8.12-1.78c2.53,8.38,3.98,17.23,4.11,26.24
	C166.21,89.75,159.78,90.95,152.41,91.93z M149.33,65.19c-1.91-8.9-4.66-17.33-8.04-24.98c2.98-0.39,5.78-0.82,8.41-1.31
	c2.28-0.42,4.37-0.88,6.23-1.35c4.78,7.39,8.62,15.61,11.28,24.34C162.3,63.17,156.25,64.29,149.33,65.19z M156.23,37.48
	c4.13-1.08,7.21-2.26,9.15-3.53c5.68,7.17,10.07,15.12,13.06,23.52c-2.26,1.58-6.01,3.04-10.95,4.35
	C164.88,53.23,161.1,45.01,156.23,37.48z M165.6,33.81c1.18-0.81,1.89-1.64,2.11-2.5c5.75,6.88,10.19,14.57,13.18,22.79
	c-0.05,1.12-0.82,2.19-2.23,3.23C175.67,48.91,171.27,40.98,165.6,33.81z M132.88,6.69c0,0.08-0.02,0.17-0.04,0.26
	c-5.33-1.84-10.87-3.12-16.55-3.82c0.08-0.07,0.14-0.14,0.19-0.22c5.52,0.44,10.91,1.48,16.12,3.1
	C132.78,6.24,132.88,6.47,132.88,6.69z M116.55,2.66C116.55,2.65,116.55,2.65,116.55,2.66c0-0.17-0.08-0.32-0.23-0.46
	c4.49,0.16,8.89,0.88,13.16,2.17c1.19,0.38,2.09,0.81,2.67,1.24C127.1,4.07,121.87,3.09,116.55,2.66z M115.92,1.92
	c-0.26-0.14-0.58-0.27-0.97-0.39c1.22,0.02,2.44,0.12,3.64,0.32v0c0.98,0.15,1.97,0.33,2.94,0.51
	C119.68,2.12,117.81,1.97,115.92,1.92z M113.91,1.27c-0.03,0-0.06-0.02-0.1-0.02c0.07,0,0.14,0.01,0.2,0.01
	C113.98,1.27,113.94,1.27,113.91,1.27z M98.62,1.27c-0.03,0-0.07,0-0.1,0c0.07,0,0.13-0.01,0.2-0.01
	C98.69,1.26,98.66,1.27,98.62,1.27z M93.95,1.86c1.2-0.2,2.42-0.3,3.64-0.32c-0.39,0.12-0.72,0.24-0.97,0.39
	c-1.89,0.05-3.77,0.2-5.62,0.44C91.98,2.18,92.96,2.01,93.95,1.86L93.95,1.86z M83.11,4.35c4.25-1.28,8.63-2,13.11-2.16
	c-0.15,0.14-0.23,0.3-0.23,0.46l0,0C90.66,3.08,85.44,4.07,80.4,5.6C80.98,5.16,81.89,4.75,83.11,4.35z M96.07,2.91
	c0.04,0.08,0.11,0.15,0.19,0.22c-5.68,0.7-11.22,1.98-16.55,3.81c-0.02-0.08-0.04-0.17-0.04-0.26c0-0.22,0.1-0.45,0.28-0.68
	C85.15,4.39,90.55,3.35,96.07,2.91z M29.21,83.75c0,0.17-0.01,0.35-0.01,0.53c0,8.61,1.38,16.92,4.1,24.79
	c-0.74-0.64-1.24-1.29-1.49-1.95c-3-8.26-4.58-16.9-4.71-25.78C27.45,82.16,28.16,82.96,29.21,83.75z M29.47,84.28
	c0-0.12,0-0.23,0-0.34c2.34,1.65,6.18,3.21,11.41,4.62c-0.01,0.43-0.02,0.85-0.02,1.28c0,8.41,1.13,16.47,3.31,23.96
	c-4.81-1.33-8.41-2.81-10.49-4.41C30.88,101.42,29.47,93.01,29.47,84.28z M44.27,114.08c1.97,6.63,4.76,12.81,8.36,18.38
	c0.67,1.03,1.35,2.03,2.06,3c-3.84-1.1-6.69-2.33-8.27-3.65c-4.12-4.92-7.56-10.39-10.27-16.33c-0.85-1.87-1.62-3.76-2.31-5.69
	C35.98,111.33,39.51,112.77,44.27,114.08z M47.18,132.7c1.75,1.14,4.4,2.21,7.8,3.17c3.95,5.32,8.55,9.79,13.69,13.32
	c-1.66-0.53-3.01-1.1-3.99-1.7l0,0c-3.67-2.27-7.16-4.83-10.43-7.69l0,0C51.7,137.58,49.35,135.21,47.18,132.7z M69.46,149.71
	c1.61,1.06,3.27,2.03,4.99,2.91c-2.53-1.11-5-2.34-7.38-3.7C67.79,149.19,68.59,149.46,69.46,149.71z M80.53,151.91
	c4.7,0.64,10.12,1.1,15.94,1.34c0.85,1.89,1.75,3.36,2.7,4.39c0.18,0.19,0.35,0.36,0.53,0.52c-3.63-0.18-7.01-0.48-9.93-0.91
	C86.51,156.13,83.41,154.33,80.53,151.91z M99.37,157.47c-0.92-1.01-1.79-2.42-2.61-4.21c3.07,0.13,6.25,0.19,9.51,0.19
	c3.25,0,6.44-0.06,9.5-0.19c-0.81,1.78-1.68,3.2-2.6,4.21c-0.25,0.26-0.5,0.5-0.75,0.71c-1.99,0.09-4.04,0.14-6.14,0.14
	s-4.16-0.05-6.15-0.14C99.87,157.98,99.62,157.74,99.37,157.47z M113.36,157.65c0.95-1.03,1.85-2.5,2.7-4.39
	c5.83-0.24,11.23-0.7,15.94-1.34c-2.88,2.42-5.99,4.22-9.25,5.35c-2.92,0.42-6.29,0.74-9.92,0.91
	C113.01,158,113.19,157.84,113.36,157.65z M132.89,151.5c3.69-3.26,6.99-7.55,9.79-12.74c5.62-0.77,10.52-1.71,14.46-2.79
	c-4.07,5.42-8.82,9.95-14.14,13.47C140.29,150.23,136.85,150.93,132.89,151.5z M157.56,135.87c3.39-0.96,6.04-2.02,7.8-3.16
	c-2.17,2.51-4.53,4.87-7.07,7.09l0,0c-3.26,2.85-6.74,5.41-10.4,7.68c-0.98,0.6-2.34,1.17-4.02,1.71
	C149.01,145.67,153.61,141.19,157.56,135.87z M166.11,131.82c-1.57,1.32-4.42,2.55-8.26,3.65c0.71-0.97,1.39-1.97,2.06-3
	c3.6-5.57,6.39-11.75,8.36-18.38c4.75-1.31,8.28-2.75,10.43-4.29c-0.69,1.92-1.46,3.82-2.31,5.69
	C173.68,121.43,170.24,126.89,166.11,131.82z M171.65,88.31c-0.14-8.9-1.54-17.75-4.09-26.25c5-1.32,8.69-2.79,10.96-4.35
	c2.92,8.3,4.47,17.04,4.54,25.95C180.75,85.34,176.85,86.91,171.65,88.31z M178.75,57.55c1.3-0.95,2.09-1.92,2.33-2.91
	c2.88,8.08,4.38,16.65,4.38,25.46l0,0c0,1.16-0.74,2.29-2.13,3.37C183.23,74.56,181.67,65.83,178.75,57.55z M179.44,49.77
	c-2.92-6.73-6.84-13.06-11.68-18.81c0.01-0.08,0.02-0.16,0.02-0.23c0-0.22-0.03-0.43-0.09-0.63c4.74,5.81,8.61,12.23,11.55,19.17
	C179.31,49.43,179.37,49.6,179.44,49.77z M166.78,29.02L166.78,29.02c0.47,0.55,0.71,1.1,0.73,1.65c-1.59-1.87-3.27-3.69-5.06-5.43
	c-3.88-3.78-8.08-7.12-12.55-10c0.02-0.11,0.03-0.21,0.03-0.32c0-0.34-0.11-0.68-0.33-1.02c3.01,1.91,5.88,4.05,8.57,6.38l0,0
	c1.41,1.22,2.77,2.49,4.09,3.81C163.84,25.67,165.35,27.32,166.78,29.02z M142.32,9.57c-3.1-1.49-6.3-2.75-9.58-3.78
	c-0.19-0.21-0.45-0.42-0.77-0.62c1.72,0.59,3.43,1.23,5.11,1.95C138.87,7.87,140.61,8.69,142.32,9.57z M75.44,7.12
	c1.69-0.72,3.4-1.36,5.12-1.95c-0.32,0.2-0.58,0.4-0.77,0.62c-3.28,1.03-6.48,2.29-9.59,3.78C71.91,8.69,73.66,7.87,75.44,7.12z
	 M50.27,24.09c1.33-1.32,2.69-2.6,4.09-3.81l0,0c2.68-2.33,5.56-4.47,8.56-6.38c-0.21,0.34-0.32,0.68-0.32,1.02
	c0,0.11,0.02,0.21,0.03,0.32c-4.47,2.88-8.68,6.22-12.55,10c-1.79,1.74-3.47,3.55-5.06,5.43c0.02-0.56,0.27-1.12,0.74-1.67l0,0
	C47.19,27.31,48.7,25.67,50.27,24.09z M44.85,30.09c-0.06,0.21-0.09,0.42-0.09,0.63c0,0.07,0.01,0.15,0.02,0.23
	c-4.85,5.76-8.76,12.09-11.69,18.83c0.07-0.18,0.14-0.35,0.21-0.52C36.24,42.32,40.12,35.9,44.85,30.09z M32.3,108.43
	c0.31,0.37,0.69,0.73,1.15,1.09c0.73,2.06,1.54,4.08,2.45,6.07c1.6,3.53,3.47,6.88,5.57,10.04c-3.23-4.59-5.97-9.5-8.17-14.72
	C32.96,110.09,32.62,109.26,32.3,108.43z M94.14,158.35L94.14,158.35c-0.97-0.15-1.93-0.36-2.88-0.63c2.65,0.33,5.62,0.58,8.76,0.71
	c0.35,0.28,0.72,0.5,1.08,0.67C98.77,158.96,96.44,158.71,94.14,158.35z M102.43,159.19c-0.65-0.06-1.3-0.29-1.94-0.73
	c1.88,0.08,3.81,0.12,5.78,0.12s3.9-0.04,5.77-0.12c-0.63,0.44-1.28,0.68-1.94,0.73c-1.27,0.05-2.55,0.09-3.84,0.09
	C104.98,159.28,103.71,159.25,102.43,159.19z M112.51,158.44c3.14-0.14,6.1-0.38,8.75-0.71c-0.94,0.26-1.9,0.47-2.86,0.62v0.01
	c-2.3,0.36-4.62,0.6-6.96,0.75C111.79,158.94,112.16,158.72,112.51,158.44z M138.1,152.62c1.7-0.88,3.37-1.84,4.98-2.9
	c0.87-0.25,1.66-0.52,2.38-0.79C143.08,150.27,140.62,151.51,138.1,152.62z M179.23,110.91c-2.2,5.21-4.94,10.13-8.17,14.71
	c2.11-3.16,3.96-6.52,5.57-10.03c0.91-1.99,1.72-4.02,2.44-6.07c0.46-0.36,0.84-0.72,1.16-1.08
	C179.91,109.26,179.58,110.09,179.23,110.91z M180.72,107.14c-0.25,0.66-0.75,1.3-1.48,1.93c2.72-7.87,4.1-16.18,4.1-24.79
	c0-0.18-0.01-0.35-0.01-0.53c1.05-0.79,1.76-1.59,2.11-2.41C185.31,90.23,183.72,98.89,180.72,107.14z"/>
<g>
	<g>
		<defs>
			<polygon id="SVGID_00000036229194615184882960000007600258413244209563_" points="1,1 2,1 1,2 			"/>
		</defs>
		<defs>
			<polygon id="SVGID_00000051361723292554369960000001109923374440024193_" points="-1,-1 -2,-1 -1,-2 			"/>
		</defs>
		<clipPath id="SVGID_00000024684721757886972140000014143684003404807331_">
			<use xlink:href="#SVGID_00000036229194615184882960000007600258413244209563_"  style="overflow:visible;"/>
		</clipPath>
		
			<clipPath id="SVGID_00000107548787221639542190000003896233234013656763_" style="clip-path:url(#SVGID_00000024684721757886972140000014143684003404807331_);">
			<use xlink:href="#SVGID_00000051361723292554369960000001109923374440024193_"  style="overflow:visible;"/>
		</clipPath>
		<defs>
			
				<filter id="Adobe_OpacityMaskFilter_00000024724374889477176660000008055653028722684324_" filterUnits="userSpaceOnUse" x="35.52" y="31.47" width="82.47" height="76.69">
				<feColorMatrix  type="matrix" values="1 0 0 0 0  0 1 0 0 0  0 0 1 0 0  0 0 0 1 0"/>
			</filter>
		</defs>
		
			<mask maskUnits="userSpaceOnUse" x="35.52" y="31.47" width="82.47" height="76.69" id="SVGID_00000134208036720977855580000018086234622965369744_">
			<g style="filter:url(#Adobe_OpacityMaskFilter_00000024724374889477176660000008055653028722684324_);">
				<g>
					<defs>
						<polygon id="SVGID_00000182490681648166761310000016113003564248913081_" points="1,1 2,1 1,2 						"/>
					</defs>
					<defs>
						<polygon id="SVGID_00000182518529263837399570000015210756171797891511_" points="-1,-1 -2,-1 -1,-2 						"/>
					</defs>
					
						<clipPath id="SVGID_00000089575615771477276600000011391885911752907662_" style="clip-path:url(#SVGID_00000107548787221639542190000003896233234013656763_);">
						<use xlink:href="#SVGID_00000182490681648166761310000016113003564248913081_"  style="overflow:visible;"/>
					</clipPath>
					
						<clipPath id="SVGID_00000135659451900819836990000002257754344417227668_" style="clip-path:url(#SVGID_00000089575615771477276600000011391885911752907662_);">
						<use xlink:href="#SVGID_00000182518529263837399570000015210756171797891511_"  style="overflow:visible;"/>
					</clipPath>
					
						<linearGradient id="SVGID_00000116211185157784168680000009820446422803160489_" gradientUnits="userSpaceOnUse" x1="86.0369" y1="73.7295" x2="64.365" y2="118.8748" gradientTransform="matrix(1 0 0 -1 0 162)">
						<stop  offset="0" style="stop-color:#FFFFFF"/>
						<stop  offset="1" style="stop-color:#000000"/>
					</linearGradient>
					
						<path style="clip-path:url(#SVGID_00000135659451900819836990000002257754344417227668_);fill:url(#SVGID_00000116211185157784168680000009820446422803160489_);" d="
						M115.93,108.16c0.17-1.34,0.86-2.58,2.06-3.24c-1-0.87-1.97-2.06-2.88-3.72l-14.73-26.93h0.05l-16.2-29.62
						c-3.99-7.28-12.81-13.18-19.71-13.18H42.86c-1.26,0-2.36,0.2-3.3,0.56c-0.86,0.03-2.3,0.21-4.04,0.92
						c2.64-0.61,6.6-0.25,9.73,5.47l14.73,26.93h-0.04l16.2,29.62c3.99,7.28,12.81,13.18,19.71,13.18L115.93,108.16L115.93,108.16z"
						/>
				</g>
			</g>
		</mask>
		
			<linearGradient id="SVGID_00000163767384055505566360000017058520151789132989_" gradientUnits="userSpaceOnUse" x1="86.0369" y1="73.7295" x2="64.365" y2="118.8748" gradientTransform="matrix(1 0 0 -1 0 162)">
			<stop  offset="0" style="stop-color:#FFFFFF"/>
			<stop  offset="1" style="stop-color:#000000"/>
		</linearGradient>
		
			<path style="clip-path:url(#SVGID_00000107548787221639542190000003896233234013656763_);mask:url(#SVGID_00000134208036720977855580000018086234622965369744_);fill:url(#SVGID_00000163767384055505566360000017058520151789132989_);" d="
			M115.93,108.16c0.17-1.34,0.86-2.58,2.06-3.24c-1-0.87-1.97-2.06-2.88-3.72l-14.73-26.93h0.05l-16.2-29.62
			c-3.99-7.28-12.81-13.18-19.71-13.18H42.86c-1.26,0-2.36,0.2-3.3,0.56c-0.86,0.03-2.3,0.21-4.04,0.92
			c2.64-0.61,6.6-0.25,9.73,5.47l14.73,26.93h-0.04l16.2,29.62c3.99,7.28,12.81,13.18,19.71,13.18L115.93,108.16L115.93,108.16z"/>
	</g>
</g>
<g>
	<g>
		<defs>
			<polygon id="SVGID_00000111167337474576988740000007847750842979253394_" points="1,1 2,1 1,2 			"/>
		</defs>
		<defs>
			<polygon id="SVGID_00000152958621704133905450000015779415684707687583_" points="-1,-1 -2,-1 -1,-2 			"/>
		</defs>
		<clipPath id="SVGID_00000163762038457241639840000007424060031824074161_">
			<use xlink:href="#SVGID_00000111167337474576988740000007847750842979253394_"  style="overflow:visible;"/>
		</clipPath>
		
			<clipPath id="SVGID_00000062889129195552848380000014885853726063775378_" style="clip-path:url(#SVGID_00000163762038457241639840000007424060031824074161_);">
			<use xlink:href="#SVGID_00000152958621704133905450000015779415684707687583_"  style="overflow:visible;"/>
		</clipPath>
		<defs>
			
				<filter id="Adobe_OpacityMaskFilter_00000132051053307939080120000013626658558572720795_" filterUnits="userSpaceOnUse" x="76.38" y="47.81" width="79.07" height="78.4">
				<feColorMatrix  type="matrix" values="1 0 0 0 0  0 1 0 0 0  0 0 1 0 0  0 0 0 1 0"/>
			</filter>
		</defs>
		
			<mask maskUnits="userSpaceOnUse" x="76.38" y="47.81" width="79.07" height="78.4" id="SVGID_00000005239637140437415780000014852472581076375996_">
			<g style="filter:url(#Adobe_OpacityMaskFilter_00000132051053307939080120000013626658558572720795_);">
				<g>
					<defs>
						<polygon id="SVGID_00000152222147691156375020000000766566964940064421_" points="1,1 2,1 1,2 						"/>
					</defs>
					<defs>
						<polygon id="SVGID_00000131355422627520439540000007152510183328404098_" points="-1,-1 -2,-1 -1,-2 						"/>
					</defs>
					
						<clipPath id="SVGID_00000081646857045145921800000006706144443706322324_" style="clip-path:url(#SVGID_00000062889129195552848380000014885853726063775378_);">
						<use xlink:href="#SVGID_00000152222147691156375020000000766566964940064421_"  style="overflow:visible;"/>
					</clipPath>
					
						<clipPath id="SVGID_00000165935391269812502000000005871886466442418110_" style="clip-path:url(#SVGID_00000081646857045145921800000006706144443706322324_);">
						<use xlink:href="#SVGID_00000131355422627520439540000007152510183328404098_"  style="overflow:visible;"/>
					</clipPath>
					
						<linearGradient id="SVGID_00000036231914612559401690000004146723908321868690_" gradientUnits="userSpaceOnUse" x1="133.4925" y1="100.5374" x2="108.3425" y2="50.8205" gradientTransform="matrix(1 0 0 -1 0 162)">
						<stop  offset="0" style="stop-color:#FFFFFF"/>
						<stop  offset="1" style="stop-color:#000000"/>
					</linearGradient>
					
						<path style="clip-path:url(#SVGID_00000165935391269812502000000005871886466442418110_);fill:url(#SVGID_00000036231914612559401690000004146723908321868690_);" d="
						M124.71,47.81c-1.47,1.59-2.76,3.31-3.76,5.12l-16.6,30.34h0.05l-15.09,27.57c-5.31,9.69-12.93,4.37-12.93,4.37
						c5.81,11,16.03,11,17.33,11h22.18c7.07,0,16.1-6.04,20.18-13.5l16.6-30.34h-0.04l2.82-5.16
						C151.08,64.08,139.65,53.32,124.71,47.81z"/>
				</g>
			</g>
		</mask>
		
			<linearGradient id="SVGID_00000156570927753671186770000009508967199539179676_" gradientUnits="userSpaceOnUse" x1="133.4925" y1="100.5374" x2="108.3425" y2="50.8205" gradientTransform="matrix(1 0 0 -1 0 162)">
			<stop  offset="0" style="stop-color:#FFFFFF"/>
			<stop  offset="1" style="stop-color:#000000"/>
		</linearGradient>
		
			<path style="clip-path:url(#SVGID_00000062889129195552848380000014885853726063775378_);mask:url(#SVGID_00000005239637140437415780000014852472581076375996_);fill:url(#SVGID_00000156570927753671186770000009508967199539179676_);" d="
			M124.71,47.81c-1.47,1.59-2.76,3.31-3.76,5.12l-16.6,30.34h0.05l-15.09,27.57c-5.31,9.69-12.93,4.37-12.93,4.37
			c5.81,11,16.03,11,17.33,11h22.18c7.07,0,16.1-6.04,20.18-13.5l16.6-30.34h-0.04l2.82-5.16
			C151.08,64.08,139.65,53.32,124.71,47.81z"/>
	</g>
</g>
<g>
	<g>
		<defs>
			<polygon id="SVGID_00000155130207611726623640000005019908048531645083_" points="1,1 2,1 1,2 			"/>
		</defs>
		<defs>
			<polygon id="SVGID_00000093159236359190893350000014051431387489853876_" points="-1,-1 -2,-1 -1,-2 			"/>
		</defs>
		<clipPath id="SVGID_00000148641731216978993990000010277974608198669187_">
			<use xlink:href="#SVGID_00000155130207611726623640000005019908048531645083_"  style="overflow:visible;"/>
		</clipPath>
		
			<clipPath id="SVGID_00000078035148388549923980000006913495232559866765_" style="clip-path:url(#SVGID_00000148641731216978993990000010277974608198669187_);">
			<use xlink:href="#SVGID_00000093159236359190893350000014051431387489853876_"  style="overflow:visible;"/>
		</clipPath>
		<defs>
			
				<filter id="Adobe_OpacityMaskFilter_00000013915067705391346490000015683195121755285433_" filterUnits="userSpaceOnUse" x="94.57" y="32.24" width="82.49" height="76.7">
				<feColorMatrix  type="matrix" values="1 0 0 0 0  0 1 0 0 0  0 0 1 0 0  0 0 0 1 0"/>
			</filter>
		</defs>
		
			<mask maskUnits="userSpaceOnUse" x="94.57" y="32.24" width="82.49" height="76.7" id="SVGID_00000026158889792313327960000006478585548136702653_">
			<g style="filter:url(#Adobe_OpacityMaskFilter_00000013915067705391346490000015683195121755285433_);">
				<g>
					<defs>
						<polygon id="SVGID_00000083804883682817382910000001560179857124040329_" points="1,1 2,1 1,2 						"/>
					</defs>
					<defs>
						<polygon id="SVGID_00000039093116147486802670000007173046002440715150_" points="-1,-1 -2,-1 -1,-2 						"/>
					</defs>
					
						<clipPath id="SVGID_00000113345128631599357460000012882809946141232056_" style="clip-path:url(#SVGID_00000078035148388549923980000006913495232559866765_);">
						<use xlink:href="#SVGID_00000083804883682817382910000001560179857124040329_"  style="overflow:visible;"/>
					</clipPath>
					
						<clipPath id="SVGID_00000063627369790294987050000008509676782986073507_" style="clip-path:url(#SVGID_00000113345128631599357460000012882809946141232056_);">
						<use xlink:href="#SVGID_00000039093116147486802670000007173046002440715150_"  style="overflow:visible;"/>
					</clipPath>
					
						<linearGradient id="SVGID_00000013906786278798291490000004830209341106959032_" gradientUnits="userSpaceOnUse" x1="168.8812" y1="72.9625" x2="147.2093" y2="118.1079" gradientTransform="matrix(-1 0 0 -1 295.4205 162)">
						<stop  offset="0" style="stop-color:#000000"/>
						<stop  offset="1" style="stop-color:#FFFFFF"/>
					</linearGradient>
					
						<path style="clip-path:url(#SVGID_00000063627369790294987050000008509676782986073507_);fill:url(#SVGID_00000013906786278798291490000004830209341106959032_);" d="
						M96.64,108.93c-0.17-1.34-0.86-2.58-2.07-3.23c1-0.87,1.97-2.06,2.88-3.72l14.74-26.93h-0.05l16.21-29.62
						c3.98-7.28,12.8-13.19,19.7-13.19h21.66c1.26,0,2.36,0.2,3.31,0.57c0.86,0.03,2.3,0.21,4.04,0.92c-2.64-0.6-6.6-0.25-9.73,5.47
						l-14.74,26.93h0.05l-16.21,29.62c-3.98,7.28-12.8,13.19-19.71,13.19L96.64,108.93L96.64,108.93z"/>
				</g>
			</g>
		</mask>
		
			<linearGradient id="SVGID_00000158020227734201410840000010550265543652968892_" gradientUnits="userSpaceOnUse" x1="168.8812" y1="72.9625" x2="147.2093" y2="118.1079" gradientTransform="matrix(-1 0 0 -1 295.4205 162)">
			<stop  offset="0" style="stop-color:#000000"/>
			<stop  offset="1" style="stop-color:#FFFFFF"/>
		</linearGradient>
		
			<path style="clip-path:url(#SVGID_00000078035148388549923980000006913495232559866765_);mask:url(#SVGID_00000026158889792313327960000006478585548136702653_);fill:url(#SVGID_00000158020227734201410840000010550265543652968892_);" d="
			M96.64,108.93c-0.17-1.34-0.86-2.58-2.07-3.23c1-0.87,1.97-2.06,2.88-3.72l14.74-26.93h-0.05l16.21-29.62
			c3.98-7.28,12.8-13.19,19.7-13.19h21.66c1.26,0,2.36,0.2,3.31,0.57c0.86,0.03,2.3,0.21,4.04,0.92c-2.64-0.6-6.6-0.25-9.73,5.47
			l-14.74,26.93h0.05l-16.21,29.62c-3.98,7.28-12.8,13.19-19.71,13.19L96.64,108.93L96.64,108.93z"/>
	</g>
</g>
<g>
	
		<linearGradient id="SVGID_00000126308159372286849130000014826545937875755136_" gradientUnits="userSpaceOnUse" x1="103.3284" y1="35.5389" x2="158.8347" y2="132.2875" gradientTransform="matrix(1 0 0 -1 0 162)">
		<stop  offset="0" style="stop-color:#262262"/>
		<stop  offset="0.4326" style="stop-color:#196BAC"/>
		<stop  offset="0.497" style="stop-color:#1B72B1"/>
		<stop  offset="0.7192" style="stop-color:#2088C0"/>
		<stop  offset="0.8945" style="stop-color:#2496CA"/>
		<stop  offset="1" style="stop-color:#269CCE"/>
	</linearGradient>
	<path style="fill:url(#SVGID_00000126308159372286849130000014826545937875755136_);" d="M174.21,29.69
		c-1.1-0.42-2.37-0.65-3.82-0.65h-25c-7.96,0-18.15,6.81-22.75,15.22l-18.7,34.19h0.05l-17.01,31.08
		c-5.98,10.92-14.57,4.93-14.57,4.93c6.55,12.39,18.07,12.39,19.52,12.39h25c7.96,0,18.15-6.81,22.75-15.21l18.7-34.18h-0.05
		l17.01-31.09c5.97-10.92,14.57-4.93,14.57-4.93C184.03,31.04,176.82,29.79,174.21,29.69z"/>
	
		<linearGradient id="SVGID_00000116237225241283965930000004811304901200939700_" gradientUnits="userSpaceOnUse" x1="133.4925" y1="100.5374" x2="108.3425" y2="50.8205" gradientTransform="matrix(1 0 0 -1 0 162)">
		<stop  offset="0" style="stop-color:#FFFFFF"/>
		<stop  offset="1" style="stop-color:#FFFFFF"/>
	</linearGradient>
	<path style="opacity:0.1;fill:url(#SVGID_00000116237225241283965930000004811304901200939700_);enable-background:new    ;" d="
		M124.71,47.81c-1.47,1.59-2.76,3.31-3.76,5.12l-16.6,30.34h0.05l-15.09,27.57c-5.31,9.69-12.93,4.37-12.93,4.37
		c5.81,11,16.03,11,17.33,11h22.18c7.07,0,16.1-6.04,20.18-13.5l16.6-30.34h-0.04l2.82-5.16C151.08,64.08,139.65,53.32,124.71,47.81
		z"/>
	
		<linearGradient id="SVGID_00000085959874540846998240000007912958569555888257_" gradientUnits="userSpaceOnUse" x1="168.8812" y1="72.9625" x2="147.2093" y2="118.1079" gradientTransform="matrix(-1 0 0 -1 295.4205 162)">
		<stop  offset="0" style="stop-color:#FFFFFF"/>
		<stop  offset="1" style="stop-color:#FFFFFF"/>
	</linearGradient>
	<path style="opacity:0.15;fill:url(#SVGID_00000085959874540846998240000007912958569555888257_);enable-background:new    ;" d="
		M96.64,108.93c-0.17-1.34-0.86-2.58-2.07-3.23c1-0.87,1.97-2.06,2.88-3.72l14.74-26.93h-0.05l16.21-29.62
		c3.98-7.28,12.8-13.19,19.7-13.19h21.66c1.26,0,2.36,0.2,3.31,0.57c0.86,0.03,2.3,0.21,4.04,0.92c-2.64-0.6-6.6-0.25-9.73,5.47
		l-14.74,26.93h0.05l-16.21,29.62c-3.98,7.28-12.8,13.19-19.71,13.19L96.64,108.93L96.64,108.93z"/>
</g>
<g>
	
		<linearGradient id="SVGID_00000090256047620457293300000000876016714334857870_" gradientUnits="userSpaceOnUse" x1="63.7194" y1="35.5389" x2="119.2257" y2="132.2875" gradientTransform="matrix(-1 0 0 -1 170.5098 162)">
		<stop  offset="0" style="stop-color:#262262"/>
		<stop  offset="0.4326" style="stop-color:#196BAC"/>
		<stop  offset="0.497" style="stop-color:#1B72B1"/>
		<stop  offset="0.7192" style="stop-color:#2088C0"/>
		<stop  offset="0.8945" style="stop-color:#2496CA"/>
		<stop  offset="1" style="stop-color:#269CCE"/>
	</linearGradient>
	<path style="fill:url(#SVGID_00000090256047620457293300000000876016714334857870_);" d="M20.21,41.44c0,0,8.6-5.99,14.57,4.93
		l17.01,31.09h-0.05l18.7,34.18c4.6,8.4,14.79,15.21,22.75,15.21h25c1.45,0,12.97,0,19.52-12.39c0,0-8.59,5.99-14.57-4.93
		l-17.01-31.08h0.05l-18.7-34.19c-4.6-8.41-14.79-15.22-22.75-15.22h-25c-1.45,0-2.72,0.23-3.82,0.65
		C33.3,29.79,26.09,31.04,20.21,41.44z"/>
	
		<linearGradient id="SVGID_00000162354588462289511580000016779790038429133708_" gradientUnits="userSpaceOnUse" x1="93.8835" y1="100.5374" x2="68.7335" y2="50.8205" gradientTransform="matrix(-1 0 0 -1 170.5098 162)">
		<stop  offset="0" style="stop-color:#FFFFFF"/>
		<stop  offset="1" style="stop-color:#FFFFFF"/>
	</linearGradient>
	<path style="opacity:0.1;fill:url(#SVGID_00000162354588462289511580000016779790038429133708_);enable-background:new    ;" d="
		M54.67,77.21l2.82,5.16h-0.04l16.6,30.34c4.08,7.46,13.11,13.5,20.18,13.5h22.18c1.3,0,11.52,0,17.33-11c0,0-7.62,5.32-12.93-4.37
		l-15.09-27.57h0.05l-16.6-30.34c-1-1.81-2.29-3.53-3.76-5.12C70.47,53.32,59.04,64.08,54.67,77.21z"/>
	
		<linearGradient id="SVGID_00000176753578519890104060000007874257115676746162_" gradientUnits="userSpaceOnUse" x1="208.4902" y1="72.9625" x2="186.8183" y2="118.1079" gradientTransform="matrix(1 0 0 -1 -124.9107 162)">
		<stop  offset="0" style="stop-color:#FFFFFF"/>
		<stop  offset="1" style="stop-color:#FFFFFF"/>
	</linearGradient>
	<path style="opacity:0.15;fill:url(#SVGID_00000176753578519890104060000007874257115676746162_);enable-background:new    ;" d="
		M113.48,108.94H93.4c-6.91,0-15.73-5.91-19.71-13.19L57.48,66.13h0.05L42.79,39.2c-3.13-5.72-7.09-6.07-9.73-5.47
		c1.74-0.71,3.18-0.89,4.04-0.92c0.95-0.37,2.05-0.57,3.31-0.57h21.66c6.9,0,15.72,5.91,19.7,13.19l16.21,29.62h-0.05l14.74,26.93
		c0.91,1.66,1.88,2.85,2.88,3.72C114.34,106.35,113.65,107.59,113.48,108.94L113.48,108.94z"/>
</g>
<path class="st43" d="M253.26,97.3c-1.95,0-3.98-1.57-4.68-3.46l-13.41-37.72V93.6c0,2.04-1.56,3.69-3.59,3.69h-6.87
	c-2.03,0-3.59-1.65-3.59-3.69V45.99c0-2.04,1.56-3.69,3.51-3.69h15.52c2.03,0,3.98,1.65,4.6,3.61l11.23,32.77l11.23-32.77
	c0.62-1.97,2.57-3.61,4.6-3.61h15.52c1.95,0,3.51,1.65,3.51,3.69v47.62c0,2.04-1.56,3.69-3.59,3.69h-6.86
	c-2.03,0-3.59-1.65-3.59-3.69V56.13l-13.4,37.71c-0.7,1.89-2.73,3.46-4.68,3.46C258.72,97.3,253.26,97.3,253.26,97.3z"/>
<path class="st43" d="M329.29,41.12c19.49,0,30.64,8.25,30.64,28.68s-11.15,28.68-30.64,28.68c-19.5,0-30.65-8.25-30.65-28.68
	C298.65,49.37,309.8,41.12,329.29,41.12z M313,69.8c0,11.79,4.6,18.31,16.3,18.31c11.7,0,16.3-6.52,16.3-18.31
	s-4.6-18.31-16.3-18.31C317.6,51.49,313,58.01,313,69.8z"/>
<path class="st43" d="M397.44,86.77c6.94,0,10.06-3.61,10.06-11.16v-29.7c0-2.04,1.64-3.61,3.59-3.61h7.09
	c2.03,0,3.67,1.57,3.67,3.61v29.62c0,13.91-8.11,22.08-24.02,22.08h-6.86c-15.91,0-24.02-8.17-24.02-22.08V45.91
	c0-2.04,1.64-3.61,3.66-3.61h7.1c1.95,0,3.59,1.57,3.59,3.61v29.7c0,7.54,3.12,11.16,10.06,11.16
	C391.36,86.77,397.44,86.77,397.44,86.77z"/>
<path class="st43" d="M446.34,77.19v16.5c0,1.96-1.56,3.62-3.59,3.62h-7.17c-1.95,0-3.59-1.65-3.59-3.62V45.91
	c0-2.04,1.56-3.61,3.51-3.61h31.42c11.38,0,19.89,6.6,19.89,17.44c0,8.49-6.47,12.42-14.35,13.99c3.2,1.18,5.54,3.93,8.66,8.88
	l6.94,11.08c1.25,2.04,0.7,3.62-1.33,3.62h-9.12c-1.95,0-4.6-1.57-5.85-3.62l-6.47-10.21c-1.95-3.06-4.76-6.29-9.67-6.29
	C455.62,77.19,446.34,77.19,446.34,77.19z M446.34,53.14v13.2h16.22c4.37,0,9.9-1.57,9.9-6.6s-5.54-6.6-9.9-6.6H446.34z"/>
<path class="st43" d="M495,45.91c0-2.04,1.64-3.61,3.59-3.61h7.09c2.03,0,3.67,1.57,3.67,3.61v47.78c0,1.96-1.64,3.62-3.67,3.62
	h-7.09c-1.95,0-3.59-1.57-3.59-3.54V45.91z"/>
<path class="st44" d="M578.35,42.47c2.02,0,3.58,1.57,3.58,3.6v3.6c0,2.04-1.55,3.6-3.58,3.6H561.4v40.5c0,1.96-1.63,3.53-3.57,3.53
	h-7.15c-1.94,0-3.57-1.57-3.57-3.53v-40.5h-16.95c-2.02,0-3.58-1.57-3.58-3.6v-3.6c0-2.04,1.55-3.6,3.58-3.6H578.35z"/>
<path class="st44" d="M639.05,46.07v3.6c0,2.04-1.63,3.6-3.57,3.6h-33.04V64.4h28.45c1.94,0,3.58,1.65,3.58,3.6v3.6
	c0,1.96-1.63,3.6-3.58,3.6h-28.45v11.28h32.96c1.94,0,3.5,1.57,3.5,3.53v3.68c0,1.96-1.56,3.6-3.58,3.6h-43.61
	c-2.02,0-3.57-1.64-3.57-3.68V46c0-1.96,1.63-3.53,3.57-3.53h43.76C637.42,42.47,639.05,44.04,639.05,46.07z"/>
<path class="st44" d="M671.07,42.16h8.47c10.57,0,21.84,5.72,21.84,16.84c0,3.53-2.88,4.23-3.89,4.23H693
	c-2.18,0-3.97-1.02-5.44-4.23c-1.71-3.68-4.66-6.03-9.33-6.03h-6.76c-11.19,0-14.23,4.15-14.23,16.92s3.03,16.92,14.23,16.92H679
	c4.66,0,7.62-2.35,9.33-6.03c1.48-3.21,3.27-4.23,5.44-4.23h4.51c1.01,0,3.89,0.7,3.89,4.23c0,11.12-11.27,16.84-21.84,16.84h-9.25
	c-18.58,0-28.14-8.69-28.14-27.73C642.93,50.85,652.5,42.16,671.07,42.16z"/>
<path class="st44" d="M749.97,74.12h-26.12v19.66c0,1.96-1.63,3.53-3.58,3.53h-7.07c-2.02,0-3.65-1.64-3.65-3.6V46.07
	c0-2.04,1.63-3.6,3.65-3.6h7.07c1.94,0,3.58,1.57,3.58,3.6V63.3h26.12V46.07c0-2.04,1.63-3.6,3.58-3.6h7.07
	c2.02,0,3.65,1.57,3.65,3.6V93.7c0,1.96-1.63,3.6-3.65,3.6h-7.07c-1.94,0-3.58-1.57-3.58-3.53V74.12z"/>
<g>
	<path class="st44" d="M775.09,54.52V43.6h-4.9v-1.46h11.78v1.46h-4.92v10.92C777.05,54.52,775.09,54.52,775.09,54.52z"/>
	<path class="st44" d="M783.93,54.52V42.14h2.96l3.52,8.77c0.33,0.82,0.56,1.43,0.71,1.83c0.17-0.45,0.43-1.11,0.8-1.98l3.57-8.62
		h2.65v12.38h-1.9V44.16l-4.34,10.36h-1.77l-4.31-10.54v10.54H783.93z"/>
</g>
<g>
	<path d="M313.36,131.22c-2.33,0.55-4.28,0.83-5.85,0.83c-3.38,0-5.93-0.85-7.67-2.56c-1.74-1.71-2.61-3.78-2.61-6.21
		c0-2.56,0.95-4.79,2.85-6.68s4.53-2.84,7.89-2.84c1.58,0,2.97,0.13,4.18,0.39l-0.48,3.2c-1.54-0.37-2.92-0.56-4.15-0.56
		c-2.07,0-3.61,0.58-4.63,1.76c-1.02,1.17-1.53,2.6-1.53,4.29c0,1.73,0.57,3.23,1.71,4.52c1.14,1.29,2.72,1.93,4.73,1.93
		c0.56,0,1.21-0.05,1.94-0.16c-0.15-1-0.22-1.99-0.22-2.96c0-0.98-0.11-2.08-0.31-3.3h4.16c-0.08,1.39-0.11,2.8-0.11,4.21
		C313.24,128.11,313.28,129.49,313.36,131.22z"/>
	<path d="M330.78,128.72l-0.12,2.96h-12.22c0.12-2.45,0.18-5.53,0.18-9.24c0-3.4-0.06-6.21-0.18-8.43h4.13
		c-0.12,2.05-0.18,4.86-0.18,8.43c0,2.72-0.06,4.88-0.19,6.49C324.91,128.92,327.77,128.85,330.78,128.72z"/>
	<path d="M352.3,122.52c0,2.78-0.92,5.08-2.76,6.91c-1.84,1.83-4.12,2.74-6.84,2.74c-2.59,0-4.76-0.84-6.5-2.52
		c-1.75-1.68-2.62-3.81-2.62-6.4c0-2.78,0.92-5.08,2.76-6.91c1.84-1.83,4.12-2.74,6.84-2.74c2.59,0,4.76,0.84,6.5,2.51
		C351.43,117.79,352.3,119.92,352.3,122.52z M348.24,122.91c0-1.89-0.52-3.42-1.57-4.6c-1.05-1.18-2.35-1.76-3.88-1.76
		c-1.43,0-2.65,0.59-3.65,1.78c-1,1.18-1.5,2.68-1.5,4.49c0,1.88,0.53,3.41,1.58,4.59c1.05,1.18,2.35,1.77,3.88,1.77
		c1.43,0,2.65-0.59,3.65-1.78C347.74,126.21,348.24,124.71,348.24,122.91z"/>
	<path d="M371.81,126.36c0,3.6-3.19,5.4-9.58,5.4c-1.11,0-2.83-0.03-5.18-0.08c0.13-2.73,0.19-5.81,0.19-9.24
		c0-3.29-0.06-6.1-0.19-8.43h2.38c0.45,0,1.21-0.01,2.27-0.04s1.9-0.04,2.49-0.04c4.34,0,6.52,1.3,6.52,3.91
		c0,2.01-1.12,3.34-3.34,3.99v0.2c1.19,0.17,2.22,0.6,3.1,1.28C371.37,123.99,371.81,125.01,371.81,126.36z M366.77,118.91
		c0-1.62-1.1-2.43-3.3-2.43c-1.01,0-1.91,0.07-2.69,0.2c0.11,0.91,0.16,2.48,0.16,4.71c0.37,0.02,0.77,0.03,1.18,0.03
		C365.22,121.42,366.77,120.58,366.77,118.91z M367.84,126.51c0-1.8-1.71-2.7-5.13-2.7c-0.68,0-1.26,0.02-1.75,0.07
		c0,1.89,0.04,3.63,0.13,5.22c0.34,0.07,0.83,0.11,1.5,0.11c1.81,0,3.14-0.2,3.99-0.6C367.42,128.2,367.84,127.5,367.84,126.51z"/>
	<path d="M393.26,131.68h-4.71c0-0.6-0.45-2.29-1.34-5.08h-6.8c-0.92,2.74-1.38,4.43-1.38,5.08h-4.43c0-0.35,1.15-3.25,3.44-8.69
		s3.43-8.43,3.43-8.98h5.56c0,0.52,1.04,3.47,3.11,8.85C392.22,128.25,393.26,131.19,393.26,131.68z M386.46,124.01
		c-1.67-4.67-2.51-7.19-2.51-7.57h-0.24c0,0.35-0.87,2.88-2.6,7.57H386.46z"/>
	<path d="M409.39,128.72l-0.12,2.96h-12.22c0.12-2.45,0.18-5.53,0.18-9.24c0-3.4-0.06-6.21-0.18-8.43h4.13
		c-0.12,2.05-0.18,4.86-0.18,8.43c0,2.72-0.06,4.88-0.19,6.49C403.52,128.92,406.38,128.85,409.39,128.72z"/>
	<path d="M433.84,128.69l-0.12,2.98H421.2c0.13-2.73,0.19-5.81,0.19-9.24c0-3.29-0.06-6.1-0.19-8.43h11.94l-0.16,2.97
		c-2.94-0.14-5.61-0.22-8-0.22c0.1,1.26,0.15,2.74,0.15,4.45c2.05,0,4.24-0.05,6.57-0.15v2.84c-2.3-0.09-4.49-0.14-6.57-0.14
		c0,1.84,0.04,3.56,0.12,5.16C427.94,128.92,430.8,128.85,433.84,128.69z"/>
	<path d="M454.38,131.68h-3.63c0-0.37-1.35-2.33-4.05-5.88c-2.82-3.74-4.43-6.29-4.82-7.67h-0.24c0.25,1.98,0.37,3.77,0.37,5.37
		c0,2.23,0.07,4.96,0.21,8.17h-3.62c0.15-2.8,0.22-5.89,0.22-9.24c0-3.3-0.07-6.11-0.22-8.43h4.37c0,0.48,1.21,2.39,3.63,5.74
		c2.58,3.56,4.06,5.97,4.44,7.23h0.22c-0.24-2.02-0.35-3.83-0.35-5.43c0-2.45-0.07-4.97-0.21-7.55h3.68
		c-0.14,2.24-0.21,5.05-0.21,8.43C454.18,125.84,454.24,128.92,454.38,131.68z"/>
	<path d="M473.52,114.01l-0.1,2.92c-1.96-0.14-3.81-0.2-5.54-0.2c-0.02,1.71-0.03,3.61-0.03,5.71c0,3.26,0.05,6.34,0.16,9.24h-4.12
		c0.13-2.88,0.19-5.96,0.19-9.24c0-2.06-0.02-3.97-0.06-5.71c-1.38,0-3.28,0.07-5.69,0.22l0.12-2.93h15.07V114.01z"/>
	<path d="M490.1,128.69l-0.12,2.98h-12.52c0.13-2.73,0.19-5.81,0.19-9.24c0-3.29-0.06-6.1-0.19-8.43h11.94l-0.16,2.97
		c-2.94-0.14-5.61-0.22-8-0.22c0.1,1.26,0.15,2.74,0.15,4.45c2.05,0,4.24-0.05,6.57-0.15v2.84c-2.29-0.09-4.48-0.14-6.57-0.14
		c0,1.84,0.04,3.56,0.12,5.16C484.2,128.92,487.06,128.85,490.1,128.69z"/>
	<path d="M510.36,131.68h-4.35c-1.14-3.2-2.01-5.18-2.62-5.93s-1.59-1.13-2.94-1.13c-0.57,0-1.11,0-1.63,0.01
		c0,2.33,0.05,4.67,0.13,7.04h-4.09c0.13-2.73,0.19-5.81,0.19-9.24c0-3.29-0.06-6.1-0.19-8.43h2.55c0.29,0,0.91-0.01,1.84-0.04
		c0.94-0.03,1.8-0.04,2.59-0.04c4.5,0,6.75,1.42,6.75,4.26c0,2.25-1.29,3.82-3.85,4.71v0.2c0.99,0.25,1.86,0.96,2.6,2.14
		C508.09,126.41,509.1,128.56,510.36,131.68z M504.85,119.19c0-1.8-1.26-2.7-3.76-2.7c-0.92,0-1.74,0.06-2.44,0.19
		c0.11,1.4,0.16,3.23,0.16,5.48c0.54,0.02,0.99,0.03,1.37,0.03C503.29,122.19,504.85,121.19,504.85,119.19z"/>
	<path d="M528.28,118.64c0,2.16-0.87,3.76-2.61,4.79s-3.88,1.55-6.41,1.55c-0.46,0-0.79-0.01-0.99-0.03c0,1.7,0.05,3.94,0.16,6.73
		h-4.13c0.13-2.61,0.19-5.7,0.19-9.24c0-3.26-0.06-6.07-0.19-8.43h2.56c0.36,0,1.06-0.01,2.09-0.04s1.92-0.04,2.68-0.04
		c1.86,0,3.44,0.39,4.72,1.17C527.64,115.87,528.28,117.05,528.28,118.64z M524.49,119.38c0-1.94-1.39-2.9-4.18-2.9
		c-0.69,0-1.43,0.07-2.21,0.2c0.11,1.71,0.16,3.65,0.16,5.81c0.24,0.02,0.53,0.03,0.85,0.03
		C522.7,122.52,524.49,121.47,524.49,119.38z"/>
	<path d="M548.06,131.68h-4.35c-1.14-3.2-2.01-5.18-2.62-5.93s-1.59-1.13-2.94-1.13c-0.57,0-1.11,0-1.63,0.01
		c0,2.33,0.04,4.67,0.13,7.04h-4.09c0.13-2.73,0.19-5.81,0.19-9.24c0-3.29-0.06-6.1-0.19-8.43h2.55c0.29,0,0.91-0.01,1.84-0.04
		c0.94-0.03,1.8-0.04,2.6-0.04c4.5,0,6.75,1.42,6.75,4.26c0,2.25-1.28,3.82-3.85,4.71v0.2c0.99,0.25,1.86,0.96,2.6,2.14
		C545.79,126.41,546.79,128.56,548.06,131.68z M542.54,119.19c0-1.8-1.26-2.7-3.76-2.7c-0.92,0-1.74,0.06-2.44,0.19
		c0.11,1.4,0.16,3.23,0.16,5.48c0.54,0.02,0.99,0.03,1.37,0.03C540.98,122.19,542.54,121.19,542.54,119.19z"/>
	<path d="M556.17,131.68h-4.16c0.13-2.8,0.19-5.89,0.19-9.24c0-3.3-0.06-6.11-0.19-8.43h4.16c-0.13,2.28-0.19,5.09-0.19,8.43
		C555.97,125.85,556.04,128.93,556.17,131.68z"/>
	<path d="M574.41,126.86c0,3.54-2.76,5.31-8.27,5.31c-1.87,0-3.61-0.21-5.22-0.62l0.72-3.03c1.59,0.51,3.09,0.76,4.5,0.76
		c1.57,0,2.7-0.14,3.38-0.42s1.03-0.75,1.03-1.41c0-0.69-0.32-1.27-0.97-1.74c-0.56-0.42-1.69-0.96-3.4-1.63
		c-1.55-0.62-2.7-1.28-3.46-2.01c-0.95-0.91-1.43-2.04-1.43-3.38c0-1.56,0.63-2.77,1.88-3.65c1.25-0.88,3.05-1.32,5.39-1.32
		c1.92,0,3.54,0.15,4.84,0.45l-0.55,3.01c-1.32-0.44-2.75-0.67-4.29-0.67c-2.31,0-3.47,0.57-3.47,1.71c0,0.61,0.27,1.1,0.81,1.48
		c0.47,0.33,1.49,0.78,3.07,1.37c1.68,0.62,2.93,1.31,3.77,2.06C573.86,124.15,574.41,125.39,574.41,126.86z"/>
	<path d="M591.8,128.69l-0.11,2.98h-12.52c0.13-2.73,0.19-5.81,0.19-9.24c0-3.29-0.06-6.1-0.19-8.43h11.94l-0.16,2.97
		c-2.94-0.14-5.61-0.22-8-0.22c0.1,1.26,0.15,2.74,0.15,4.45c2.05,0,4.24-0.05,6.57-0.15v2.84c-2.29-0.09-4.48-0.14-6.57-0.14
		c0,1.84,0.04,3.56,0.12,5.16C585.9,128.92,588.76,128.85,591.8,128.69z"/>
	<path d="M617.1,126.86c0,3.54-2.76,5.31-8.27,5.31c-1.87,0-3.61-0.21-5.22-0.62l0.72-3.03c1.59,0.51,3.09,0.76,4.5,0.76
		c1.57,0,2.69-0.14,3.38-0.42s1.03-0.75,1.03-1.41c0-0.69-0.32-1.27-0.97-1.74c-0.56-0.42-1.69-0.96-3.4-1.63
		c-1.55-0.62-2.7-1.28-3.46-2.01c-0.95-0.91-1.43-2.04-1.43-3.38c0-1.56,0.62-2.77,1.87-3.65c1.25-0.88,3.05-1.32,5.39-1.32
		c1.92,0,3.54,0.15,4.84,0.45l-0.54,3.01c-1.32-0.44-2.75-0.67-4.3-0.67c-2.31,0-3.47,0.57-3.47,1.71c0,0.61,0.27,1.1,0.81,1.48
		c0.47,0.33,1.5,0.78,3.07,1.37c1.68,0.62,2.93,1.31,3.77,2.06C616.54,124.15,617.1,125.39,617.1,126.86z"/>
	<path d="M639.59,122.52c0,2.78-0.92,5.08-2.76,6.91c-1.84,1.83-4.12,2.74-6.84,2.74c-2.59,0-4.76-0.84-6.5-2.52
		c-1.75-1.68-2.62-3.81-2.62-6.4c0-2.78,0.92-5.08,2.76-6.91c1.84-1.83,4.12-2.74,6.84-2.74c2.59,0,4.76,0.84,6.5,2.51
		C638.72,117.79,639.59,119.92,639.59,122.52z M635.53,122.91c0-1.89-0.52-3.42-1.57-4.6s-2.35-1.76-3.88-1.76
		c-1.43,0-2.65,0.59-3.65,1.78c-1,1.18-1.5,2.68-1.5,4.49c0,1.88,0.53,3.41,1.58,4.59c1.05,1.18,2.35,1.77,3.88,1.77
		c1.43,0,2.65-0.59,3.65-1.78C635.03,126.21,635.53,124.71,635.53,122.91z"/>
	<path d="M656.69,128.72l-0.12,2.96h-12.22c0.12-2.45,0.18-5.53,0.18-9.24c0-3.4-0.06-6.21-0.18-8.43h4.14
		c-0.12,2.05-0.18,4.86-0.18,8.43c0,2.72-0.06,4.88-0.19,6.49C650.82,128.92,653.68,128.85,656.69,128.72z"/>
	<path d="M676.38,114.01c-0.09,3.04-0.13,6.08-0.13,9.12c0,6.01-2.67,9.01-8,9.01c-2.64,0-4.62-0.66-5.96-2
		c-1.33-1.33-2-3.72-2-7.16c0-3.04-0.04-6.03-0.13-8.97h4.16c-0.13,3.06-0.19,6.01-0.19,8.85c0,2.49,0.35,4.19,1.03,5.12
		c0.69,0.92,1.75,1.38,3.18,1.38c1.5,0,2.59-0.46,3.25-1.38c0.67-0.92,1-2.64,1-5.15c0-2.76-0.06-5.7-0.19-8.82H676.38z"/>
	<path d="M695.19,114.01l-0.1,2.92c-1.96-0.14-3.81-0.2-5.55-0.2c-0.02,1.71-0.03,3.61-0.03,5.71c0,3.26,0.05,6.34,0.16,9.24h-4.12
		c0.13-2.88,0.19-5.96,0.19-9.24c0-2.06-0.02-3.97-0.06-5.71c-1.38,0-3.28,0.07-5.69,0.22l0.12-2.93h15.08V114.01z"/>
	<path d="M703.3,131.68h-4.17c0.13-2.8,0.19-5.89,0.19-9.24c0-3.3-0.06-6.11-0.19-8.43h4.17c-0.13,2.28-0.19,5.09-0.19,8.43
		C703.11,125.85,703.18,128.93,703.3,131.68z"/>
	<path d="M726.78,122.52c0,2.78-0.92,5.08-2.76,6.91c-1.84,1.83-4.12,2.74-6.84,2.74c-2.59,0-4.76-0.84-6.5-2.52
		c-1.75-1.68-2.62-3.81-2.62-6.4c0-2.78,0.92-5.08,2.76-6.91c1.84-1.83,4.12-2.74,6.84-2.74c2.59,0,4.76,0.84,6.5,2.51
		C725.91,117.79,726.78,119.92,726.78,122.52z M722.72,122.91c0-1.89-0.52-3.42-1.57-4.6s-2.35-1.76-3.88-1.76
		c-1.43,0-2.65,0.59-3.65,1.78c-1,1.18-1.5,2.68-1.5,4.49c0,1.88,0.53,3.41,1.58,4.59c1.05,1.18,2.35,1.77,3.88,1.77
		c1.43,0,2.65-0.59,3.65-1.78C722.22,126.21,722.72,124.71,722.72,122.91z"/>
	<path d="M747.32,131.68h-3.63c0-0.37-1.35-2.33-4.05-5.88c-2.82-3.74-4.43-6.29-4.82-7.67h-0.24c0.25,1.98,0.37,3.77,0.37,5.37
		c0,2.23,0.07,4.96,0.21,8.17h-3.62c0.15-2.8,0.22-5.89,0.22-9.24c0-3.3-0.07-6.11-0.22-8.43h4.37c0,0.48,1.21,2.39,3.63,5.74
		c2.58,3.56,4.06,5.97,4.44,7.23h0.22c-0.24-2.02-0.35-3.83-0.35-5.43c0-2.45-0.07-4.97-0.21-7.55h3.68
		c-0.14,2.24-0.21,5.05-0.21,8.43C747.11,125.84,747.18,128.92,747.32,131.68z"/>
	<path d="M765.57,126.86c0,3.54-2.76,5.31-8.27,5.31c-1.87,0-3.61-0.21-5.22-0.62l0.72-3.03c1.59,0.51,3.09,0.76,4.5,0.76
		c1.57,0,2.7-0.14,3.38-0.42s1.03-0.75,1.03-1.41c0-0.69-0.32-1.27-0.97-1.74c-0.56-0.42-1.69-0.96-3.4-1.63
		c-1.55-0.62-2.7-1.28-3.46-2.01c-0.95-0.91-1.43-2.04-1.43-3.38c0-1.56,0.63-2.77,1.88-3.65c1.25-0.88,3.05-1.32,5.39-1.32
		c1.92,0,3.54,0.15,4.84,0.45l-0.55,3.01c-1.32-0.44-2.75-0.67-4.29-0.67c-2.31,0-3.47,0.57-3.47,1.71c0,0.61,0.27,1.1,0.81,1.48
		c0.47,0.33,1.49,0.78,3.07,1.37c1.68,0.62,2.93,1.31,3.77,2.06C765.01,124.15,765.57,125.39,765.57,126.86z"/>
</g>
</svg>
