<svg width="14" height="17" viewBox="0 0 14 17" fill="none" xmlns="http://www.w3.org/2000/svg">
<mask id="path-1-inside-1_203_2750" fill="white">
<path d="M10.653 4.78695V4.09795C10.653 1.97794 9.06304 0.175928 7.04903 0.0169271C5.93603 -0.0890733 4.82302 0.308428 4.00152 1.05043C3.18001 1.79243 2.70301 2.85244 2.70301 3.93894V4.78695C1.166 5.07845 0 6.42996 0 8.07296V12.8695C0 14.6185 1.43101 16.023 3.15351 16.023H10.1495C11.8986 16.023 13.3296 14.592 13.3296 12.843V8.01996C13.3561 6.42995 12.1901 5.10495 10.653 4.78695ZM4.79652 1.92494C5.37952 1.39493 6.14803 1.12993 6.94303 1.20943C8.34754 1.34193 9.46054 2.61394 9.46054 4.09795V4.70745H3.89552V3.91244C3.89552 3.17044 4.21352 2.45494 4.79652 1.92494ZM12.1636 12.8695C12.1636 13.956 11.2625 14.857 10.176 14.857H3.18001C2.09351 14.857 1.21901 13.9825 1.21901 12.896V8.07296C1.21901 6.88046 2.17301 5.92645 3.36551 5.92645H9.99054C11.183 5.92645 12.1636 6.88046 12.1636 8.01996V12.8695Z"/>
</mask>
<path d="M10.653 4.78695V4.09795C10.653 1.97794 9.06304 0.175928 7.04903 0.0169271C5.93603 -0.0890733 4.82302 0.308428 4.00152 1.05043C3.18001 1.79243 2.70301 2.85244 2.70301 3.93894V4.78695C1.166 5.07845 0 6.42996 0 8.07296V12.8695C0 14.6185 1.43101 16.023 3.15351 16.023H10.1495C11.8986 16.023 13.3296 14.592 13.3296 12.843V8.01996C13.3561 6.42995 12.1901 5.10495 10.653 4.78695ZM4.79652 1.92494C5.37952 1.39493 6.14803 1.12993 6.94303 1.20943C8.34754 1.34193 9.46054 2.61394 9.46054 4.09795V4.70745H3.89552V3.91244C3.89552 3.17044 4.21352 2.45494 4.79652 1.92494ZM12.1636 12.8695C12.1636 13.956 11.2625 14.857 10.176 14.857H3.18001C2.09351 14.857 1.21901 13.9825 1.21901 12.896V8.07296C1.21901 6.88046 2.17301 5.92645 3.36551 5.92645H9.99054C11.183 5.92645 12.1636 6.88046 12.1636 8.01996V12.8695Z" fill="#A3A3A3"/>
<path d="M10.653 4.78695H9.33305V5.8618L10.3856 6.07957L10.653 4.78695ZM7.04903 0.0169271L6.92388 1.33098L6.93451 1.33199L6.94514 1.33283L7.04903 0.0169271ZM2.70301 4.78695L2.94897 6.08383L4.02301 5.88013V4.78695H2.70301ZM13.3296 8.01996L12.0097 7.99796L12.0096 8.00896V8.01996H13.3296ZM6.94303 1.20943L6.81168 2.5229L6.81905 2.5236L6.94303 1.20943ZM9.46054 4.70745V6.02745H10.7805V4.70745H9.46054ZM3.89552 4.70745H2.57552V6.02745H3.89552V4.70745ZM11.973 4.78695V4.09795H9.33305V4.78695H11.973ZM11.973 4.09795C11.973 1.34434 9.90715 -1.08154 7.15292 -1.29898L6.94514 1.33283C8.21893 1.4334 9.33305 2.61153 9.33305 4.09795H11.973ZM7.17418 -1.29713C5.67088 -1.4403 4.19651 -0.904417 3.11674 0.070856L4.8863 2.03001C5.44954 1.52127 6.20117 1.26215 6.92388 1.33098L7.17418 -1.29713ZM3.11674 0.070856C2.02457 1.05733 1.38301 2.47048 1.38301 3.93894H4.02301C4.02301 3.2344 4.33545 2.52754 4.8863 2.03001L3.11674 0.070856ZM1.38301 3.93894V4.78695H4.02301V3.93894H1.38301ZM2.45705 3.49007C0.305119 3.89819 -1.32 5.78754 -1.32 8.07296H1.32C1.32 7.07237 2.02689 6.25871 2.94897 6.08383L2.45705 3.49007ZM-1.32 8.07296V12.8695H1.32V8.07296H-1.32ZM-1.32 12.8695C-1.32 15.3547 0.709215 17.343 3.15351 17.343V14.703C2.1528 14.703 1.32 13.8823 1.32 12.8695H-1.32ZM3.15351 17.343H10.1495V14.703H3.15351V17.343ZM10.1495 17.343C12.6276 17.343 14.6496 15.321 14.6496 12.843H12.0096C12.0096 13.863 11.1695 14.703 10.1495 14.703V17.343ZM14.6496 12.843V8.01996H12.0096V12.843H14.6496ZM14.6494 8.04196C14.6874 5.76075 13.0209 3.92889 10.9205 3.49432L10.3856 6.07957C11.3592 6.28101 12.0247 7.09916 12.0097 7.99796L14.6494 8.04196ZM5.68445 2.90166C5.99848 2.61617 6.39909 2.48162 6.81169 2.52288L7.07438 -0.104017C5.89696 -0.221758 4.76057 0.173693 3.90859 0.948215L5.68445 2.90166ZM6.81905 2.5236C7.49666 2.58752 8.14054 3.24464 8.14054 4.09795H10.7805C10.7805 1.98324 9.19842 0.0963438 7.06701 -0.104733L6.81905 2.5236ZM8.14054 4.09795V4.70745H10.7805V4.09795H8.14054ZM9.46054 3.38745H3.89552V6.02745H9.46054V3.38745ZM5.21552 4.70745V3.91244H2.57552V4.70745H5.21552ZM5.21552 3.91244C5.21552 3.55605 5.36633 3.19086 5.68445 2.90166L3.90859 0.948215C3.06071 1.71902 2.57552 2.78484 2.57552 3.91244H5.21552ZM10.8436 12.8695C10.8436 13.227 10.5335 13.537 10.176 13.537V16.177C11.9916 16.177 13.4836 14.685 13.4836 12.8695H10.8436ZM10.176 13.537H3.18001V16.177H10.176V13.537ZM3.18001 13.537C2.82252 13.537 2.53901 13.2535 2.53901 12.896H-0.100995C-0.100995 14.7115 1.36449 16.177 3.18001 16.177V13.537ZM2.53901 12.896V8.07296H-0.100995V12.896H2.53901ZM2.53901 8.07296C2.53901 7.60947 2.90203 7.24645 3.36551 7.24645V4.60645C1.44399 4.60645 -0.100995 6.15144 -0.100995 8.07296H2.53901ZM3.36551 7.24645H9.99054V4.60645H3.36551V7.24645ZM9.99054 7.24645C10.4969 7.24645 10.8436 7.65165 10.8436 8.01996H13.4836C13.4836 6.10926 11.8692 4.60645 9.99054 4.60645V7.24645ZM10.8436 8.01996V12.8695H13.4836V8.01996H10.8436Z" fill="#A3A3A3" mask="url(#path-1-inside-1_203_2750)"/>
<mask id="path-3-inside-2_203_2750" fill="white">
<path d="M6.67796 8.6825C6.35996 8.6825 6.06846 8.9475 6.06846 9.292V12.0745C6.06846 12.3925 6.33346 12.684 6.67796 12.684C6.99596 12.684 7.28746 12.419 7.28746 12.0745V9.2655C7.28746 8.9475 6.99596 8.6825 6.67796 8.6825Z"/>
</mask>
<path d="M6.67796 8.6825C6.35996 8.6825 6.06846 8.9475 6.06846 9.292V12.0745C6.06846 12.3925 6.33346 12.684 6.67796 12.684C6.99596 12.684 7.28746 12.419 7.28746 12.0745V9.2655C7.28746 8.9475 6.99596 8.6825 6.67796 8.6825Z" fill="#A3A3A3"/>
<path d="M6.67796 7.3825C5.67884 7.3825 4.76846 8.19322 4.76846 9.292H7.36846C7.36846 9.70178 7.04107 9.9825 6.67796 9.9825V7.3825ZM4.76846 9.292V12.0745H7.36846V9.292H4.76846ZM4.76846 12.0745C4.76846 13.0736 5.57918 13.984 6.67796 13.984V11.384C7.08774 11.384 7.36846 11.7114 7.36846 12.0745H4.76846ZM6.67796 13.984C7.67708 13.984 8.58746 13.1733 8.58746 12.0745H5.98746C5.98746 11.6647 6.31485 11.384 6.67796 11.384V13.984ZM8.58746 12.0745V9.2655H5.98746V12.0745H8.58746ZM8.58746 9.2655C8.58746 8.1564 7.63856 7.3825 6.67796 7.3825V9.9825C6.47875 9.9825 6.31906 9.90312 6.21099 9.80141C6.10061 9.69752 5.98746 9.51402 5.98746 9.2655H8.58746Z" fill="#A3A3A3" mask="url(#path-3-inside-2_203_2750)"/>
</svg>
