<svg width="15" height="15" viewBox="0 0 15 15" fill="none" xmlns="http://www.w3.org/2000/svg">
<mask id="path-1-outside-1_309_2696" maskUnits="userSpaceOnUse" x="0" y="0" width="15" height="15" fill="black">
<rect fill="white" width="15" height="15"/>
<path fill-rule="evenodd" clip-rule="evenodd" d="M7.53809 1.00354C7.85801 1.00863 8.21348 1.02642 8.3252 1.04422C8.43691 1.05948 8.67051 1.1027 8.8457 1.13829C9.0209 1.17388 9.32812 1.25778 9.53125 1.32642C9.73438 1.39252 10.0314 1.50693 10.1914 1.57811C10.3514 1.65184 10.6307 1.7993 10.8109 1.90608C10.9887 2.01285 11.2527 2.18828 11.3949 2.29505C11.5346 2.40183 11.7504 2.58234 11.8748 2.69674C11.9967 2.80861 12.1896 3.00183 12.3014 3.12386C12.4156 3.24843 12.5959 3.46453 12.7025 3.60436C12.8092 3.74673 12.9844 4.01114 13.091 4.1891C13.1977 4.36961 13.3449 4.64926 13.4186 4.80943C13.4896 4.9696 13.6039 5.26705 13.6699 5.47044C13.7385 5.67383 13.8223 5.98145 13.8578 6.15687C13.8934 6.33229 13.9391 6.61449 13.9594 6.78737C13.9822 6.95771 14 7.2755 14 7.4916C14 7.7077 13.9822 8.03058 13.9619 8.21109C13.9391 8.38905 13.8934 8.67633 13.8578 8.85176C13.8223 9.02718 13.7385 9.3348 13.6699 9.53819C13.6039 9.74158 13.4896 10.039 13.4186 10.1992C13.3449 10.3594 13.1977 10.639 13.091 10.8195C12.9844 10.9975 12.8092 11.2619 12.7025 11.4043C12.5959 11.5441 12.4156 11.7602 12.3014 11.8848C12.1896 12.0068 11.9967 12.2 11.8748 12.3119C11.7504 12.4263 11.5346 12.6068 11.3949 12.7136C11.2527 12.8204 10.9887 12.9958 10.8109 13.1026C10.6307 13.2093 10.3514 13.3568 10.1914 13.4305C10.0314 13.5017 9.73438 13.6161 9.53125 13.6822C9.32812 13.7509 9.0209 13.8347 8.8457 13.8703C8.67051 13.9059 8.42422 13.9492 8.2998 13.9669C8.16777 13.9873 7.83262 14 7.5 14C7.16738 14 6.83223 13.9873 6.7002 13.9669C6.57578 13.9492 6.32949 13.9059 6.1543 13.8703C5.9791 13.8347 5.67188 13.7509 5.46875 13.6822C5.26562 13.6161 4.96855 13.5017 4.80859 13.4305C4.64863 13.3568 4.36934 13.2093 4.18906 13.1026C4.01133 12.9958 3.74727 12.8204 3.60508 12.7136C3.46543 12.6068 3.24961 12.4263 3.1252 12.3119C3.00332 12.2 2.81035 12.0068 2.69863 11.8848C2.58438 11.7602 2.4041 11.5441 2.29746 11.4043C2.19082 11.2619 2.01562 10.9975 1.90898 10.8195C1.80234 10.639 1.65508 10.3594 1.58145 10.1992C1.51035 10.039 1.39609 9.74158 1.33008 9.53819C1.26152 9.3348 1.17773 9.02718 1.14219 8.85176C1.10664 8.67633 1.06094 8.39413 1.04063 8.22126C1.01777 8.05092 1 7.73313 1 7.51703C1 7.30093 1.01777 6.97805 1.03809 6.79754C1.06094 6.61958 1.10664 6.33229 1.14219 6.15687C1.17773 5.98145 1.26152 5.67383 1.33008 5.47044C1.39609 5.26705 1.51035 4.9696 1.58145 4.80943C1.65508 4.64926 1.80234 4.36961 1.90898 4.1891C2.01562 4.01114 2.19082 3.74673 2.29746 3.60436C2.4041 3.46453 2.58438 3.24843 2.69863 3.12386C2.81035 3.00183 3.00332 2.80861 3.1252 2.69674C3.24961 2.58234 3.46543 2.40183 3.60508 2.29505C3.74727 2.18828 4.01133 2.01285 4.18906 1.90608C4.36934 1.7993 4.64863 1.65184 4.80859 1.57811C4.96855 1.50693 5.26562 1.39252 5.46875 1.32642C5.67188 1.25778 5.9791 1.17388 6.1543 1.13829C6.32949 1.1027 6.57578 1.06202 6.7002 1.04676C6.82461 1.03151 6.93379 1.01117 6.94141 1.00609C6.94648 0.998459 7.21563 0.998459 7.53809 1.00354ZM6.37012 1.87557C6.1873 1.91116 5.88516 1.99251 5.69727 2.05353C5.50937 2.11709 5.19453 2.24421 4.99902 2.34082C4.80352 2.43743 4.52422 2.59505 4.37695 2.69166C4.22969 2.78827 4.02148 2.93827 3.9123 3.02471C3.80566 3.11115 3.63047 3.26623 3.52383 3.36792C3.41719 3.46707 3.23691 3.66029 3.12773 3.79249C3.01602 3.9247 2.8332 4.1713 2.72148 4.3391C2.60977 4.50689 2.43965 4.80435 2.34316 5.00011C2.24668 5.19587 2.11973 5.51112 2.05625 5.69925C1.99531 5.88738 1.91406 6.18992 1.87852 6.37297C1.84043 6.55602 1.79727 6.86873 1.78203 7.07212C1.75918 7.34923 1.75918 7.54245 1.78203 7.84753C1.79727 8.07126 1.83027 8.36363 1.85312 8.49583C1.87598 8.62803 1.93184 8.87464 1.97754 9.04243C2.02324 9.21023 2.09941 9.44412 2.14512 9.56361C2.19082 9.6831 2.30508 9.92971 2.39648 10.1102C2.49043 10.2907 2.625 10.5322 2.70117 10.6441C2.7748 10.756 2.90684 10.9365 2.99063 11.0433C3.07695 11.1526 3.15059 11.2416 3.1582 11.2416C3.16582 11.2416 3.20391 11.1297 3.24707 10.995C3.2877 10.8577 3.37402 10.6314 3.4375 10.4916C3.50352 10.3517 3.61016 10.1458 3.67871 10.0339C3.74727 9.92208 3.85391 9.76191 3.91484 9.67802C3.97832 9.59412 4.10527 9.44158 4.19668 9.33734C4.28809 9.23311 4.46074 9.06786 4.58008 8.96616C4.69941 8.86701 4.86953 8.73227 4.96094 8.66871C5.05234 8.60515 5.23008 8.49583 5.35449 8.42718C5.47891 8.35854 5.6668 8.26702 5.76582 8.22634C5.86738 8.18566 5.95117 8.14753 5.95117 8.1399C5.95117 8.13227 5.89785 8.08651 5.83184 8.03566C5.76328 7.98227 5.62871 7.8577 5.53223 7.75601C5.4332 7.65177 5.30625 7.49923 5.25039 7.41533C5.19199 7.33143 5.10313 7.17889 5.05234 7.07974C5.00156 6.97805 4.93301 6.80517 4.9 6.69839C4.86699 6.58907 4.83398 6.47212 4.82383 6.43653C4.81621 6.40094 4.79844 6.25857 4.7832 6.11874C4.76543 5.93823 4.76543 5.78569 4.78574 5.59756C4.80098 5.4501 4.8416 5.234 4.87461 5.11451C4.91016 4.99502 4.97617 4.81706 5.02187 4.72045C5.06758 4.62384 5.15645 4.46113 5.21992 4.36452C5.28594 4.26791 5.41035 4.10774 5.49922 4.01114C5.58555 3.91453 5.74551 3.77215 5.84961 3.69334C5.95371 3.61453 6.13145 3.50267 6.24316 3.44419C6.35488 3.38572 6.53262 3.30945 6.63672 3.27386C6.74082 3.23826 6.93633 3.1925 7.06836 3.17216C7.20039 3.14928 7.3959 3.13148 7.5 3.13148C7.6041 3.13148 7.79961 3.14928 7.93164 3.17216C8.06367 3.1925 8.25918 3.23826 8.36328 3.27386C8.46738 3.30945 8.64512 3.38572 8.75684 3.44419C8.86855 3.50267 9.04629 3.61453 9.15039 3.69334C9.25449 3.77215 9.41445 3.91453 9.50078 4.01114C9.58965 4.10774 9.71406 4.26791 9.78008 4.36452C9.84355 4.46113 9.93242 4.62384 9.97813 4.72045C10.0238 4.81706 10.0898 4.99502 10.1254 5.11451C10.1584 5.234 10.199 5.4501 10.2143 5.59756C10.2346 5.78315 10.2346 5.93823 10.2168 6.11365C10.2041 6.2484 10.1813 6.40856 10.166 6.46958C10.1533 6.52805 10.1152 6.65771 10.0822 6.75432C10.0492 6.85093 9.98574 7.00347 9.94004 7.09245C9.89688 7.17889 9.81816 7.31618 9.76738 7.39754C9.7166 7.47635 9.56934 7.64669 9.44238 7.7738C9.31797 7.90092 9.17324 8.03566 9.125 8.07126L9.03613 8.13736C9.19355 8.20092 9.34336 8.26956 9.46777 8.33058C9.59219 8.39159 9.81562 8.52125 9.96289 8.61786C10.1102 8.71447 10.3311 8.88481 10.458 8.99413C10.5824 9.10599 10.7627 9.2865 10.8592 9.39836C10.9531 9.51022 11.1182 9.72632 11.2197 9.8814C11.3238 10.0365 11.4686 10.2933 11.5422 10.4534C11.6184 10.6136 11.7123 10.8577 11.7529 10.995C11.7961 11.1297 11.8342 11.2416 11.8418 11.2416C11.8494 11.2416 11.923 11.1526 12.0094 11.0433C12.0932 10.9365 12.2252 10.756 12.2988 10.6441C12.375 10.5322 12.5121 10.2907 12.6035 10.1102C12.6949 9.92971 12.8092 9.6831 12.8549 9.56361C12.9006 9.44412 12.9768 9.21023 13.0225 9.04243C13.0682 8.87464 13.124 8.62803 13.1469 8.49583C13.1697 8.36363 13.2027 8.07126 13.218 7.84753C13.2408 7.54245 13.2408 7.34923 13.218 7.07212C13.2027 6.86873 13.1596 6.55602 13.1215 6.37297C13.0859 6.18992 13.0047 5.88738 12.9437 5.69925C12.8803 5.51112 12.7533 5.19587 12.6568 5.00011C12.5604 4.80435 12.3902 4.50689 12.2785 4.3391C12.1668 4.1713 11.984 3.9247 11.8723 3.79249C11.7631 3.66029 11.5828 3.46707 11.4762 3.36538C11.3695 3.26623 11.1943 3.11115 11.0877 3.02471C10.9785 2.93827 10.7703 2.78827 10.623 2.69166C10.4758 2.59505 10.1965 2.43743 10.001 2.34082C9.80547 2.24421 9.49063 2.11709 9.30273 2.05353C9.11484 1.99251 8.81016 1.91116 8.62988 1.87557C8.44961 1.83997 8.17539 1.7993 8.02051 1.78404C7.86563 1.77133 7.60918 1.76116 7.44922 1.76116C7.28926 1.7637 7.05313 1.77642 6.92871 1.78659C6.8043 1.7993 6.55293 1.83743 6.37012 1.87557ZM6.9668 3.973C6.8627 4.00097 6.69004 4.06961 6.58594 4.12808C6.48184 4.18401 6.32695 4.28571 6.24316 4.35435C6.15938 4.42299 6.0375 4.54503 5.97402 4.62384C5.90801 4.70519 5.81406 4.84502 5.76582 4.93655C5.71504 5.02807 5.64395 5.20604 5.60586 5.33061C5.55 5.52129 5.53984 5.60773 5.53984 5.8645C5.53984 6.09077 5.55254 6.22043 5.59063 6.36026C5.61855 6.4645 5.67695 6.62466 5.72266 6.71619C5.76836 6.80771 5.85469 6.95008 5.91309 7.03398C5.97148 7.11788 6.07559 7.23737 6.14414 7.30093C6.2127 7.36449 6.32695 7.45601 6.39551 7.50431C6.4666 7.55262 6.59102 7.62126 6.6748 7.66194C6.75859 7.70007 6.91855 7.75601 7.03027 7.78397C7.16992 7.81956 7.31465 7.83482 7.5 7.83482C7.68535 7.83482 7.83008 7.81956 7.96973 7.78397C8.08145 7.75601 8.24141 7.70007 8.3252 7.66194C8.40898 7.62126 8.53594 7.55262 8.60449 7.50431C8.67559 7.45601 8.7873 7.36449 8.85586 7.30093C8.92441 7.23737 9.02852 7.11788 9.08691 7.03398C9.14531 6.95008 9.23164 6.80771 9.27734 6.71619C9.32305 6.62466 9.38145 6.4645 9.40938 6.36026C9.44746 6.22043 9.46016 6.09077 9.46016 5.8645C9.46016 5.60773 9.45 5.52129 9.39414 5.33061C9.35605 5.20604 9.28496 5.02807 9.23418 4.93655C9.18594 4.84502 9.08945 4.70265 9.0209 4.61876C8.95234 4.53486 8.83047 4.41283 8.75176 4.34672C8.67051 4.28317 8.51816 4.18401 8.41406 4.12808C8.30996 4.06961 8.1373 4.00097 8.0332 3.97046C7.90625 3.93486 7.74883 3.91198 7.56348 3.9069C7.40859 3.90181 7.25625 3.90436 7.2207 3.90944C7.18516 3.91707 7.0709 3.94503 6.9668 3.973ZM6.76367 8.71193C6.64434 8.73735 6.43359 8.79582 6.29395 8.84413C6.1543 8.89243 5.95371 8.97633 5.84961 9.02972C5.74551 9.08311 5.55508 9.19497 5.43066 9.27887C5.30625 9.36277 5.10566 9.52039 4.98887 9.63226C4.87207 9.74158 4.70195 9.92208 4.61309 10.0339C4.52422 10.1458 4.39473 10.3289 4.32871 10.4407C4.26016 10.5526 4.16621 10.7356 4.11543 10.8475C4.06719 10.9594 3.99863 11.1475 3.96055 11.267C3.925 11.3865 3.87676 11.5797 3.85645 11.6992C3.83613 11.8187 3.82344 11.9153 3.82598 11.9178C3.82852 11.9178 3.90469 11.9763 3.99609 12.0475C4.0875 12.1187 4.25762 12.2382 4.37695 12.317C4.49629 12.3932 4.68926 12.5076 4.80859 12.5712C4.92793 12.6373 5.14375 12.739 5.29102 12.8C5.43828 12.861 5.67188 12.9475 5.81152 12.9907C5.95117 13.0339 6.17461 13.0898 6.30664 13.1178C6.43867 13.1458 6.65195 13.1839 6.77637 13.2017C6.90078 13.2195 7.22832 13.2348 7.5 13.2348C7.77168 13.2348 8.09922 13.2195 8.22363 13.2017C8.34805 13.1839 8.56133 13.1458 8.69336 13.1178C8.82539 13.0898 9.04883 13.0339 9.18848 12.9907C9.32812 12.9475 9.56172 12.861 9.70898 12.8C9.85625 12.739 10.0721 12.6373 10.1914 12.5712C10.3107 12.5076 10.5037 12.3932 10.623 12.317C10.7424 12.2382 10.9125 12.1187 11.0039 12.0475C11.0953 11.9763 11.1715 11.9178 11.174 11.9178C11.1766 11.9153 11.1613 11.811 11.141 11.6865C11.1182 11.5619 11.0674 11.3483 11.0242 11.2161C10.9836 11.0839 10.8998 10.8704 10.8389 10.7458C10.7805 10.6212 10.6586 10.4077 10.5697 10.2755C10.4656 10.1178 10.3031 9.92717 10.1051 9.72886C9.91465 9.53819 9.71152 9.36531 9.56934 9.27124C9.44492 9.18735 9.25449 9.07802 9.15039 9.02718C9.04629 8.97379 8.88125 8.9026 8.78223 8.86447C8.6832 8.82887 8.51816 8.77803 8.41406 8.75006C8.30996 8.72464 8.13223 8.69159 8.02051 8.67633C7.90879 8.66108 7.73867 8.64583 7.63965 8.64074C7.54062 8.63566 7.35273 8.64074 7.2207 8.65091C7.08867 8.65854 6.88301 8.6865 6.76367 8.71193Z"/>
</mask>
<path fill-rule="evenodd" clip-rule="evenodd" d="M7.53809 1.00354C7.85801 1.00863 8.21348 1.02642 8.3252 1.04422C8.43691 1.05948 8.67051 1.1027 8.8457 1.13829C9.0209 1.17388 9.32812 1.25778 9.53125 1.32642C9.73438 1.39252 10.0314 1.50693 10.1914 1.57811C10.3514 1.65184 10.6307 1.7993 10.8109 1.90608C10.9887 2.01285 11.2527 2.18828 11.3949 2.29505C11.5346 2.40183 11.7504 2.58234 11.8748 2.69674C11.9967 2.80861 12.1896 3.00183 12.3014 3.12386C12.4156 3.24843 12.5959 3.46453 12.7025 3.60436C12.8092 3.74673 12.9844 4.01114 13.091 4.1891C13.1977 4.36961 13.3449 4.64926 13.4186 4.80943C13.4896 4.9696 13.6039 5.26705 13.6699 5.47044C13.7385 5.67383 13.8223 5.98145 13.8578 6.15687C13.8934 6.33229 13.9391 6.61449 13.9594 6.78737C13.9822 6.95771 14 7.2755 14 7.4916C14 7.7077 13.9822 8.03058 13.9619 8.21109C13.9391 8.38905 13.8934 8.67633 13.8578 8.85176C13.8223 9.02718 13.7385 9.3348 13.6699 9.53819C13.6039 9.74158 13.4896 10.039 13.4186 10.1992C13.3449 10.3594 13.1977 10.639 13.091 10.8195C12.9844 10.9975 12.8092 11.2619 12.7025 11.4043C12.5959 11.5441 12.4156 11.7602 12.3014 11.8848C12.1896 12.0068 11.9967 12.2 11.8748 12.3119C11.7504 12.4263 11.5346 12.6068 11.3949 12.7136C11.2527 12.8204 10.9887 12.9958 10.8109 13.1026C10.6307 13.2093 10.3514 13.3568 10.1914 13.4305C10.0314 13.5017 9.73438 13.6161 9.53125 13.6822C9.32812 13.7509 9.0209 13.8347 8.8457 13.8703C8.67051 13.9059 8.42422 13.9492 8.2998 13.9669C8.16777 13.9873 7.83262 14 7.5 14C7.16738 14 6.83223 13.9873 6.7002 13.9669C6.57578 13.9492 6.32949 13.9059 6.1543 13.8703C5.9791 13.8347 5.67188 13.7509 5.46875 13.6822C5.26562 13.6161 4.96855 13.5017 4.80859 13.4305C4.64863 13.3568 4.36934 13.2093 4.18906 13.1026C4.01133 12.9958 3.74727 12.8204 3.60508 12.7136C3.46543 12.6068 3.24961 12.4263 3.1252 12.3119C3.00332 12.2 2.81035 12.0068 2.69863 11.8848C2.58438 11.7602 2.4041 11.5441 2.29746 11.4043C2.19082 11.2619 2.01562 10.9975 1.90898 10.8195C1.80234 10.639 1.65508 10.3594 1.58145 10.1992C1.51035 10.039 1.39609 9.74158 1.33008 9.53819C1.26152 9.3348 1.17773 9.02718 1.14219 8.85176C1.10664 8.67633 1.06094 8.39413 1.04063 8.22126C1.01777 8.05092 1 7.73313 1 7.51703C1 7.30093 1.01777 6.97805 1.03809 6.79754C1.06094 6.61958 1.10664 6.33229 1.14219 6.15687C1.17773 5.98145 1.26152 5.67383 1.33008 5.47044C1.39609 5.26705 1.51035 4.9696 1.58145 4.80943C1.65508 4.64926 1.80234 4.36961 1.90898 4.1891C2.01562 4.01114 2.19082 3.74673 2.29746 3.60436C2.4041 3.46453 2.58438 3.24843 2.69863 3.12386C2.81035 3.00183 3.00332 2.80861 3.1252 2.69674C3.24961 2.58234 3.46543 2.40183 3.60508 2.29505C3.74727 2.18828 4.01133 2.01285 4.18906 1.90608C4.36934 1.7993 4.64863 1.65184 4.80859 1.57811C4.96855 1.50693 5.26562 1.39252 5.46875 1.32642C5.67188 1.25778 5.9791 1.17388 6.1543 1.13829C6.32949 1.1027 6.57578 1.06202 6.7002 1.04676C6.82461 1.03151 6.93379 1.01117 6.94141 1.00609C6.94648 0.998459 7.21563 0.998459 7.53809 1.00354ZM6.37012 1.87557C6.1873 1.91116 5.88516 1.99251 5.69727 2.05353C5.50937 2.11709 5.19453 2.24421 4.99902 2.34082C4.80352 2.43743 4.52422 2.59505 4.37695 2.69166C4.22969 2.78827 4.02148 2.93827 3.9123 3.02471C3.80566 3.11115 3.63047 3.26623 3.52383 3.36792C3.41719 3.46707 3.23691 3.66029 3.12773 3.79249C3.01602 3.9247 2.8332 4.1713 2.72148 4.3391C2.60977 4.50689 2.43965 4.80435 2.34316 5.00011C2.24668 5.19587 2.11973 5.51112 2.05625 5.69925C1.99531 5.88738 1.91406 6.18992 1.87852 6.37297C1.84043 6.55602 1.79727 6.86873 1.78203 7.07212C1.75918 7.34923 1.75918 7.54245 1.78203 7.84753C1.79727 8.07126 1.83027 8.36363 1.85312 8.49583C1.87598 8.62803 1.93184 8.87464 1.97754 9.04243C2.02324 9.21023 2.09941 9.44412 2.14512 9.56361C2.19082 9.6831 2.30508 9.92971 2.39648 10.1102C2.49043 10.2907 2.625 10.5322 2.70117 10.6441C2.7748 10.756 2.90684 10.9365 2.99063 11.0433C3.07695 11.1526 3.15059 11.2416 3.1582 11.2416C3.16582 11.2416 3.20391 11.1297 3.24707 10.995C3.2877 10.8577 3.37402 10.6314 3.4375 10.4916C3.50352 10.3517 3.61016 10.1458 3.67871 10.0339C3.74727 9.92208 3.85391 9.76191 3.91484 9.67802C3.97832 9.59412 4.10527 9.44158 4.19668 9.33734C4.28809 9.23311 4.46074 9.06786 4.58008 8.96616C4.69941 8.86701 4.86953 8.73227 4.96094 8.66871C5.05234 8.60515 5.23008 8.49583 5.35449 8.42718C5.47891 8.35854 5.6668 8.26702 5.76582 8.22634C5.86738 8.18566 5.95117 8.14753 5.95117 8.1399C5.95117 8.13227 5.89785 8.08651 5.83184 8.03566C5.76328 7.98227 5.62871 7.8577 5.53223 7.75601C5.4332 7.65177 5.30625 7.49923 5.25039 7.41533C5.19199 7.33143 5.10313 7.17889 5.05234 7.07974C5.00156 6.97805 4.93301 6.80517 4.9 6.69839C4.86699 6.58907 4.83398 6.47212 4.82383 6.43653C4.81621 6.40094 4.79844 6.25857 4.7832 6.11874C4.76543 5.93823 4.76543 5.78569 4.78574 5.59756C4.80098 5.4501 4.8416 5.234 4.87461 5.11451C4.91016 4.99502 4.97617 4.81706 5.02187 4.72045C5.06758 4.62384 5.15645 4.46113 5.21992 4.36452C5.28594 4.26791 5.41035 4.10774 5.49922 4.01114C5.58555 3.91453 5.74551 3.77215 5.84961 3.69334C5.95371 3.61453 6.13145 3.50267 6.24316 3.44419C6.35488 3.38572 6.53262 3.30945 6.63672 3.27386C6.74082 3.23826 6.93633 3.1925 7.06836 3.17216C7.20039 3.14928 7.3959 3.13148 7.5 3.13148C7.6041 3.13148 7.79961 3.14928 7.93164 3.17216C8.06367 3.1925 8.25918 3.23826 8.36328 3.27386C8.46738 3.30945 8.64512 3.38572 8.75684 3.44419C8.86855 3.50267 9.04629 3.61453 9.15039 3.69334C9.25449 3.77215 9.41445 3.91453 9.50078 4.01114C9.58965 4.10774 9.71406 4.26791 9.78008 4.36452C9.84355 4.46113 9.93242 4.62384 9.97813 4.72045C10.0238 4.81706 10.0898 4.99502 10.1254 5.11451C10.1584 5.234 10.199 5.4501 10.2143 5.59756C10.2346 5.78315 10.2346 5.93823 10.2168 6.11365C10.2041 6.2484 10.1813 6.40856 10.166 6.46958C10.1533 6.52805 10.1152 6.65771 10.0822 6.75432C10.0492 6.85093 9.98574 7.00347 9.94004 7.09245C9.89688 7.17889 9.81816 7.31618 9.76738 7.39754C9.7166 7.47635 9.56934 7.64669 9.44238 7.7738C9.31797 7.90092 9.17324 8.03566 9.125 8.07126L9.03613 8.13736C9.19355 8.20092 9.34336 8.26956 9.46777 8.33058C9.59219 8.39159 9.81562 8.52125 9.96289 8.61786C10.1102 8.71447 10.3311 8.88481 10.458 8.99413C10.5824 9.10599 10.7627 9.2865 10.8592 9.39836C10.9531 9.51022 11.1182 9.72632 11.2197 9.8814C11.3238 10.0365 11.4686 10.2933 11.5422 10.4534C11.6184 10.6136 11.7123 10.8577 11.7529 10.995C11.7961 11.1297 11.8342 11.2416 11.8418 11.2416C11.8494 11.2416 11.923 11.1526 12.0094 11.0433C12.0932 10.9365 12.2252 10.756 12.2988 10.6441C12.375 10.5322 12.5121 10.2907 12.6035 10.1102C12.6949 9.92971 12.8092 9.6831 12.8549 9.56361C12.9006 9.44412 12.9768 9.21023 13.0225 9.04243C13.0682 8.87464 13.124 8.62803 13.1469 8.49583C13.1697 8.36363 13.2027 8.07126 13.218 7.84753C13.2408 7.54245 13.2408 7.34923 13.218 7.07212C13.2027 6.86873 13.1596 6.55602 13.1215 6.37297C13.0859 6.18992 13.0047 5.88738 12.9437 5.69925C12.8803 5.51112 12.7533 5.19587 12.6568 5.00011C12.5604 4.80435 12.3902 4.50689 12.2785 4.3391C12.1668 4.1713 11.984 3.9247 11.8723 3.79249C11.7631 3.66029 11.5828 3.46707 11.4762 3.36538C11.3695 3.26623 11.1943 3.11115 11.0877 3.02471C10.9785 2.93827 10.7703 2.78827 10.623 2.69166C10.4758 2.59505 10.1965 2.43743 10.001 2.34082C9.80547 2.24421 9.49063 2.11709 9.30273 2.05353C9.11484 1.99251 8.81016 1.91116 8.62988 1.87557C8.44961 1.83997 8.17539 1.7993 8.02051 1.78404C7.86563 1.77133 7.60918 1.76116 7.44922 1.76116C7.28926 1.7637 7.05313 1.77642 6.92871 1.78659C6.8043 1.7993 6.55293 1.83743 6.37012 1.87557ZM6.9668 3.973C6.8627 4.00097 6.69004 4.06961 6.58594 4.12808C6.48184 4.18401 6.32695 4.28571 6.24316 4.35435C6.15938 4.42299 6.0375 4.54503 5.97402 4.62384C5.90801 4.70519 5.81406 4.84502 5.76582 4.93655C5.71504 5.02807 5.64395 5.20604 5.60586 5.33061C5.55 5.52129 5.53984 5.60773 5.53984 5.8645C5.53984 6.09077 5.55254 6.22043 5.59063 6.36026C5.61855 6.4645 5.67695 6.62466 5.72266 6.71619C5.76836 6.80771 5.85469 6.95008 5.91309 7.03398C5.97148 7.11788 6.07559 7.23737 6.14414 7.30093C6.2127 7.36449 6.32695 7.45601 6.39551 7.50431C6.4666 7.55262 6.59102 7.62126 6.6748 7.66194C6.75859 7.70007 6.91855 7.75601 7.03027 7.78397C7.16992 7.81956 7.31465 7.83482 7.5 7.83482C7.68535 7.83482 7.83008 7.81956 7.96973 7.78397C8.08145 7.75601 8.24141 7.70007 8.3252 7.66194C8.40898 7.62126 8.53594 7.55262 8.60449 7.50431C8.67559 7.45601 8.7873 7.36449 8.85586 7.30093C8.92441 7.23737 9.02852 7.11788 9.08691 7.03398C9.14531 6.95008 9.23164 6.80771 9.27734 6.71619C9.32305 6.62466 9.38145 6.4645 9.40938 6.36026C9.44746 6.22043 9.46016 6.09077 9.46016 5.8645C9.46016 5.60773 9.45 5.52129 9.39414 5.33061C9.35605 5.20604 9.28496 5.02807 9.23418 4.93655C9.18594 4.84502 9.08945 4.70265 9.0209 4.61876C8.95234 4.53486 8.83047 4.41283 8.75176 4.34672C8.67051 4.28317 8.51816 4.18401 8.41406 4.12808C8.30996 4.06961 8.1373 4.00097 8.0332 3.97046C7.90625 3.93486 7.74883 3.91198 7.56348 3.9069C7.40859 3.90181 7.25625 3.90436 7.2207 3.90944C7.18516 3.91707 7.0709 3.94503 6.9668 3.973ZM6.76367 8.71193C6.64434 8.73735 6.43359 8.79582 6.29395 8.84413C6.1543 8.89243 5.95371 8.97633 5.84961 9.02972C5.74551 9.08311 5.55508 9.19497 5.43066 9.27887C5.30625 9.36277 5.10566 9.52039 4.98887 9.63226C4.87207 9.74158 4.70195 9.92208 4.61309 10.0339C4.52422 10.1458 4.39473 10.3289 4.32871 10.4407C4.26016 10.5526 4.16621 10.7356 4.11543 10.8475C4.06719 10.9594 3.99863 11.1475 3.96055 11.267C3.925 11.3865 3.87676 11.5797 3.85645 11.6992C3.83613 11.8187 3.82344 11.9153 3.82598 11.9178C3.82852 11.9178 3.90469 11.9763 3.99609 12.0475C4.0875 12.1187 4.25762 12.2382 4.37695 12.317C4.49629 12.3932 4.68926 12.5076 4.80859 12.5712C4.92793 12.6373 5.14375 12.739 5.29102 12.8C5.43828 12.861 5.67188 12.9475 5.81152 12.9907C5.95117 13.0339 6.17461 13.0898 6.30664 13.1178C6.43867 13.1458 6.65195 13.1839 6.77637 13.2017C6.90078 13.2195 7.22832 13.2348 7.5 13.2348C7.77168 13.2348 8.09922 13.2195 8.22363 13.2017C8.34805 13.1839 8.56133 13.1458 8.69336 13.1178C8.82539 13.0898 9.04883 13.0339 9.18848 12.9907C9.32812 12.9475 9.56172 12.861 9.70898 12.8C9.85625 12.739 10.0721 12.6373 10.1914 12.5712C10.3107 12.5076 10.5037 12.3932 10.623 12.317C10.7424 12.2382 10.9125 12.1187 11.0039 12.0475C11.0953 11.9763 11.1715 11.9178 11.174 11.9178C11.1766 11.9153 11.1613 11.811 11.141 11.6865C11.1182 11.5619 11.0674 11.3483 11.0242 11.2161C10.9836 11.0839 10.8998 10.8704 10.8389 10.7458C10.7805 10.6212 10.6586 10.4077 10.5697 10.2755C10.4656 10.1178 10.3031 9.92717 10.1051 9.72886C9.91465 9.53819 9.71152 9.36531 9.56934 9.27124C9.44492 9.18735 9.25449 9.07802 9.15039 9.02718C9.04629 8.97379 8.88125 8.9026 8.78223 8.86447C8.6832 8.82887 8.51816 8.77803 8.41406 8.75006C8.30996 8.72464 8.13223 8.69159 8.02051 8.67633C7.90879 8.66108 7.73867 8.64583 7.63965 8.64074C7.54062 8.63566 7.35273 8.64074 7.2207 8.65091C7.08867 8.65854 6.88301 8.6865 6.76367 8.71193Z" fill="#666666"/>
<path fill-rule="evenodd" clip-rule="evenodd" d="M7.53809 1.00354C7.85801 1.00863 8.21348 1.02642 8.3252 1.04422C8.43691 1.05948 8.67051 1.1027 8.8457 1.13829C9.0209 1.17388 9.32812 1.25778 9.53125 1.32642C9.73438 1.39252 10.0314 1.50693 10.1914 1.57811C10.3514 1.65184 10.6307 1.7993 10.8109 1.90608C10.9887 2.01285 11.2527 2.18828 11.3949 2.29505C11.5346 2.40183 11.7504 2.58234 11.8748 2.69674C11.9967 2.80861 12.1896 3.00183 12.3014 3.12386C12.4156 3.24843 12.5959 3.46453 12.7025 3.60436C12.8092 3.74673 12.9844 4.01114 13.091 4.1891C13.1977 4.36961 13.3449 4.64926 13.4186 4.80943C13.4896 4.9696 13.6039 5.26705 13.6699 5.47044C13.7385 5.67383 13.8223 5.98145 13.8578 6.15687C13.8934 6.33229 13.9391 6.61449 13.9594 6.78737C13.9822 6.95771 14 7.2755 14 7.4916C14 7.7077 13.9822 8.03058 13.9619 8.21109C13.9391 8.38905 13.8934 8.67633 13.8578 8.85176C13.8223 9.02718 13.7385 9.3348 13.6699 9.53819C13.6039 9.74158 13.4896 10.039 13.4186 10.1992C13.3449 10.3594 13.1977 10.639 13.091 10.8195C12.9844 10.9975 12.8092 11.2619 12.7025 11.4043C12.5959 11.5441 12.4156 11.7602 12.3014 11.8848C12.1896 12.0068 11.9967 12.2 11.8748 12.3119C11.7504 12.4263 11.5346 12.6068 11.3949 12.7136C11.2527 12.8204 10.9887 12.9958 10.8109 13.1026C10.6307 13.2093 10.3514 13.3568 10.1914 13.4305C10.0314 13.5017 9.73438 13.6161 9.53125 13.6822C9.32812 13.7509 9.0209 13.8347 8.8457 13.8703C8.67051 13.9059 8.42422 13.9492 8.2998 13.9669C8.16777 13.9873 7.83262 14 7.5 14C7.16738 14 6.83223 13.9873 6.7002 13.9669C6.57578 13.9492 6.32949 13.9059 6.1543 13.8703C5.9791 13.8347 5.67188 13.7509 5.46875 13.6822C5.26562 13.6161 4.96855 13.5017 4.80859 13.4305C4.64863 13.3568 4.36934 13.2093 4.18906 13.1026C4.01133 12.9958 3.74727 12.8204 3.60508 12.7136C3.46543 12.6068 3.24961 12.4263 3.1252 12.3119C3.00332 12.2 2.81035 12.0068 2.69863 11.8848C2.58438 11.7602 2.4041 11.5441 2.29746 11.4043C2.19082 11.2619 2.01562 10.9975 1.90898 10.8195C1.80234 10.639 1.65508 10.3594 1.58145 10.1992C1.51035 10.039 1.39609 9.74158 1.33008 9.53819C1.26152 9.3348 1.17773 9.02718 1.14219 8.85176C1.10664 8.67633 1.06094 8.39413 1.04063 8.22126C1.01777 8.05092 1 7.73313 1 7.51703C1 7.30093 1.01777 6.97805 1.03809 6.79754C1.06094 6.61958 1.10664 6.33229 1.14219 6.15687C1.17773 5.98145 1.26152 5.67383 1.33008 5.47044C1.39609 5.26705 1.51035 4.9696 1.58145 4.80943C1.65508 4.64926 1.80234 4.36961 1.90898 4.1891C2.01562 4.01114 2.19082 3.74673 2.29746 3.60436C2.4041 3.46453 2.58438 3.24843 2.69863 3.12386C2.81035 3.00183 3.00332 2.80861 3.1252 2.69674C3.24961 2.58234 3.46543 2.40183 3.60508 2.29505C3.74727 2.18828 4.01133 2.01285 4.18906 1.90608C4.36934 1.7993 4.64863 1.65184 4.80859 1.57811C4.96855 1.50693 5.26562 1.39252 5.46875 1.32642C5.67188 1.25778 5.9791 1.17388 6.1543 1.13829C6.32949 1.1027 6.57578 1.06202 6.7002 1.04676C6.82461 1.03151 6.93379 1.01117 6.94141 1.00609C6.94648 0.998459 7.21563 0.998459 7.53809 1.00354ZM6.37012 1.87557C6.1873 1.91116 5.88516 1.99251 5.69727 2.05353C5.50937 2.11709 5.19453 2.24421 4.99902 2.34082C4.80352 2.43743 4.52422 2.59505 4.37695 2.69166C4.22969 2.78827 4.02148 2.93827 3.9123 3.02471C3.80566 3.11115 3.63047 3.26623 3.52383 3.36792C3.41719 3.46707 3.23691 3.66029 3.12773 3.79249C3.01602 3.9247 2.8332 4.1713 2.72148 4.3391C2.60977 4.50689 2.43965 4.80435 2.34316 5.00011C2.24668 5.19587 2.11973 5.51112 2.05625 5.69925C1.99531 5.88738 1.91406 6.18992 1.87852 6.37297C1.84043 6.55602 1.79727 6.86873 1.78203 7.07212C1.75918 7.34923 1.75918 7.54245 1.78203 7.84753C1.79727 8.07126 1.83027 8.36363 1.85312 8.49583C1.87598 8.62803 1.93184 8.87464 1.97754 9.04243C2.02324 9.21023 2.09941 9.44412 2.14512 9.56361C2.19082 9.6831 2.30508 9.92971 2.39648 10.1102C2.49043 10.2907 2.625 10.5322 2.70117 10.6441C2.7748 10.756 2.90684 10.9365 2.99063 11.0433C3.07695 11.1526 3.15059 11.2416 3.1582 11.2416C3.16582 11.2416 3.20391 11.1297 3.24707 10.995C3.2877 10.8577 3.37402 10.6314 3.4375 10.4916C3.50352 10.3517 3.61016 10.1458 3.67871 10.0339C3.74727 9.92208 3.85391 9.76191 3.91484 9.67802C3.97832 9.59412 4.10527 9.44158 4.19668 9.33734C4.28809 9.23311 4.46074 9.06786 4.58008 8.96616C4.69941 8.86701 4.86953 8.73227 4.96094 8.66871C5.05234 8.60515 5.23008 8.49583 5.35449 8.42718C5.47891 8.35854 5.6668 8.26702 5.76582 8.22634C5.86738 8.18566 5.95117 8.14753 5.95117 8.1399C5.95117 8.13227 5.89785 8.08651 5.83184 8.03566C5.76328 7.98227 5.62871 7.8577 5.53223 7.75601C5.4332 7.65177 5.30625 7.49923 5.25039 7.41533C5.19199 7.33143 5.10313 7.17889 5.05234 7.07974C5.00156 6.97805 4.93301 6.80517 4.9 6.69839C4.86699 6.58907 4.83398 6.47212 4.82383 6.43653C4.81621 6.40094 4.79844 6.25857 4.7832 6.11874C4.76543 5.93823 4.76543 5.78569 4.78574 5.59756C4.80098 5.4501 4.8416 5.234 4.87461 5.11451C4.91016 4.99502 4.97617 4.81706 5.02187 4.72045C5.06758 4.62384 5.15645 4.46113 5.21992 4.36452C5.28594 4.26791 5.41035 4.10774 5.49922 4.01114C5.58555 3.91453 5.74551 3.77215 5.84961 3.69334C5.95371 3.61453 6.13145 3.50267 6.24316 3.44419C6.35488 3.38572 6.53262 3.30945 6.63672 3.27386C6.74082 3.23826 6.93633 3.1925 7.06836 3.17216C7.20039 3.14928 7.3959 3.13148 7.5 3.13148C7.6041 3.13148 7.79961 3.14928 7.93164 3.17216C8.06367 3.1925 8.25918 3.23826 8.36328 3.27386C8.46738 3.30945 8.64512 3.38572 8.75684 3.44419C8.86855 3.50267 9.04629 3.61453 9.15039 3.69334C9.25449 3.77215 9.41445 3.91453 9.50078 4.01114C9.58965 4.10774 9.71406 4.26791 9.78008 4.36452C9.84355 4.46113 9.93242 4.62384 9.97813 4.72045C10.0238 4.81706 10.0898 4.99502 10.1254 5.11451C10.1584 5.234 10.199 5.4501 10.2143 5.59756C10.2346 5.78315 10.2346 5.93823 10.2168 6.11365C10.2041 6.2484 10.1813 6.40856 10.166 6.46958C10.1533 6.52805 10.1152 6.65771 10.0822 6.75432C10.0492 6.85093 9.98574 7.00347 9.94004 7.09245C9.89688 7.17889 9.81816 7.31618 9.76738 7.39754C9.7166 7.47635 9.56934 7.64669 9.44238 7.7738C9.31797 7.90092 9.17324 8.03566 9.125 8.07126L9.03613 8.13736C9.19355 8.20092 9.34336 8.26956 9.46777 8.33058C9.59219 8.39159 9.81562 8.52125 9.96289 8.61786C10.1102 8.71447 10.3311 8.88481 10.458 8.99413C10.5824 9.10599 10.7627 9.2865 10.8592 9.39836C10.9531 9.51022 11.1182 9.72632 11.2197 9.8814C11.3238 10.0365 11.4686 10.2933 11.5422 10.4534C11.6184 10.6136 11.7123 10.8577 11.7529 10.995C11.7961 11.1297 11.8342 11.2416 11.8418 11.2416C11.8494 11.2416 11.923 11.1526 12.0094 11.0433C12.0932 10.9365 12.2252 10.756 12.2988 10.6441C12.375 10.5322 12.5121 10.2907 12.6035 10.1102C12.6949 9.92971 12.8092 9.6831 12.8549 9.56361C12.9006 9.44412 12.9768 9.21023 13.0225 9.04243C13.0682 8.87464 13.124 8.62803 13.1469 8.49583C13.1697 8.36363 13.2027 8.07126 13.218 7.84753C13.2408 7.54245 13.2408 7.34923 13.218 7.07212C13.2027 6.86873 13.1596 6.55602 13.1215 6.37297C13.0859 6.18992 13.0047 5.88738 12.9437 5.69925C12.8803 5.51112 12.7533 5.19587 12.6568 5.00011C12.5604 4.80435 12.3902 4.50689 12.2785 4.3391C12.1668 4.1713 11.984 3.9247 11.8723 3.79249C11.7631 3.66029 11.5828 3.46707 11.4762 3.36538C11.3695 3.26623 11.1943 3.11115 11.0877 3.02471C10.9785 2.93827 10.7703 2.78827 10.623 2.69166C10.4758 2.59505 10.1965 2.43743 10.001 2.34082C9.80547 2.24421 9.49063 2.11709 9.30273 2.05353C9.11484 1.99251 8.81016 1.91116 8.62988 1.87557C8.44961 1.83997 8.17539 1.7993 8.02051 1.78404C7.86563 1.77133 7.60918 1.76116 7.44922 1.76116C7.28926 1.7637 7.05313 1.77642 6.92871 1.78659C6.8043 1.7993 6.55293 1.83743 6.37012 1.87557ZM6.9668 3.973C6.8627 4.00097 6.69004 4.06961 6.58594 4.12808C6.48184 4.18401 6.32695 4.28571 6.24316 4.35435C6.15938 4.42299 6.0375 4.54503 5.97402 4.62384C5.90801 4.70519 5.81406 4.84502 5.76582 4.93655C5.71504 5.02807 5.64395 5.20604 5.60586 5.33061C5.55 5.52129 5.53984 5.60773 5.53984 5.8645C5.53984 6.09077 5.55254 6.22043 5.59063 6.36026C5.61855 6.4645 5.67695 6.62466 5.72266 6.71619C5.76836 6.80771 5.85469 6.95008 5.91309 7.03398C5.97148 7.11788 6.07559 7.23737 6.14414 7.30093C6.2127 7.36449 6.32695 7.45601 6.39551 7.50431C6.4666 7.55262 6.59102 7.62126 6.6748 7.66194C6.75859 7.70007 6.91855 7.75601 7.03027 7.78397C7.16992 7.81956 7.31465 7.83482 7.5 7.83482C7.68535 7.83482 7.83008 7.81956 7.96973 7.78397C8.08145 7.75601 8.24141 7.70007 8.3252 7.66194C8.40898 7.62126 8.53594 7.55262 8.60449 7.50431C8.67559 7.45601 8.7873 7.36449 8.85586 7.30093C8.92441 7.23737 9.02852 7.11788 9.08691 7.03398C9.14531 6.95008 9.23164 6.80771 9.27734 6.71619C9.32305 6.62466 9.38145 6.4645 9.40938 6.36026C9.44746 6.22043 9.46016 6.09077 9.46016 5.8645C9.46016 5.60773 9.45 5.52129 9.39414 5.33061C9.35605 5.20604 9.28496 5.02807 9.23418 4.93655C9.18594 4.84502 9.08945 4.70265 9.0209 4.61876C8.95234 4.53486 8.83047 4.41283 8.75176 4.34672C8.67051 4.28317 8.51816 4.18401 8.41406 4.12808C8.30996 4.06961 8.1373 4.00097 8.0332 3.97046C7.90625 3.93486 7.74883 3.91198 7.56348 3.9069C7.40859 3.90181 7.25625 3.90436 7.2207 3.90944C7.18516 3.91707 7.0709 3.94503 6.9668 3.973ZM6.76367 8.71193C6.64434 8.73735 6.43359 8.79582 6.29395 8.84413C6.1543 8.89243 5.95371 8.97633 5.84961 9.02972C5.74551 9.08311 5.55508 9.19497 5.43066 9.27887C5.30625 9.36277 5.10566 9.52039 4.98887 9.63226C4.87207 9.74158 4.70195 9.92208 4.61309 10.0339C4.52422 10.1458 4.39473 10.3289 4.32871 10.4407C4.26016 10.5526 4.16621 10.7356 4.11543 10.8475C4.06719 10.9594 3.99863 11.1475 3.96055 11.267C3.925 11.3865 3.87676 11.5797 3.85645 11.6992C3.83613 11.8187 3.82344 11.9153 3.82598 11.9178C3.82852 11.9178 3.90469 11.9763 3.99609 12.0475C4.0875 12.1187 4.25762 12.2382 4.37695 12.317C4.49629 12.3932 4.68926 12.5076 4.80859 12.5712C4.92793 12.6373 5.14375 12.739 5.29102 12.8C5.43828 12.861 5.67188 12.9475 5.81152 12.9907C5.95117 13.0339 6.17461 13.0898 6.30664 13.1178C6.43867 13.1458 6.65195 13.1839 6.77637 13.2017C6.90078 13.2195 7.22832 13.2348 7.5 13.2348C7.77168 13.2348 8.09922 13.2195 8.22363 13.2017C8.34805 13.1839 8.56133 13.1458 8.69336 13.1178C8.82539 13.0898 9.04883 13.0339 9.18848 12.9907C9.32812 12.9475 9.56172 12.861 9.70898 12.8C9.85625 12.739 10.0721 12.6373 10.1914 12.5712C10.3107 12.5076 10.5037 12.3932 10.623 12.317C10.7424 12.2382 10.9125 12.1187 11.0039 12.0475C11.0953 11.9763 11.1715 11.9178 11.174 11.9178C11.1766 11.9153 11.1613 11.811 11.141 11.6865C11.1182 11.5619 11.0674 11.3483 11.0242 11.2161C10.9836 11.0839 10.8998 10.8704 10.8389 10.7458C10.7805 10.6212 10.6586 10.4077 10.5697 10.2755C10.4656 10.1178 10.3031 9.92717 10.1051 9.72886C9.91465 9.53819 9.71152 9.36531 9.56934 9.27124C9.44492 9.18735 9.25449 9.07802 9.15039 9.02718C9.04629 8.97379 8.88125 8.9026 8.78223 8.86447C8.6832 8.82887 8.51816 8.77803 8.41406 8.75006C8.30996 8.72464 8.13223 8.69159 8.02051 8.67633C7.90879 8.66108 7.73867 8.64583 7.63965 8.64074C7.54062 8.63566 7.35273 8.64074 7.2207 8.65091C7.08867 8.65854 6.88301 8.6865 6.76367 8.71193Z" stroke="#666666" stroke-width="0.2" mask="url(#path-1-outside-1_309_2696)"/>
</svg>
